G04 EAGLE Gerber RS-274X export*
G75*
%MOMM*%
%FSLAX34Y34*%
%LPD*%
%INEAGLE Copper Layer 2*%
%IPPOS*%
%AMOC8*
5,1,8,0,0,1.08239X$1,22.5*%
G01*
%ADD10C,1.200000*%
%ADD11C,1.065000*%
%ADD12C,1.524000*%
%ADD13C,0.500000*%

G36*
X125564Y2510D02*
X125564Y2510D01*
X125628Y2509D01*
X125703Y2530D01*
X125779Y2541D01*
X125838Y2567D01*
X125900Y2584D01*
X125966Y2625D01*
X126036Y2657D01*
X126085Y2699D01*
X126140Y2732D01*
X126192Y2790D01*
X126250Y2840D01*
X126286Y2894D01*
X126329Y2942D01*
X126362Y3011D01*
X126405Y3076D01*
X126424Y3138D01*
X126452Y3195D01*
X126463Y3265D01*
X126487Y3346D01*
X126488Y3431D01*
X126499Y3500D01*
X126499Y6700D01*
X128550Y8751D01*
X131450Y8751D01*
X133501Y6700D01*
X133501Y3500D01*
X133510Y3436D01*
X133509Y3372D01*
X133530Y3297D01*
X133541Y3221D01*
X133567Y3162D01*
X133584Y3100D01*
X133625Y3034D01*
X133657Y2964D01*
X133699Y2915D01*
X133732Y2860D01*
X133790Y2808D01*
X133840Y2750D01*
X133894Y2714D01*
X133942Y2671D01*
X134011Y2638D01*
X134076Y2595D01*
X134138Y2576D01*
X134195Y2548D01*
X134265Y2537D01*
X134346Y2513D01*
X134431Y2512D01*
X134500Y2501D01*
X251250Y2501D01*
X251320Y2511D01*
X251380Y2509D01*
X251769Y2560D01*
X251809Y2572D01*
X251850Y2575D01*
X251931Y2606D01*
X252040Y2636D01*
X252090Y2667D01*
X252138Y2686D01*
X252810Y3074D01*
X252894Y3140D01*
X252983Y3200D01*
X253003Y3225D01*
X253032Y3248D01*
X253119Y3368D01*
X253176Y3440D01*
X253564Y4112D01*
X253580Y4151D01*
X253603Y4186D01*
X253627Y4268D01*
X253669Y4374D01*
X253675Y4432D01*
X253690Y4481D01*
X253741Y4870D01*
X253740Y4940D01*
X253749Y5000D01*
X253749Y530000D01*
X253739Y530070D01*
X253741Y530130D01*
X253690Y530519D01*
X253678Y530559D01*
X253675Y530600D01*
X253644Y530681D01*
X253614Y530790D01*
X253583Y530840D01*
X253564Y530888D01*
X253176Y531560D01*
X253110Y531644D01*
X253050Y531733D01*
X253025Y531753D01*
X253002Y531782D01*
X252882Y531869D01*
X252810Y531926D01*
X252138Y532314D01*
X252099Y532330D01*
X252064Y532353D01*
X251982Y532377D01*
X251876Y532419D01*
X251818Y532425D01*
X251769Y532440D01*
X251380Y532491D01*
X251310Y532490D01*
X251250Y532499D01*
X207791Y532499D01*
X207674Y532483D01*
X207556Y532471D01*
X207534Y532463D01*
X207512Y532459D01*
X207404Y532411D01*
X207294Y532367D01*
X207276Y532353D01*
X207255Y532343D01*
X207165Y532266D01*
X207071Y532193D01*
X207058Y532175D01*
X207041Y532160D01*
X206976Y532060D01*
X206906Y531964D01*
X206899Y531943D01*
X206886Y531924D01*
X206852Y531810D01*
X206812Y531699D01*
X206811Y531676D01*
X206804Y531654D01*
X206802Y531536D01*
X206795Y531417D01*
X206800Y531396D01*
X206800Y531372D01*
X206850Y531193D01*
X206868Y531118D01*
X207251Y530194D01*
X207251Y527806D01*
X206337Y525601D01*
X204649Y523913D01*
X202444Y522999D01*
X200056Y522999D01*
X199882Y523071D01*
X199768Y523101D01*
X199654Y523135D01*
X199631Y523136D01*
X199609Y523141D01*
X199491Y523138D01*
X199372Y523139D01*
X199350Y523133D01*
X199327Y523132D01*
X199215Y523096D01*
X199100Y523064D01*
X199081Y523052D01*
X199059Y523045D01*
X198961Y522978D01*
X198860Y522916D01*
X198845Y522899D01*
X198826Y522886D01*
X198751Y522794D01*
X198671Y522707D01*
X198661Y522686D01*
X198647Y522668D01*
X198600Y522560D01*
X198548Y522453D01*
X198545Y522431D01*
X198535Y522409D01*
X198521Y522292D01*
X198513Y522265D01*
X198512Y522221D01*
X198501Y522148D01*
X198501Y520425D01*
X196450Y518374D01*
X193550Y518374D01*
X191499Y520425D01*
X191499Y523325D01*
X193550Y525376D01*
X194761Y525376D01*
X194878Y525392D01*
X194996Y525404D01*
X195017Y525412D01*
X195040Y525416D01*
X195148Y525464D01*
X195258Y525508D01*
X195276Y525522D01*
X195297Y525532D01*
X195387Y525609D01*
X195480Y525682D01*
X195494Y525700D01*
X195511Y525715D01*
X195576Y525815D01*
X195645Y525911D01*
X195653Y525932D01*
X195666Y525951D01*
X195700Y526065D01*
X195740Y526176D01*
X195741Y526199D01*
X195748Y526221D01*
X195749Y526339D01*
X195756Y526458D01*
X195751Y526479D01*
X195752Y526503D01*
X195702Y526682D01*
X195684Y526757D01*
X195249Y527806D01*
X195249Y530194D01*
X195632Y531118D01*
X195661Y531232D01*
X195696Y531346D01*
X195696Y531369D01*
X195702Y531391D01*
X195698Y531509D01*
X195700Y531628D01*
X195694Y531650D01*
X195693Y531673D01*
X195656Y531785D01*
X195625Y531900D01*
X195613Y531919D01*
X195606Y531941D01*
X195539Y532039D01*
X195477Y532140D01*
X195460Y532155D01*
X195447Y532174D01*
X195355Y532249D01*
X195267Y532329D01*
X195247Y532339D01*
X195229Y532353D01*
X195120Y532400D01*
X195013Y532452D01*
X194992Y532455D01*
X194970Y532465D01*
X194785Y532487D01*
X194709Y532499D01*
X64500Y532499D01*
X64436Y532490D01*
X64372Y532491D01*
X64297Y532470D01*
X64221Y532459D01*
X64162Y532433D01*
X64100Y532416D01*
X64034Y532375D01*
X63964Y532343D01*
X63915Y532301D01*
X63860Y532268D01*
X63808Y532210D01*
X63750Y532160D01*
X63714Y532106D01*
X63671Y532058D01*
X63638Y531989D01*
X63595Y531924D01*
X63576Y531862D01*
X63548Y531805D01*
X63537Y531735D01*
X63513Y531654D01*
X63512Y531569D01*
X63501Y531500D01*
X63501Y528550D01*
X62532Y527582D01*
X62494Y527530D01*
X62448Y527485D01*
X62410Y527418D01*
X62363Y527356D01*
X62340Y527296D01*
X62309Y527240D01*
X62291Y527165D01*
X62264Y527092D01*
X62259Y527028D01*
X62244Y526966D01*
X62248Y526888D01*
X62242Y526811D01*
X62255Y526748D01*
X62258Y526684D01*
X62284Y526611D01*
X62299Y526535D01*
X62330Y526478D01*
X62351Y526417D01*
X62392Y526361D01*
X62432Y526286D01*
X62491Y526225D01*
X62532Y526168D01*
X63501Y525200D01*
X63501Y522300D01*
X61450Y520249D01*
X58550Y520249D01*
X57582Y521218D01*
X57530Y521256D01*
X57485Y521302D01*
X57418Y521340D01*
X57356Y521387D01*
X57296Y521410D01*
X57240Y521441D01*
X57165Y521459D01*
X57092Y521486D01*
X57028Y521491D01*
X56966Y521506D01*
X56888Y521502D01*
X56811Y521508D01*
X56748Y521495D01*
X56684Y521492D01*
X56611Y521466D01*
X56535Y521451D01*
X56478Y521420D01*
X56417Y521399D01*
X56361Y521358D01*
X56286Y521318D01*
X56225Y521259D01*
X56168Y521218D01*
X55200Y520249D01*
X52300Y520249D01*
X50249Y522300D01*
X50249Y525200D01*
X51218Y526168D01*
X51256Y526220D01*
X51302Y526265D01*
X51340Y526332D01*
X51387Y526394D01*
X51410Y526454D01*
X51441Y526510D01*
X51459Y526585D01*
X51486Y526658D01*
X51491Y526722D01*
X51506Y526785D01*
X51502Y526862D01*
X51508Y526939D01*
X51495Y527002D01*
X51492Y527066D01*
X51466Y527139D01*
X51451Y527215D01*
X51420Y527272D01*
X51399Y527333D01*
X51358Y527389D01*
X51318Y527464D01*
X51259Y527525D01*
X51218Y527582D01*
X50249Y528550D01*
X50249Y531500D01*
X50240Y531564D01*
X50241Y531628D01*
X50220Y531703D01*
X50209Y531779D01*
X50183Y531838D01*
X50166Y531900D01*
X50125Y531966D01*
X50093Y532036D01*
X50051Y532085D01*
X50018Y532140D01*
X49960Y532192D01*
X49910Y532250D01*
X49856Y532286D01*
X49808Y532329D01*
X49739Y532362D01*
X49674Y532405D01*
X49612Y532424D01*
X49555Y532452D01*
X49485Y532463D01*
X49404Y532487D01*
X49319Y532488D01*
X49250Y532499D01*
X5000Y532499D01*
X4930Y532489D01*
X4870Y532491D01*
X4481Y532440D01*
X4441Y532428D01*
X4400Y532425D01*
X4319Y532394D01*
X4210Y532364D01*
X4160Y532333D01*
X4112Y532314D01*
X3440Y531926D01*
X3356Y531860D01*
X3267Y531800D01*
X3247Y531775D01*
X3218Y531752D01*
X3131Y531632D01*
X3074Y531560D01*
X2686Y530888D01*
X2670Y530849D01*
X2647Y530814D01*
X2623Y530732D01*
X2581Y530626D01*
X2575Y530568D01*
X2560Y530519D01*
X2509Y530130D01*
X2510Y530060D01*
X2501Y530000D01*
X2501Y511621D01*
X2518Y511496D01*
X2532Y511371D01*
X2538Y511357D01*
X2541Y511341D01*
X2592Y511227D01*
X2641Y511111D01*
X2650Y511099D01*
X2657Y511084D01*
X2738Y510989D01*
X2817Y510891D01*
X2830Y510882D01*
X2840Y510870D01*
X2946Y510801D01*
X3048Y510729D01*
X3063Y510724D01*
X3076Y510716D01*
X3196Y510679D01*
X3315Y510639D01*
X3331Y510638D01*
X3346Y510633D01*
X3471Y510632D01*
X3597Y510626D01*
X3612Y510630D01*
X3628Y510630D01*
X3749Y510663D01*
X3871Y510693D01*
X3885Y510701D01*
X3900Y510705D01*
X4007Y510771D01*
X4116Y510834D01*
X4126Y510845D01*
X4140Y510853D01*
X4224Y510946D01*
X4311Y511037D01*
X4318Y511050D01*
X4329Y511062D01*
X4435Y511281D01*
X4450Y511312D01*
X4834Y512493D01*
X5522Y513842D01*
X6412Y515068D01*
X7482Y516138D01*
X8708Y517028D01*
X10057Y517716D01*
X11497Y518184D01*
X11751Y518224D01*
X11751Y509800D01*
X11760Y509737D01*
X11759Y509672D01*
X11780Y509598D01*
X11791Y509521D01*
X11817Y509462D01*
X11834Y509400D01*
X11875Y509334D01*
X11907Y509264D01*
X11949Y509215D01*
X11982Y509160D01*
X12040Y509109D01*
X12090Y509050D01*
X12144Y509014D01*
X12192Y508971D01*
X12261Y508938D01*
X12326Y508895D01*
X12388Y508876D01*
X12445Y508848D01*
X12515Y508838D01*
X12596Y508813D01*
X12681Y508812D01*
X12750Y508801D01*
X13751Y508801D01*
X13751Y508799D01*
X12750Y508799D01*
X12686Y508790D01*
X12622Y508791D01*
X12547Y508770D01*
X12471Y508759D01*
X12412Y508733D01*
X12350Y508716D01*
X12284Y508675D01*
X12214Y508643D01*
X12165Y508601D01*
X12110Y508568D01*
X12058Y508510D01*
X12000Y508460D01*
X11964Y508406D01*
X11921Y508358D01*
X11888Y508289D01*
X11845Y508224D01*
X11826Y508162D01*
X11798Y508104D01*
X11787Y508035D01*
X11763Y507954D01*
X11762Y507869D01*
X11751Y507800D01*
X11751Y499376D01*
X11497Y499416D01*
X10057Y499884D01*
X8708Y500572D01*
X7482Y501462D01*
X6412Y502532D01*
X5522Y503758D01*
X4834Y505107D01*
X4450Y506288D01*
X4395Y506401D01*
X4343Y506516D01*
X4333Y506527D01*
X4326Y506541D01*
X4241Y506634D01*
X4160Y506730D01*
X4147Y506738D01*
X4136Y506750D01*
X4029Y506815D01*
X3924Y506884D01*
X3909Y506889D01*
X3896Y506897D01*
X3774Y506930D01*
X3654Y506967D01*
X3639Y506967D01*
X3623Y506971D01*
X3498Y506969D01*
X3372Y506970D01*
X3357Y506966D01*
X3342Y506966D01*
X3222Y506929D01*
X3100Y506895D01*
X3087Y506887D01*
X3072Y506882D01*
X2967Y506813D01*
X2860Y506747D01*
X2850Y506735D01*
X2837Y506727D01*
X2756Y506631D01*
X2671Y506538D01*
X2664Y506524D01*
X2654Y506512D01*
X2603Y506397D01*
X2548Y506284D01*
X2546Y506269D01*
X2539Y506254D01*
X2506Y506013D01*
X2501Y505979D01*
X2501Y5000D01*
X2511Y4930D01*
X2509Y4870D01*
X2560Y4481D01*
X2572Y4441D01*
X2575Y4400D01*
X2606Y4319D01*
X2636Y4210D01*
X2667Y4160D01*
X2686Y4112D01*
X3074Y3440D01*
X3140Y3356D01*
X3200Y3267D01*
X3225Y3247D01*
X3248Y3218D01*
X3368Y3131D01*
X3440Y3074D01*
X4112Y2686D01*
X4151Y2670D01*
X4186Y2647D01*
X4268Y2623D01*
X4374Y2581D01*
X4432Y2575D01*
X4481Y2560D01*
X4870Y2509D01*
X4940Y2510D01*
X5000Y2501D01*
X125500Y2501D01*
X125564Y2510D01*
G37*
%LPC*%
G36*
X49892Y29774D02*
X49892Y29774D01*
X47567Y30737D01*
X45787Y32517D01*
X44824Y34842D01*
X44824Y37358D01*
X45787Y39683D01*
X47567Y41463D01*
X47722Y41527D01*
X47749Y41543D01*
X47780Y41553D01*
X47870Y41615D01*
X47964Y41670D01*
X47986Y41694D01*
X48013Y41712D01*
X48083Y41797D01*
X48157Y41876D01*
X48172Y41905D01*
X48192Y41930D01*
X48236Y42030D01*
X48285Y42128D01*
X48291Y42159D01*
X48304Y42189D01*
X48317Y42297D01*
X48337Y42405D01*
X48334Y42437D01*
X48338Y42469D01*
X48321Y42577D01*
X48310Y42685D01*
X48298Y42716D01*
X48293Y42747D01*
X48246Y42846D01*
X48206Y42947D01*
X48186Y42973D01*
X48172Y43002D01*
X48100Y43084D01*
X48032Y43170D01*
X48006Y43189D01*
X47985Y43213D01*
X47907Y43260D01*
X47804Y43335D01*
X47758Y43351D01*
X47722Y43373D01*
X47567Y43437D01*
X45787Y45217D01*
X44824Y47542D01*
X44824Y50058D01*
X45787Y52383D01*
X47258Y53854D01*
X47270Y53871D01*
X47287Y53884D01*
X47355Y53983D01*
X47427Y54079D01*
X47435Y54099D01*
X47446Y54116D01*
X47484Y54231D01*
X47527Y54343D01*
X47528Y54364D01*
X47535Y54384D01*
X47539Y54505D01*
X47549Y54624D01*
X47544Y54645D01*
X47545Y54666D01*
X47515Y54783D01*
X47491Y54901D01*
X47481Y54919D01*
X47476Y54939D01*
X47415Y55043D01*
X47358Y55150D01*
X47344Y55164D01*
X47333Y55183D01*
X47266Y55244D01*
X47162Y55352D01*
X47130Y55369D01*
X47106Y55391D01*
X46480Y55810D01*
X45460Y56830D01*
X44658Y58030D01*
X44106Y59363D01*
X44034Y59726D01*
X50375Y59726D01*
X50438Y59735D01*
X50503Y59734D01*
X50577Y59755D01*
X50654Y59766D01*
X50712Y59792D01*
X50774Y59809D01*
X50840Y59850D01*
X50911Y59882D01*
X50960Y59923D01*
X51014Y59957D01*
X51066Y60015D01*
X51125Y60065D01*
X51160Y60119D01*
X51203Y60167D01*
X51237Y60236D01*
X51280Y60301D01*
X51298Y60363D01*
X51326Y60420D01*
X51337Y60490D01*
X51362Y60571D01*
X51363Y60656D01*
X51374Y60725D01*
X51374Y61276D01*
X51925Y61276D01*
X51989Y61285D01*
X52053Y61284D01*
X52128Y61305D01*
X52204Y61316D01*
X52263Y61342D01*
X52325Y61359D01*
X52391Y61400D01*
X52461Y61432D01*
X52510Y61474D01*
X52565Y61508D01*
X52617Y61565D01*
X52675Y61615D01*
X52711Y61669D01*
X52754Y61717D01*
X52787Y61786D01*
X52830Y61851D01*
X52849Y61913D01*
X52877Y61971D01*
X52888Y62040D01*
X52912Y62121D01*
X52913Y62206D01*
X52924Y62275D01*
X52924Y73425D01*
X52915Y73488D01*
X52916Y73553D01*
X52895Y73627D01*
X52884Y73704D01*
X52858Y73762D01*
X52841Y73824D01*
X52800Y73890D01*
X52768Y73961D01*
X52726Y74010D01*
X52693Y74064D01*
X52635Y74116D01*
X52585Y74175D01*
X52531Y74210D01*
X52483Y74253D01*
X52414Y74287D01*
X52349Y74330D01*
X52287Y74348D01*
X52230Y74376D01*
X52160Y74387D01*
X52079Y74412D01*
X51994Y74413D01*
X51925Y74424D01*
X51374Y74424D01*
X51374Y74975D01*
X51365Y75039D01*
X51366Y75103D01*
X51345Y75178D01*
X51334Y75254D01*
X51308Y75313D01*
X51291Y75375D01*
X51250Y75441D01*
X51218Y75511D01*
X51176Y75560D01*
X51142Y75615D01*
X51085Y75667D01*
X51035Y75725D01*
X50981Y75761D01*
X50933Y75804D01*
X50864Y75837D01*
X50799Y75880D01*
X50737Y75899D01*
X50679Y75927D01*
X50610Y75938D01*
X50529Y75962D01*
X50444Y75963D01*
X50375Y75974D01*
X44034Y75974D01*
X44106Y76337D01*
X44658Y77670D01*
X45460Y78870D01*
X46480Y79890D01*
X47106Y80309D01*
X47122Y80323D01*
X47140Y80333D01*
X47227Y80416D01*
X47316Y80497D01*
X47328Y80515D01*
X47343Y80529D01*
X47402Y80634D01*
X47466Y80736D01*
X47471Y80756D01*
X47482Y80775D01*
X47509Y80892D01*
X47542Y81008D01*
X47542Y81029D01*
X47546Y81049D01*
X47540Y81170D01*
X47539Y81290D01*
X47533Y81310D01*
X47532Y81331D01*
X47493Y81444D01*
X47458Y81560D01*
X47446Y81578D01*
X47440Y81597D01*
X47386Y81671D01*
X47304Y81796D01*
X47277Y81820D01*
X47258Y81846D01*
X45787Y83317D01*
X44824Y85642D01*
X44824Y88158D01*
X45787Y90483D01*
X47567Y92263D01*
X49892Y93226D01*
X52408Y93226D01*
X54733Y92263D01*
X56513Y90483D01*
X56577Y90328D01*
X56593Y90301D01*
X56603Y90270D01*
X56665Y90180D01*
X56720Y90086D01*
X56744Y90064D01*
X56762Y90037D01*
X56847Y89967D01*
X56926Y89893D01*
X56955Y89878D01*
X56980Y89858D01*
X57080Y89814D01*
X57178Y89765D01*
X57209Y89759D01*
X57239Y89746D01*
X57347Y89733D01*
X57455Y89713D01*
X57487Y89716D01*
X57519Y89712D01*
X57627Y89729D01*
X57735Y89740D01*
X57766Y89752D01*
X57797Y89757D01*
X57896Y89804D01*
X57997Y89844D01*
X58023Y89864D01*
X58052Y89878D01*
X58134Y89950D01*
X58220Y90018D01*
X58239Y90044D01*
X58263Y90065D01*
X58310Y90143D01*
X58385Y90246D01*
X58401Y90292D01*
X58423Y90328D01*
X58487Y90483D01*
X60267Y92263D01*
X62592Y93226D01*
X65108Y93226D01*
X67433Y92263D01*
X69213Y90483D01*
X70176Y88158D01*
X70176Y85642D01*
X69213Y83317D01*
X67433Y81537D01*
X67278Y81473D01*
X67251Y81457D01*
X67220Y81447D01*
X67130Y81385D01*
X67036Y81330D01*
X67014Y81306D01*
X66987Y81288D01*
X66918Y81204D01*
X66843Y81124D01*
X66828Y81095D01*
X66808Y81070D01*
X66765Y80970D01*
X66715Y80873D01*
X66709Y80841D01*
X66696Y80811D01*
X66683Y80703D01*
X66663Y80595D01*
X66666Y80563D01*
X66662Y80531D01*
X66679Y80423D01*
X66690Y80315D01*
X66702Y80285D01*
X66707Y80253D01*
X66754Y80154D01*
X66794Y80053D01*
X66814Y80027D01*
X66828Y79998D01*
X66901Y79916D01*
X66968Y79830D01*
X66994Y79811D01*
X67015Y79787D01*
X67092Y79740D01*
X67196Y79665D01*
X67242Y79649D01*
X67278Y79627D01*
X67433Y79563D01*
X69213Y77783D01*
X70176Y75458D01*
X70176Y72942D01*
X69213Y70617D01*
X67433Y68837D01*
X67278Y68773D01*
X67251Y68757D01*
X67220Y68747D01*
X67130Y68685D01*
X67036Y68630D01*
X67014Y68606D01*
X66987Y68588D01*
X66917Y68503D01*
X66843Y68424D01*
X66828Y68395D01*
X66808Y68370D01*
X66764Y68270D01*
X66715Y68172D01*
X66709Y68141D01*
X66696Y68111D01*
X66683Y68003D01*
X66663Y67895D01*
X66666Y67863D01*
X66662Y67831D01*
X66679Y67723D01*
X66690Y67615D01*
X66702Y67584D01*
X66707Y67553D01*
X66754Y67454D01*
X66794Y67353D01*
X66814Y67327D01*
X66828Y67298D01*
X66900Y67216D01*
X66968Y67130D01*
X66994Y67111D01*
X67015Y67087D01*
X67093Y67040D01*
X67196Y66965D01*
X67242Y66949D01*
X67278Y66927D01*
X67433Y66863D01*
X69213Y65083D01*
X70176Y62758D01*
X70176Y60242D01*
X69213Y57917D01*
X67433Y56137D01*
X67278Y56073D01*
X67251Y56057D01*
X67220Y56047D01*
X67130Y55985D01*
X67036Y55930D01*
X67014Y55906D01*
X66987Y55888D01*
X66918Y55804D01*
X66843Y55724D01*
X66828Y55695D01*
X66808Y55670D01*
X66764Y55570D01*
X66715Y55473D01*
X66709Y55441D01*
X66696Y55411D01*
X66683Y55303D01*
X66663Y55195D01*
X66666Y55163D01*
X66662Y55131D01*
X66679Y55023D01*
X66690Y54915D01*
X66702Y54885D01*
X66707Y54853D01*
X66754Y54754D01*
X66794Y54653D01*
X66814Y54627D01*
X66828Y54598D01*
X66901Y54516D01*
X66968Y54430D01*
X66994Y54411D01*
X67015Y54387D01*
X67092Y54340D01*
X67196Y54265D01*
X67242Y54249D01*
X67278Y54227D01*
X67433Y54163D01*
X69213Y52383D01*
X70176Y50058D01*
X70176Y47542D01*
X69213Y45217D01*
X67433Y43437D01*
X67278Y43373D01*
X67251Y43357D01*
X67220Y43347D01*
X67130Y43285D01*
X67036Y43230D01*
X67014Y43206D01*
X66987Y43188D01*
X66917Y43103D01*
X66843Y43024D01*
X66828Y42995D01*
X66808Y42970D01*
X66764Y42870D01*
X66715Y42772D01*
X66709Y42741D01*
X66696Y42711D01*
X66683Y42603D01*
X66663Y42495D01*
X66666Y42463D01*
X66662Y42431D01*
X66679Y42323D01*
X66690Y42215D01*
X66702Y42184D01*
X66707Y42153D01*
X66754Y42054D01*
X66794Y41953D01*
X66814Y41927D01*
X66828Y41898D01*
X66900Y41816D01*
X66968Y41730D01*
X66994Y41711D01*
X67015Y41687D01*
X67093Y41640D01*
X67196Y41565D01*
X67242Y41549D01*
X67278Y41527D01*
X67433Y41463D01*
X69213Y39683D01*
X70176Y37358D01*
X70176Y34842D01*
X69213Y32517D01*
X67433Y30737D01*
X65108Y29774D01*
X62592Y29774D01*
X60267Y30737D01*
X58487Y32517D01*
X58423Y32672D01*
X58407Y32699D01*
X58397Y32730D01*
X58335Y32820D01*
X58280Y32914D01*
X58256Y32936D01*
X58238Y32963D01*
X58154Y33032D01*
X58074Y33107D01*
X58045Y33122D01*
X58020Y33142D01*
X57920Y33185D01*
X57823Y33235D01*
X57791Y33241D01*
X57761Y33254D01*
X57653Y33267D01*
X57545Y33287D01*
X57513Y33284D01*
X57481Y33288D01*
X57373Y33271D01*
X57265Y33260D01*
X57235Y33248D01*
X57203Y33243D01*
X57104Y33196D01*
X57003Y33156D01*
X56977Y33136D01*
X56948Y33122D01*
X56866Y33049D01*
X56780Y32982D01*
X56761Y32956D01*
X56737Y32935D01*
X56690Y32858D01*
X56615Y32754D01*
X56599Y32708D01*
X56577Y32672D01*
X56513Y32517D01*
X54733Y30737D01*
X52408Y29774D01*
X49892Y29774D01*
G37*
%LPD*%
%LPC*%
G36*
X146550Y176499D02*
X146550Y176499D01*
X144499Y178550D01*
X144499Y181450D01*
X146343Y183293D01*
X146381Y183345D01*
X146427Y183390D01*
X146465Y183457D01*
X146512Y183519D01*
X146535Y183579D01*
X146566Y183635D01*
X146584Y183710D01*
X146611Y183783D01*
X146616Y183847D01*
X146631Y183909D01*
X146627Y183987D01*
X146633Y184064D01*
X146620Y184127D01*
X146617Y184191D01*
X146591Y184264D01*
X146576Y184340D01*
X146545Y184397D01*
X146524Y184458D01*
X146483Y184514D01*
X146443Y184589D01*
X146384Y184650D01*
X146343Y184707D01*
X144499Y186550D01*
X144499Y189450D01*
X146343Y191293D01*
X146381Y191345D01*
X146427Y191390D01*
X146465Y191457D01*
X146512Y191519D01*
X146535Y191579D01*
X146566Y191635D01*
X146584Y191710D01*
X146611Y191783D01*
X146616Y191847D01*
X146631Y191909D01*
X146627Y191987D01*
X146633Y192064D01*
X146620Y192127D01*
X146617Y192191D01*
X146591Y192264D01*
X146576Y192340D01*
X146545Y192397D01*
X146524Y192458D01*
X146483Y192514D01*
X146443Y192589D01*
X146384Y192650D01*
X146343Y192707D01*
X144707Y194343D01*
X144655Y194381D01*
X144610Y194427D01*
X144543Y194465D01*
X144481Y194512D01*
X144421Y194535D01*
X144365Y194566D01*
X144290Y194584D01*
X144217Y194611D01*
X144153Y194616D01*
X144091Y194631D01*
X144013Y194627D01*
X143936Y194633D01*
X143873Y194620D01*
X143809Y194617D01*
X143736Y194591D01*
X143660Y194576D01*
X143603Y194545D01*
X143542Y194524D01*
X143486Y194483D01*
X143411Y194443D01*
X143350Y194384D01*
X143293Y194343D01*
X141450Y192499D01*
X138550Y192499D01*
X136707Y194343D01*
X136655Y194381D01*
X136610Y194427D01*
X136543Y194465D01*
X136481Y194512D01*
X136421Y194535D01*
X136365Y194566D01*
X136290Y194584D01*
X136217Y194611D01*
X136153Y194616D01*
X136091Y194631D01*
X136013Y194627D01*
X135936Y194633D01*
X135873Y194620D01*
X135809Y194617D01*
X135736Y194591D01*
X135660Y194576D01*
X135603Y194545D01*
X135542Y194524D01*
X135486Y194483D01*
X135411Y194443D01*
X135350Y194384D01*
X135293Y194343D01*
X133450Y192499D01*
X130550Y192499D01*
X128499Y194550D01*
X128499Y197450D01*
X130343Y199293D01*
X130381Y199345D01*
X130427Y199390D01*
X130465Y199457D01*
X130512Y199519D01*
X130535Y199579D01*
X130566Y199635D01*
X130584Y199710D01*
X130611Y199783D01*
X130616Y199847D01*
X130631Y199909D01*
X130627Y199987D01*
X130633Y200064D01*
X130620Y200127D01*
X130617Y200191D01*
X130591Y200264D01*
X130576Y200340D01*
X130545Y200397D01*
X130524Y200458D01*
X130483Y200514D01*
X130443Y200589D01*
X130384Y200650D01*
X130343Y200707D01*
X128499Y202550D01*
X128499Y205450D01*
X130343Y207293D01*
X130381Y207345D01*
X130427Y207390D01*
X130465Y207457D01*
X130512Y207519D01*
X130535Y207579D01*
X130566Y207635D01*
X130584Y207710D01*
X130611Y207783D01*
X130616Y207847D01*
X130631Y207909D01*
X130627Y207987D01*
X130633Y208064D01*
X130620Y208127D01*
X130617Y208191D01*
X130591Y208264D01*
X130576Y208340D01*
X130545Y208397D01*
X130524Y208458D01*
X130483Y208514D01*
X130443Y208589D01*
X130384Y208650D01*
X130343Y208707D01*
X128499Y210550D01*
X128499Y213450D01*
X130343Y215293D01*
X130381Y215345D01*
X130427Y215390D01*
X130465Y215457D01*
X130512Y215519D01*
X130535Y215579D01*
X130566Y215635D01*
X130584Y215710D01*
X130611Y215783D01*
X130616Y215847D01*
X130631Y215910D01*
X130627Y215987D01*
X130633Y216064D01*
X130620Y216127D01*
X130617Y216191D01*
X130591Y216264D01*
X130576Y216340D01*
X130545Y216397D01*
X130524Y216458D01*
X130483Y216514D01*
X130443Y216589D01*
X130384Y216650D01*
X130343Y216707D01*
X128499Y218550D01*
X128499Y221450D01*
X130550Y223501D01*
X133450Y223501D01*
X135293Y221657D01*
X135345Y221619D01*
X135390Y221573D01*
X135457Y221535D01*
X135519Y221488D01*
X135579Y221465D01*
X135635Y221434D01*
X135710Y221416D01*
X135783Y221389D01*
X135847Y221384D01*
X135909Y221369D01*
X135987Y221373D01*
X136064Y221367D01*
X136127Y221380D01*
X136191Y221383D01*
X136264Y221409D01*
X136340Y221424D01*
X136397Y221455D01*
X136458Y221476D01*
X136514Y221517D01*
X136589Y221557D01*
X136650Y221616D01*
X136707Y221657D01*
X138550Y223501D01*
X141450Y223501D01*
X143501Y221450D01*
X143501Y218550D01*
X141657Y216707D01*
X141619Y216655D01*
X141573Y216610D01*
X141535Y216543D01*
X141488Y216481D01*
X141465Y216421D01*
X141434Y216365D01*
X141416Y216290D01*
X141389Y216217D01*
X141384Y216153D01*
X141369Y216090D01*
X141373Y216013D01*
X141367Y215936D01*
X141380Y215873D01*
X141383Y215809D01*
X141409Y215736D01*
X141424Y215660D01*
X141455Y215603D01*
X141476Y215542D01*
X141517Y215486D01*
X141557Y215411D01*
X141616Y215350D01*
X141657Y215293D01*
X143293Y213657D01*
X143345Y213619D01*
X143390Y213573D01*
X143457Y213535D01*
X143519Y213488D01*
X143579Y213465D01*
X143635Y213434D01*
X143711Y213416D01*
X143783Y213389D01*
X143847Y213384D01*
X143910Y213369D01*
X143987Y213373D01*
X144064Y213367D01*
X144127Y213380D01*
X144191Y213383D01*
X144264Y213409D01*
X144340Y213424D01*
X144397Y213455D01*
X144458Y213476D01*
X144514Y213517D01*
X144589Y213557D01*
X144650Y213616D01*
X144707Y213657D01*
X146550Y215501D01*
X149450Y215501D01*
X151293Y213657D01*
X151345Y213619D01*
X151390Y213573D01*
X151457Y213535D01*
X151519Y213488D01*
X151579Y213465D01*
X151635Y213434D01*
X151710Y213416D01*
X151783Y213389D01*
X151847Y213384D01*
X151909Y213369D01*
X151987Y213373D01*
X152064Y213367D01*
X152127Y213380D01*
X152191Y213383D01*
X152264Y213409D01*
X152340Y213424D01*
X152397Y213455D01*
X152458Y213476D01*
X152514Y213517D01*
X152589Y213557D01*
X152650Y213616D01*
X152707Y213657D01*
X154550Y215501D01*
X157450Y215501D01*
X159501Y213450D01*
X159501Y210550D01*
X157657Y208707D01*
X157619Y208655D01*
X157573Y208610D01*
X157535Y208543D01*
X157488Y208481D01*
X157465Y208421D01*
X157434Y208365D01*
X157416Y208290D01*
X157389Y208217D01*
X157384Y208153D01*
X157369Y208090D01*
X157373Y208013D01*
X157367Y207936D01*
X157380Y207873D01*
X157383Y207809D01*
X157409Y207736D01*
X157424Y207660D01*
X157455Y207603D01*
X157476Y207542D01*
X157517Y207486D01*
X157557Y207411D01*
X157616Y207350D01*
X157657Y207293D01*
X159501Y205450D01*
X159501Y202550D01*
X157657Y200707D01*
X157619Y200655D01*
X157573Y200610D01*
X157535Y200543D01*
X157488Y200481D01*
X157465Y200421D01*
X157434Y200365D01*
X157416Y200290D01*
X157389Y200217D01*
X157384Y200153D01*
X157369Y200091D01*
X157373Y200013D01*
X157367Y199936D01*
X157380Y199873D01*
X157383Y199809D01*
X157409Y199736D01*
X157424Y199660D01*
X157455Y199603D01*
X157476Y199542D01*
X157517Y199486D01*
X157557Y199411D01*
X157616Y199350D01*
X157657Y199293D01*
X159293Y197657D01*
X159345Y197619D01*
X159390Y197573D01*
X159457Y197535D01*
X159519Y197488D01*
X159579Y197465D01*
X159635Y197434D01*
X159710Y197416D01*
X159783Y197389D01*
X159847Y197384D01*
X159909Y197369D01*
X159987Y197373D01*
X160064Y197367D01*
X160127Y197380D01*
X160191Y197383D01*
X160264Y197409D01*
X160340Y197424D01*
X160397Y197455D01*
X160458Y197476D01*
X160514Y197517D01*
X160589Y197557D01*
X160650Y197616D01*
X160707Y197657D01*
X162550Y199501D01*
X165450Y199501D01*
X167501Y197450D01*
X167501Y194550D01*
X165450Y192499D01*
X162550Y192499D01*
X160707Y194343D01*
X160655Y194381D01*
X160610Y194427D01*
X160543Y194465D01*
X160481Y194512D01*
X160421Y194535D01*
X160365Y194566D01*
X160290Y194584D01*
X160217Y194611D01*
X160153Y194616D01*
X160091Y194631D01*
X160013Y194627D01*
X159936Y194633D01*
X159873Y194620D01*
X159809Y194617D01*
X159736Y194591D01*
X159660Y194576D01*
X159603Y194545D01*
X159542Y194524D01*
X159486Y194483D01*
X159411Y194443D01*
X159350Y194384D01*
X159293Y194343D01*
X157657Y192707D01*
X157619Y192655D01*
X157573Y192610D01*
X157535Y192543D01*
X157488Y192481D01*
X157465Y192421D01*
X157434Y192365D01*
X157416Y192290D01*
X157389Y192217D01*
X157384Y192153D01*
X157369Y192091D01*
X157373Y192013D01*
X157367Y191936D01*
X157380Y191873D01*
X157383Y191809D01*
X157409Y191736D01*
X157424Y191660D01*
X157455Y191603D01*
X157476Y191542D01*
X157517Y191486D01*
X157557Y191411D01*
X157616Y191350D01*
X157657Y191293D01*
X159501Y189450D01*
X159501Y186550D01*
X157657Y184707D01*
X157619Y184655D01*
X157573Y184610D01*
X157535Y184543D01*
X157488Y184481D01*
X157465Y184421D01*
X157434Y184365D01*
X157416Y184290D01*
X157389Y184217D01*
X157384Y184153D01*
X157369Y184091D01*
X157373Y184013D01*
X157367Y183936D01*
X157380Y183873D01*
X157383Y183809D01*
X157409Y183736D01*
X157424Y183660D01*
X157454Y183603D01*
X157476Y183542D01*
X157517Y183486D01*
X157557Y183411D01*
X157616Y183350D01*
X157657Y183293D01*
X159293Y181657D01*
X159345Y181619D01*
X159390Y181573D01*
X159418Y181557D01*
X159440Y181537D01*
X159479Y181518D01*
X159519Y181488D01*
X159579Y181465D01*
X159635Y181434D01*
X159670Y181425D01*
X159694Y181414D01*
X159731Y181408D01*
X159783Y181389D01*
X159847Y181384D01*
X159909Y181369D01*
X159965Y181372D01*
X159998Y181366D01*
X160002Y181366D01*
X160025Y181370D01*
X160064Y181367D01*
X160127Y181380D01*
X160191Y181383D01*
X160242Y181401D01*
X160281Y181406D01*
X160304Y181417D01*
X160340Y181424D01*
X160397Y181455D01*
X160458Y181476D01*
X160496Y181503D01*
X160538Y181523D01*
X160560Y181541D01*
X160589Y181557D01*
X160650Y181616D01*
X160707Y181657D01*
X162550Y183501D01*
X165450Y183501D01*
X167293Y181657D01*
X167345Y181619D01*
X167390Y181573D01*
X167418Y181557D01*
X167440Y181537D01*
X167479Y181518D01*
X167519Y181488D01*
X167579Y181465D01*
X167635Y181434D01*
X167670Y181425D01*
X167694Y181414D01*
X167731Y181408D01*
X167783Y181389D01*
X167847Y181384D01*
X167909Y181369D01*
X167965Y181372D01*
X167998Y181366D01*
X168002Y181366D01*
X168025Y181370D01*
X168064Y181367D01*
X168127Y181380D01*
X168191Y181383D01*
X168242Y181401D01*
X168281Y181406D01*
X168305Y181417D01*
X168340Y181424D01*
X168397Y181454D01*
X168458Y181476D01*
X168496Y181503D01*
X168538Y181523D01*
X168560Y181541D01*
X168589Y181557D01*
X168650Y181616D01*
X168707Y181657D01*
X170343Y183293D01*
X170381Y183345D01*
X170427Y183390D01*
X170465Y183457D01*
X170512Y183519D01*
X170535Y183579D01*
X170566Y183635D01*
X170584Y183710D01*
X170611Y183783D01*
X170616Y183847D01*
X170631Y183909D01*
X170627Y183987D01*
X170633Y184064D01*
X170620Y184127D01*
X170617Y184191D01*
X170591Y184264D01*
X170576Y184340D01*
X170545Y184397D01*
X170524Y184458D01*
X170483Y184514D01*
X170443Y184589D01*
X170384Y184650D01*
X170343Y184707D01*
X168499Y186550D01*
X168499Y189450D01*
X170550Y191501D01*
X173450Y191501D01*
X175501Y189450D01*
X175501Y186550D01*
X173657Y184707D01*
X173619Y184655D01*
X173573Y184610D01*
X173535Y184543D01*
X173488Y184481D01*
X173465Y184421D01*
X173434Y184365D01*
X173416Y184290D01*
X173389Y184217D01*
X173384Y184153D01*
X173369Y184090D01*
X173373Y184013D01*
X173367Y183936D01*
X173380Y183873D01*
X173383Y183809D01*
X173409Y183736D01*
X173424Y183660D01*
X173455Y183603D01*
X173476Y183542D01*
X173517Y183486D01*
X173557Y183411D01*
X173616Y183350D01*
X173657Y183293D01*
X175501Y181450D01*
X175501Y178550D01*
X173450Y176499D01*
X170550Y176499D01*
X168707Y178343D01*
X168655Y178381D01*
X168610Y178427D01*
X168543Y178465D01*
X168481Y178512D01*
X168421Y178535D01*
X168365Y178566D01*
X168290Y178584D01*
X168217Y178611D01*
X168153Y178616D01*
X168090Y178631D01*
X168013Y178627D01*
X167936Y178633D01*
X167873Y178620D01*
X167809Y178617D01*
X167736Y178591D01*
X167660Y178576D01*
X167603Y178545D01*
X167542Y178524D01*
X167486Y178483D01*
X167411Y178443D01*
X167350Y178384D01*
X167293Y178343D01*
X165450Y176499D01*
X162550Y176499D01*
X160707Y178343D01*
X160655Y178381D01*
X160610Y178427D01*
X160543Y178465D01*
X160481Y178512D01*
X160421Y178535D01*
X160365Y178566D01*
X160290Y178584D01*
X160217Y178611D01*
X160153Y178616D01*
X160090Y178631D01*
X160013Y178627D01*
X159936Y178633D01*
X159873Y178620D01*
X159809Y178617D01*
X159736Y178591D01*
X159660Y178576D01*
X159603Y178545D01*
X159542Y178524D01*
X159486Y178483D01*
X159411Y178443D01*
X159350Y178384D01*
X159293Y178343D01*
X157450Y176499D01*
X154550Y176499D01*
X152707Y178343D01*
X152655Y178381D01*
X152610Y178427D01*
X152543Y178465D01*
X152481Y178512D01*
X152421Y178535D01*
X152365Y178566D01*
X152290Y178584D01*
X152217Y178611D01*
X152153Y178616D01*
X152091Y178631D01*
X152013Y178627D01*
X151936Y178633D01*
X151873Y178620D01*
X151809Y178617D01*
X151736Y178591D01*
X151660Y178576D01*
X151603Y178545D01*
X151542Y178524D01*
X151486Y178483D01*
X151411Y178443D01*
X151350Y178384D01*
X151293Y178343D01*
X149450Y176499D01*
X146550Y176499D01*
G37*
%LPD*%
%LPC*%
G36*
X98550Y168499D02*
X98550Y168499D01*
X96499Y170550D01*
X96499Y173450D01*
X98343Y175293D01*
X98381Y175345D01*
X98427Y175390D01*
X98465Y175457D01*
X98512Y175519D01*
X98535Y175579D01*
X98566Y175635D01*
X98584Y175710D01*
X98611Y175783D01*
X98616Y175847D01*
X98631Y175909D01*
X98627Y175987D01*
X98633Y176064D01*
X98620Y176127D01*
X98617Y176191D01*
X98591Y176264D01*
X98576Y176340D01*
X98545Y176397D01*
X98524Y176458D01*
X98483Y176514D01*
X98443Y176589D01*
X98384Y176650D01*
X98343Y176707D01*
X96499Y178550D01*
X96499Y181450D01*
X98343Y183293D01*
X98381Y183345D01*
X98427Y183390D01*
X98465Y183457D01*
X98512Y183519D01*
X98535Y183579D01*
X98566Y183635D01*
X98584Y183710D01*
X98611Y183783D01*
X98616Y183847D01*
X98631Y183909D01*
X98627Y183987D01*
X98633Y184064D01*
X98620Y184127D01*
X98617Y184191D01*
X98591Y184264D01*
X98576Y184340D01*
X98545Y184397D01*
X98524Y184458D01*
X98483Y184514D01*
X98443Y184589D01*
X98384Y184650D01*
X98343Y184707D01*
X96707Y186343D01*
X96655Y186381D01*
X96610Y186427D01*
X96543Y186465D01*
X96481Y186512D01*
X96421Y186535D01*
X96365Y186566D01*
X96290Y186584D01*
X96217Y186611D01*
X96153Y186616D01*
X96091Y186631D01*
X96013Y186627D01*
X95936Y186633D01*
X95873Y186620D01*
X95809Y186617D01*
X95736Y186591D01*
X95660Y186576D01*
X95603Y186545D01*
X95542Y186524D01*
X95486Y186483D01*
X95411Y186443D01*
X95350Y186384D01*
X95293Y186343D01*
X93450Y184499D01*
X90550Y184499D01*
X88707Y186343D01*
X88655Y186381D01*
X88610Y186427D01*
X88543Y186465D01*
X88481Y186512D01*
X88421Y186535D01*
X88365Y186566D01*
X88290Y186584D01*
X88217Y186611D01*
X88153Y186616D01*
X88090Y186631D01*
X88013Y186627D01*
X87936Y186633D01*
X87873Y186620D01*
X87809Y186617D01*
X87736Y186591D01*
X87660Y186576D01*
X87603Y186545D01*
X87542Y186524D01*
X87486Y186483D01*
X87411Y186443D01*
X87350Y186384D01*
X87293Y186343D01*
X85450Y184499D01*
X82550Y184499D01*
X80707Y186343D01*
X80655Y186381D01*
X80610Y186427D01*
X80543Y186465D01*
X80481Y186512D01*
X80421Y186535D01*
X80365Y186566D01*
X80290Y186584D01*
X80217Y186611D01*
X80153Y186616D01*
X80090Y186631D01*
X80013Y186627D01*
X79936Y186633D01*
X79873Y186620D01*
X79809Y186617D01*
X79736Y186591D01*
X79660Y186576D01*
X79603Y186545D01*
X79542Y186524D01*
X79486Y186483D01*
X79411Y186443D01*
X79350Y186384D01*
X79293Y186343D01*
X77450Y184499D01*
X74550Y184499D01*
X72499Y186550D01*
X72499Y189450D01*
X74343Y191293D01*
X74381Y191345D01*
X74427Y191390D01*
X74465Y191457D01*
X74512Y191519D01*
X74535Y191579D01*
X74566Y191635D01*
X74584Y191710D01*
X74611Y191783D01*
X74616Y191847D01*
X74631Y191910D01*
X74627Y191987D01*
X74633Y192064D01*
X74620Y192127D01*
X74617Y192191D01*
X74591Y192264D01*
X74576Y192340D01*
X74545Y192397D01*
X74524Y192458D01*
X74483Y192514D01*
X74443Y192589D01*
X74384Y192650D01*
X74343Y192707D01*
X72707Y194343D01*
X72655Y194381D01*
X72610Y194427D01*
X72543Y194465D01*
X72481Y194512D01*
X72421Y194535D01*
X72365Y194566D01*
X72289Y194584D01*
X72217Y194611D01*
X72153Y194616D01*
X72090Y194631D01*
X72013Y194627D01*
X71936Y194633D01*
X71873Y194620D01*
X71809Y194617D01*
X71736Y194591D01*
X71660Y194576D01*
X71603Y194545D01*
X71542Y194524D01*
X71486Y194483D01*
X71411Y194443D01*
X71350Y194384D01*
X71293Y194343D01*
X69450Y192499D01*
X66550Y192499D01*
X64499Y194550D01*
X64499Y197502D01*
X64512Y197519D01*
X64535Y197579D01*
X64566Y197635D01*
X64584Y197710D01*
X64611Y197783D01*
X64616Y197847D01*
X64631Y197910D01*
X64627Y197987D01*
X64633Y198064D01*
X64620Y198127D01*
X64617Y198191D01*
X64591Y198264D01*
X64576Y198340D01*
X64545Y198397D01*
X64524Y198458D01*
X64483Y198514D01*
X64443Y198589D01*
X64384Y198650D01*
X64343Y198707D01*
X62499Y200550D01*
X62499Y203450D01*
X63343Y204293D01*
X63381Y204345D01*
X63427Y204390D01*
X63465Y204457D01*
X63512Y204519D01*
X63535Y204579D01*
X63566Y204635D01*
X63584Y204710D01*
X63611Y204783D01*
X63616Y204847D01*
X63631Y204909D01*
X63627Y204987D01*
X63633Y205064D01*
X63620Y205127D01*
X63617Y205191D01*
X63591Y205264D01*
X63576Y205340D01*
X63545Y205397D01*
X63524Y205458D01*
X63483Y205514D01*
X63443Y205589D01*
X63384Y205650D01*
X63343Y205707D01*
X62499Y206550D01*
X62499Y209450D01*
X63343Y210293D01*
X63381Y210345D01*
X63427Y210390D01*
X63465Y210457D01*
X63512Y210519D01*
X63535Y210579D01*
X63566Y210635D01*
X63584Y210710D01*
X63611Y210783D01*
X63616Y210847D01*
X63631Y210909D01*
X63627Y210987D01*
X63633Y211064D01*
X63620Y211127D01*
X63617Y211191D01*
X63591Y211264D01*
X63576Y211340D01*
X63545Y211397D01*
X63524Y211458D01*
X63483Y211514D01*
X63443Y211589D01*
X63384Y211650D01*
X63343Y211707D01*
X62499Y212550D01*
X62499Y215450D01*
X63343Y216293D01*
X63381Y216345D01*
X63427Y216390D01*
X63465Y216457D01*
X63512Y216519D01*
X63535Y216579D01*
X63566Y216635D01*
X63584Y216710D01*
X63611Y216783D01*
X63616Y216847D01*
X63631Y216909D01*
X63627Y216987D01*
X63633Y217064D01*
X63620Y217127D01*
X63617Y217191D01*
X63591Y217264D01*
X63576Y217340D01*
X63545Y217397D01*
X63524Y217458D01*
X63483Y217514D01*
X63443Y217589D01*
X63384Y217650D01*
X63343Y217707D01*
X62499Y218550D01*
X62499Y221450D01*
X63343Y222293D01*
X63381Y222345D01*
X63427Y222390D01*
X63465Y222457D01*
X63512Y222519D01*
X63535Y222579D01*
X63566Y222635D01*
X63584Y222710D01*
X63611Y222783D01*
X63616Y222847D01*
X63631Y222909D01*
X63627Y222987D01*
X63633Y223064D01*
X63620Y223127D01*
X63617Y223191D01*
X63591Y223264D01*
X63576Y223340D01*
X63545Y223397D01*
X63524Y223458D01*
X63483Y223514D01*
X63443Y223589D01*
X63384Y223650D01*
X63343Y223707D01*
X62499Y224550D01*
X62499Y227450D01*
X64550Y229501D01*
X67450Y229501D01*
X69501Y227450D01*
X69501Y224550D01*
X68657Y223707D01*
X68619Y223655D01*
X68573Y223610D01*
X68535Y223543D01*
X68488Y223481D01*
X68465Y223421D01*
X68434Y223365D01*
X68416Y223290D01*
X68389Y223217D01*
X68384Y223153D01*
X68369Y223090D01*
X68373Y223013D01*
X68367Y222936D01*
X68380Y222873D01*
X68383Y222809D01*
X68409Y222736D01*
X68424Y222660D01*
X68455Y222603D01*
X68476Y222542D01*
X68517Y222486D01*
X68557Y222411D01*
X68616Y222350D01*
X68657Y222293D01*
X69501Y221450D01*
X69501Y218550D01*
X68657Y217707D01*
X68619Y217655D01*
X68573Y217610D01*
X68535Y217543D01*
X68488Y217481D01*
X68465Y217421D01*
X68434Y217365D01*
X68416Y217290D01*
X68389Y217217D01*
X68384Y217153D01*
X68369Y217090D01*
X68373Y217013D01*
X68367Y216936D01*
X68380Y216873D01*
X68383Y216809D01*
X68409Y216736D01*
X68424Y216660D01*
X68455Y216603D01*
X68476Y216542D01*
X68517Y216486D01*
X68557Y216411D01*
X68616Y216350D01*
X68657Y216293D01*
X69501Y215450D01*
X69501Y212550D01*
X68657Y211707D01*
X68619Y211655D01*
X68573Y211610D01*
X68535Y211543D01*
X68488Y211481D01*
X68465Y211421D01*
X68434Y211365D01*
X68416Y211290D01*
X68389Y211217D01*
X68384Y211153D01*
X68369Y211090D01*
X68373Y211013D01*
X68367Y210936D01*
X68380Y210873D01*
X68383Y210809D01*
X68409Y210736D01*
X68424Y210660D01*
X68455Y210603D01*
X68476Y210542D01*
X68517Y210486D01*
X68557Y210411D01*
X68616Y210350D01*
X68657Y210293D01*
X69501Y209450D01*
X69501Y206550D01*
X68657Y205707D01*
X68619Y205655D01*
X68573Y205610D01*
X68535Y205543D01*
X68488Y205481D01*
X68465Y205421D01*
X68434Y205365D01*
X68416Y205290D01*
X68389Y205217D01*
X68384Y205153D01*
X68369Y205090D01*
X68373Y205013D01*
X68367Y204936D01*
X68380Y204873D01*
X68383Y204809D01*
X68409Y204736D01*
X68424Y204660D01*
X68455Y204603D01*
X68476Y204542D01*
X68517Y204486D01*
X68557Y204411D01*
X68616Y204350D01*
X68657Y204293D01*
X69501Y203450D01*
X69501Y200498D01*
X69488Y200481D01*
X69465Y200421D01*
X69434Y200365D01*
X69416Y200290D01*
X69389Y200217D01*
X69384Y200153D01*
X69369Y200091D01*
X69373Y200013D01*
X69367Y199936D01*
X69380Y199873D01*
X69383Y199809D01*
X69409Y199736D01*
X69424Y199660D01*
X69454Y199603D01*
X69476Y199542D01*
X69517Y199486D01*
X69557Y199411D01*
X69616Y199350D01*
X69657Y199293D01*
X71293Y197657D01*
X71345Y197619D01*
X71390Y197573D01*
X71457Y197535D01*
X71519Y197488D01*
X71579Y197465D01*
X71635Y197434D01*
X71710Y197416D01*
X71783Y197389D01*
X71847Y197384D01*
X71909Y197369D01*
X71987Y197373D01*
X72064Y197367D01*
X72127Y197380D01*
X72191Y197383D01*
X72264Y197409D01*
X72340Y197424D01*
X72397Y197455D01*
X72458Y197476D01*
X72514Y197517D01*
X72589Y197557D01*
X72650Y197616D01*
X72707Y197657D01*
X74550Y199501D01*
X77450Y199501D01*
X79293Y197657D01*
X79345Y197619D01*
X79390Y197573D01*
X79457Y197535D01*
X79519Y197488D01*
X79579Y197465D01*
X79635Y197434D01*
X79710Y197416D01*
X79783Y197389D01*
X79847Y197384D01*
X79909Y197369D01*
X79987Y197373D01*
X80064Y197367D01*
X80127Y197380D01*
X80191Y197383D01*
X80264Y197409D01*
X80340Y197424D01*
X80397Y197455D01*
X80458Y197476D01*
X80514Y197517D01*
X80589Y197557D01*
X80650Y197616D01*
X80707Y197657D01*
X82550Y199501D01*
X85450Y199501D01*
X87293Y197657D01*
X87345Y197619D01*
X87390Y197573D01*
X87457Y197535D01*
X87519Y197488D01*
X87579Y197465D01*
X87635Y197434D01*
X87710Y197416D01*
X87783Y197389D01*
X87847Y197384D01*
X87909Y197369D01*
X87987Y197373D01*
X88064Y197367D01*
X88127Y197380D01*
X88191Y197383D01*
X88264Y197409D01*
X88340Y197424D01*
X88397Y197455D01*
X88458Y197476D01*
X88514Y197517D01*
X88589Y197557D01*
X88650Y197616D01*
X88707Y197657D01*
X90550Y199501D01*
X93450Y199501D01*
X95501Y197450D01*
X95501Y194550D01*
X93657Y192707D01*
X93619Y192655D01*
X93573Y192610D01*
X93535Y192543D01*
X93488Y192481D01*
X93465Y192421D01*
X93434Y192365D01*
X93416Y192290D01*
X93389Y192217D01*
X93384Y192153D01*
X93369Y192090D01*
X93373Y192013D01*
X93367Y191936D01*
X93380Y191873D01*
X93383Y191809D01*
X93409Y191736D01*
X93424Y191660D01*
X93455Y191603D01*
X93476Y191542D01*
X93517Y191486D01*
X93557Y191411D01*
X93616Y191350D01*
X93657Y191293D01*
X95293Y189657D01*
X95345Y189619D01*
X95390Y189573D01*
X95457Y189535D01*
X95519Y189488D01*
X95579Y189465D01*
X95635Y189434D01*
X95711Y189416D01*
X95783Y189389D01*
X95847Y189384D01*
X95910Y189369D01*
X95987Y189373D01*
X96064Y189367D01*
X96127Y189380D01*
X96191Y189383D01*
X96264Y189409D01*
X96340Y189424D01*
X96397Y189455D01*
X96458Y189476D01*
X96514Y189517D01*
X96589Y189557D01*
X96650Y189616D01*
X96707Y189657D01*
X98550Y191501D01*
X101450Y191501D01*
X103501Y189450D01*
X103501Y186550D01*
X101657Y184707D01*
X101619Y184655D01*
X101573Y184610D01*
X101535Y184543D01*
X101488Y184481D01*
X101465Y184421D01*
X101434Y184365D01*
X101416Y184290D01*
X101389Y184217D01*
X101384Y184153D01*
X101369Y184091D01*
X101373Y184013D01*
X101367Y183936D01*
X101380Y183873D01*
X101383Y183809D01*
X101409Y183736D01*
X101424Y183660D01*
X101455Y183603D01*
X101476Y183542D01*
X101517Y183486D01*
X101557Y183411D01*
X101616Y183350D01*
X101657Y183293D01*
X103293Y181657D01*
X103345Y181619D01*
X103390Y181573D01*
X103418Y181557D01*
X103440Y181537D01*
X103479Y181518D01*
X103519Y181488D01*
X103579Y181465D01*
X103635Y181434D01*
X103670Y181425D01*
X103694Y181414D01*
X103731Y181408D01*
X103783Y181389D01*
X103847Y181384D01*
X103910Y181369D01*
X103965Y181372D01*
X103998Y181366D01*
X104002Y181366D01*
X104025Y181370D01*
X104064Y181367D01*
X104127Y181380D01*
X104191Y181383D01*
X104242Y181401D01*
X104281Y181406D01*
X104305Y181417D01*
X104340Y181424D01*
X104397Y181455D01*
X104458Y181476D01*
X104496Y181503D01*
X104538Y181523D01*
X104560Y181541D01*
X104589Y181557D01*
X104650Y181616D01*
X104707Y181657D01*
X106550Y183501D01*
X109450Y183501D01*
X111293Y181657D01*
X111345Y181619D01*
X111390Y181573D01*
X111418Y181557D01*
X111440Y181537D01*
X111479Y181518D01*
X111519Y181488D01*
X111579Y181465D01*
X111635Y181434D01*
X111670Y181425D01*
X111694Y181414D01*
X111731Y181408D01*
X111783Y181389D01*
X111847Y181384D01*
X111910Y181369D01*
X111965Y181372D01*
X111998Y181366D01*
X112002Y181366D01*
X112025Y181370D01*
X112064Y181367D01*
X112127Y181380D01*
X112191Y181383D01*
X112242Y181401D01*
X112281Y181406D01*
X112305Y181417D01*
X112340Y181424D01*
X112397Y181455D01*
X112458Y181476D01*
X112496Y181503D01*
X112538Y181523D01*
X112560Y181541D01*
X112589Y181557D01*
X112650Y181616D01*
X112707Y181657D01*
X114550Y183501D01*
X117450Y183501D01*
X119501Y181450D01*
X119501Y178550D01*
X117450Y176499D01*
X114550Y176499D01*
X112707Y178343D01*
X112655Y178381D01*
X112610Y178427D01*
X112543Y178465D01*
X112481Y178512D01*
X112421Y178535D01*
X112365Y178566D01*
X112290Y178584D01*
X112217Y178611D01*
X112153Y178616D01*
X112091Y178631D01*
X112013Y178627D01*
X111936Y178633D01*
X111873Y178620D01*
X111809Y178617D01*
X111736Y178591D01*
X111660Y178576D01*
X111603Y178545D01*
X111542Y178524D01*
X111486Y178483D01*
X111411Y178443D01*
X111350Y178384D01*
X111293Y178343D01*
X109450Y176499D01*
X106550Y176499D01*
X104707Y178343D01*
X104655Y178381D01*
X104610Y178427D01*
X104543Y178465D01*
X104481Y178512D01*
X104421Y178535D01*
X104365Y178566D01*
X104290Y178584D01*
X104217Y178611D01*
X104153Y178616D01*
X104091Y178631D01*
X104013Y178627D01*
X103936Y178633D01*
X103873Y178620D01*
X103809Y178617D01*
X103736Y178591D01*
X103660Y178576D01*
X103603Y178545D01*
X103542Y178524D01*
X103486Y178483D01*
X103411Y178443D01*
X103350Y178384D01*
X103293Y178343D01*
X101657Y176707D01*
X101619Y176655D01*
X101573Y176610D01*
X101535Y176543D01*
X101488Y176481D01*
X101465Y176421D01*
X101434Y176365D01*
X101416Y176290D01*
X101389Y176217D01*
X101384Y176153D01*
X101369Y176090D01*
X101373Y176013D01*
X101367Y175936D01*
X101380Y175873D01*
X101383Y175809D01*
X101409Y175736D01*
X101424Y175660D01*
X101455Y175603D01*
X101476Y175542D01*
X101517Y175486D01*
X101557Y175411D01*
X101616Y175350D01*
X101657Y175293D01*
X103501Y173450D01*
X103501Y170550D01*
X101450Y168499D01*
X98550Y168499D01*
G37*
%LPD*%
%LPC*%
G36*
X130550Y112499D02*
X130550Y112499D01*
X128499Y114550D01*
X128499Y117450D01*
X130343Y119293D01*
X130381Y119345D01*
X130427Y119390D01*
X130465Y119457D01*
X130512Y119519D01*
X130535Y119579D01*
X130566Y119635D01*
X130584Y119710D01*
X130611Y119783D01*
X130616Y119847D01*
X130631Y119909D01*
X130627Y119987D01*
X130633Y120064D01*
X130620Y120127D01*
X130617Y120191D01*
X130591Y120264D01*
X130576Y120340D01*
X130545Y120397D01*
X130524Y120458D01*
X130483Y120514D01*
X130443Y120589D01*
X130384Y120650D01*
X130343Y120707D01*
X128499Y122550D01*
X128499Y125450D01*
X130550Y127501D01*
X133450Y127501D01*
X135501Y125450D01*
X135501Y122550D01*
X133657Y120707D01*
X133619Y120655D01*
X133573Y120610D01*
X133535Y120543D01*
X133488Y120481D01*
X133465Y120421D01*
X133434Y120365D01*
X133416Y120290D01*
X133389Y120217D01*
X133384Y120153D01*
X133369Y120090D01*
X133373Y120013D01*
X133367Y119936D01*
X133380Y119873D01*
X133383Y119809D01*
X133409Y119736D01*
X133424Y119660D01*
X133455Y119603D01*
X133476Y119542D01*
X133517Y119486D01*
X133557Y119411D01*
X133616Y119350D01*
X133657Y119293D01*
X135293Y117657D01*
X135345Y117619D01*
X135390Y117573D01*
X135457Y117535D01*
X135519Y117488D01*
X135579Y117465D01*
X135635Y117434D01*
X135711Y117416D01*
X135783Y117389D01*
X135847Y117384D01*
X135910Y117369D01*
X135987Y117373D01*
X136064Y117367D01*
X136127Y117380D01*
X136191Y117383D01*
X136264Y117409D01*
X136340Y117424D01*
X136397Y117455D01*
X136458Y117476D01*
X136514Y117517D01*
X136589Y117557D01*
X136650Y117616D01*
X136707Y117657D01*
X138550Y119501D01*
X141450Y119501D01*
X143293Y117657D01*
X143345Y117619D01*
X143390Y117573D01*
X143457Y117535D01*
X143519Y117488D01*
X143579Y117465D01*
X143635Y117434D01*
X143710Y117416D01*
X143783Y117389D01*
X143847Y117384D01*
X143909Y117369D01*
X143987Y117373D01*
X144064Y117367D01*
X144127Y117380D01*
X144191Y117383D01*
X144264Y117409D01*
X144340Y117424D01*
X144397Y117455D01*
X144458Y117476D01*
X144514Y117517D01*
X144589Y117557D01*
X144650Y117616D01*
X144707Y117657D01*
X146343Y119293D01*
X146381Y119345D01*
X146427Y119390D01*
X146465Y119457D01*
X146512Y119519D01*
X146535Y119579D01*
X146566Y119635D01*
X146584Y119710D01*
X146611Y119783D01*
X146616Y119847D01*
X146631Y119910D01*
X146627Y119987D01*
X146633Y120064D01*
X146620Y120127D01*
X146617Y120191D01*
X146591Y120264D01*
X146576Y120340D01*
X146545Y120397D01*
X146524Y120458D01*
X146483Y120514D01*
X146443Y120589D01*
X146384Y120650D01*
X146343Y120707D01*
X144499Y122550D01*
X144499Y125450D01*
X146343Y127293D01*
X146381Y127345D01*
X146427Y127390D01*
X146465Y127457D01*
X146512Y127519D01*
X146535Y127579D01*
X146566Y127635D01*
X146584Y127710D01*
X146611Y127783D01*
X146616Y127847D01*
X146631Y127909D01*
X146627Y127987D01*
X146633Y128064D01*
X146620Y128127D01*
X146617Y128191D01*
X146591Y128264D01*
X146576Y128340D01*
X146545Y128397D01*
X146524Y128458D01*
X146483Y128514D01*
X146443Y128589D01*
X146384Y128650D01*
X146343Y128707D01*
X144499Y130550D01*
X144499Y133450D01*
X146343Y135293D01*
X146381Y135345D01*
X146427Y135390D01*
X146465Y135457D01*
X146512Y135519D01*
X146535Y135579D01*
X146566Y135635D01*
X146584Y135710D01*
X146611Y135783D01*
X146616Y135847D01*
X146631Y135909D01*
X146627Y135987D01*
X146633Y136064D01*
X146620Y136127D01*
X146617Y136191D01*
X146591Y136264D01*
X146576Y136340D01*
X146546Y136397D01*
X146524Y136458D01*
X146483Y136514D01*
X146443Y136589D01*
X146384Y136650D01*
X146343Y136707D01*
X144707Y138343D01*
X144655Y138381D01*
X144610Y138427D01*
X144543Y138465D01*
X144481Y138512D01*
X144421Y138535D01*
X144365Y138566D01*
X144290Y138584D01*
X144217Y138611D01*
X144153Y138616D01*
X144091Y138631D01*
X144013Y138627D01*
X143936Y138633D01*
X143873Y138620D01*
X143809Y138617D01*
X143736Y138591D01*
X143660Y138576D01*
X143603Y138545D01*
X143542Y138524D01*
X143486Y138483D01*
X143411Y138443D01*
X143350Y138384D01*
X143293Y138343D01*
X141450Y136499D01*
X138550Y136499D01*
X136499Y138550D01*
X136499Y141450D01*
X138550Y143501D01*
X141450Y143501D01*
X143293Y141657D01*
X143345Y141619D01*
X143390Y141573D01*
X143457Y141535D01*
X143519Y141488D01*
X143579Y141465D01*
X143635Y141434D01*
X143710Y141416D01*
X143783Y141389D01*
X143847Y141384D01*
X143910Y141369D01*
X143987Y141373D01*
X144064Y141367D01*
X144127Y141380D01*
X144191Y141383D01*
X144264Y141409D01*
X144340Y141424D01*
X144397Y141455D01*
X144458Y141476D01*
X144514Y141517D01*
X144589Y141557D01*
X144650Y141616D01*
X144707Y141657D01*
X146550Y143501D01*
X149450Y143501D01*
X151293Y141657D01*
X151345Y141619D01*
X151390Y141573D01*
X151457Y141535D01*
X151519Y141488D01*
X151579Y141465D01*
X151635Y141434D01*
X151710Y141416D01*
X151783Y141389D01*
X151847Y141384D01*
X151909Y141369D01*
X151987Y141373D01*
X152064Y141367D01*
X152127Y141380D01*
X152191Y141383D01*
X152264Y141409D01*
X152340Y141424D01*
X152397Y141455D01*
X152458Y141476D01*
X152514Y141517D01*
X152589Y141557D01*
X152650Y141616D01*
X152707Y141657D01*
X154343Y143293D01*
X154381Y143345D01*
X154427Y143390D01*
X154465Y143457D01*
X154512Y143519D01*
X154535Y143579D01*
X154566Y143635D01*
X154584Y143710D01*
X154611Y143783D01*
X154616Y143847D01*
X154631Y143910D01*
X154627Y143987D01*
X154633Y144064D01*
X154620Y144127D01*
X154617Y144191D01*
X154591Y144264D01*
X154576Y144340D01*
X154545Y144397D01*
X154524Y144458D01*
X154483Y144514D01*
X154443Y144589D01*
X154384Y144650D01*
X154343Y144707D01*
X152499Y146550D01*
X152499Y149450D01*
X154343Y151293D01*
X154381Y151345D01*
X154427Y151390D01*
X154465Y151457D01*
X154512Y151519D01*
X154535Y151579D01*
X154566Y151635D01*
X154584Y151710D01*
X154611Y151783D01*
X154616Y151847D01*
X154631Y151909D01*
X154627Y151987D01*
X154633Y152064D01*
X154620Y152127D01*
X154617Y152191D01*
X154591Y152264D01*
X154576Y152340D01*
X154545Y152397D01*
X154524Y152458D01*
X154483Y152514D01*
X154443Y152589D01*
X154384Y152650D01*
X154343Y152707D01*
X152499Y154550D01*
X152499Y157450D01*
X154343Y159293D01*
X154381Y159345D01*
X154427Y159390D01*
X154465Y159457D01*
X154512Y159519D01*
X154535Y159579D01*
X154566Y159635D01*
X154584Y159710D01*
X154611Y159783D01*
X154616Y159847D01*
X154631Y159909D01*
X154627Y159987D01*
X154633Y160064D01*
X154620Y160127D01*
X154617Y160191D01*
X154591Y160264D01*
X154576Y160340D01*
X154545Y160397D01*
X154524Y160458D01*
X154483Y160514D01*
X154443Y160589D01*
X154384Y160650D01*
X154343Y160707D01*
X152499Y162550D01*
X152499Y165450D01*
X154550Y167501D01*
X157450Y167501D01*
X159501Y165450D01*
X159501Y162550D01*
X157657Y160707D01*
X157619Y160655D01*
X157573Y160610D01*
X157535Y160543D01*
X157488Y160481D01*
X157465Y160421D01*
X157434Y160365D01*
X157416Y160290D01*
X157389Y160217D01*
X157384Y160153D01*
X157369Y160090D01*
X157373Y160013D01*
X157367Y159936D01*
X157380Y159873D01*
X157383Y159809D01*
X157409Y159736D01*
X157424Y159660D01*
X157455Y159603D01*
X157476Y159542D01*
X157517Y159486D01*
X157557Y159411D01*
X157616Y159350D01*
X157657Y159293D01*
X159501Y157450D01*
X159501Y154550D01*
X157657Y152707D01*
X157619Y152655D01*
X157573Y152610D01*
X157535Y152543D01*
X157488Y152481D01*
X157465Y152421D01*
X157434Y152365D01*
X157416Y152290D01*
X157389Y152217D01*
X157384Y152153D01*
X157369Y152090D01*
X157373Y152013D01*
X157367Y151936D01*
X157380Y151873D01*
X157383Y151809D01*
X157409Y151736D01*
X157424Y151660D01*
X157455Y151603D01*
X157476Y151542D01*
X157517Y151486D01*
X157557Y151411D01*
X157616Y151350D01*
X157657Y151293D01*
X159501Y149450D01*
X159501Y146550D01*
X157657Y144707D01*
X157619Y144655D01*
X157573Y144610D01*
X157535Y144543D01*
X157488Y144481D01*
X157465Y144421D01*
X157434Y144365D01*
X157416Y144290D01*
X157389Y144217D01*
X157384Y144153D01*
X157369Y144091D01*
X157373Y144013D01*
X157367Y143936D01*
X157380Y143873D01*
X157383Y143809D01*
X157409Y143736D01*
X157424Y143660D01*
X157455Y143603D01*
X157476Y143542D01*
X157517Y143486D01*
X157557Y143411D01*
X157616Y143350D01*
X157657Y143293D01*
X159501Y141450D01*
X159501Y138550D01*
X157450Y136499D01*
X154550Y136499D01*
X152707Y138343D01*
X152655Y138381D01*
X152610Y138427D01*
X152543Y138465D01*
X152481Y138512D01*
X152421Y138535D01*
X152365Y138566D01*
X152290Y138584D01*
X152217Y138611D01*
X152153Y138616D01*
X152090Y138631D01*
X152013Y138627D01*
X151936Y138633D01*
X151873Y138620D01*
X151809Y138617D01*
X151736Y138591D01*
X151660Y138576D01*
X151603Y138545D01*
X151542Y138524D01*
X151486Y138483D01*
X151411Y138443D01*
X151350Y138384D01*
X151293Y138343D01*
X149657Y136707D01*
X149619Y136655D01*
X149573Y136610D01*
X149535Y136543D01*
X149488Y136481D01*
X149465Y136421D01*
X149434Y136365D01*
X149416Y136289D01*
X149389Y136217D01*
X149384Y136153D01*
X149369Y136090D01*
X149373Y136013D01*
X149367Y135936D01*
X149380Y135873D01*
X149383Y135809D01*
X149409Y135736D01*
X149424Y135660D01*
X149455Y135603D01*
X149476Y135542D01*
X149517Y135486D01*
X149557Y135411D01*
X149616Y135350D01*
X149657Y135293D01*
X151501Y133450D01*
X151501Y130550D01*
X149657Y128707D01*
X149619Y128655D01*
X149573Y128610D01*
X149535Y128543D01*
X149488Y128481D01*
X149465Y128421D01*
X149434Y128365D01*
X149416Y128290D01*
X149389Y128217D01*
X149384Y128153D01*
X149369Y128090D01*
X149373Y128013D01*
X149367Y127936D01*
X149380Y127873D01*
X149383Y127809D01*
X149409Y127736D01*
X149424Y127660D01*
X149455Y127603D01*
X149476Y127542D01*
X149517Y127486D01*
X149557Y127411D01*
X149616Y127350D01*
X149657Y127293D01*
X151501Y125450D01*
X151501Y122550D01*
X149657Y120707D01*
X149619Y120655D01*
X149573Y120610D01*
X149535Y120543D01*
X149488Y120481D01*
X149465Y120421D01*
X149434Y120365D01*
X149416Y120290D01*
X149389Y120217D01*
X149384Y120153D01*
X149369Y120091D01*
X149373Y120013D01*
X149367Y119936D01*
X149380Y119873D01*
X149383Y119809D01*
X149409Y119736D01*
X149424Y119660D01*
X149454Y119603D01*
X149476Y119542D01*
X149517Y119486D01*
X149557Y119411D01*
X149616Y119350D01*
X149657Y119293D01*
X151293Y117657D01*
X151345Y117619D01*
X151390Y117573D01*
X151457Y117535D01*
X151519Y117488D01*
X151579Y117465D01*
X151635Y117434D01*
X151710Y117416D01*
X151783Y117389D01*
X151847Y117384D01*
X151909Y117369D01*
X151987Y117373D01*
X152064Y117367D01*
X152127Y117380D01*
X152191Y117383D01*
X152264Y117409D01*
X152340Y117424D01*
X152397Y117455D01*
X152458Y117476D01*
X152514Y117517D01*
X152589Y117557D01*
X152650Y117616D01*
X152707Y117657D01*
X154550Y119501D01*
X157450Y119501D01*
X159501Y117450D01*
X159501Y114550D01*
X157450Y112499D01*
X154550Y112499D01*
X152707Y114343D01*
X152655Y114381D01*
X152610Y114427D01*
X152543Y114465D01*
X152481Y114512D01*
X152421Y114535D01*
X152365Y114566D01*
X152290Y114584D01*
X152217Y114611D01*
X152153Y114616D01*
X152090Y114631D01*
X152013Y114627D01*
X151936Y114633D01*
X151873Y114620D01*
X151809Y114617D01*
X151736Y114591D01*
X151660Y114576D01*
X151603Y114545D01*
X151542Y114524D01*
X151486Y114483D01*
X151411Y114443D01*
X151350Y114384D01*
X151293Y114343D01*
X149450Y112499D01*
X146550Y112499D01*
X144707Y114343D01*
X144655Y114381D01*
X144610Y114427D01*
X144543Y114465D01*
X144481Y114512D01*
X144421Y114535D01*
X144365Y114566D01*
X144290Y114584D01*
X144217Y114611D01*
X144153Y114616D01*
X144090Y114631D01*
X144013Y114627D01*
X143936Y114633D01*
X143873Y114620D01*
X143809Y114617D01*
X143736Y114591D01*
X143660Y114576D01*
X143603Y114545D01*
X143542Y114524D01*
X143486Y114483D01*
X143411Y114443D01*
X143350Y114384D01*
X143293Y114343D01*
X141450Y112499D01*
X138550Y112499D01*
X136707Y114343D01*
X136655Y114381D01*
X136610Y114427D01*
X136543Y114465D01*
X136481Y114512D01*
X136421Y114535D01*
X136365Y114566D01*
X136290Y114584D01*
X136217Y114611D01*
X136153Y114616D01*
X136091Y114631D01*
X136013Y114627D01*
X135936Y114633D01*
X135873Y114620D01*
X135809Y114617D01*
X135736Y114591D01*
X135660Y114576D01*
X135603Y114545D01*
X135542Y114524D01*
X135486Y114483D01*
X135411Y114443D01*
X135350Y114384D01*
X135293Y114343D01*
X133450Y112499D01*
X130550Y112499D01*
G37*
%LPD*%
%LPC*%
G36*
X66550Y328499D02*
X66550Y328499D01*
X64499Y330550D01*
X64499Y333450D01*
X66343Y335293D01*
X66381Y335345D01*
X66427Y335390D01*
X66465Y335457D01*
X66512Y335519D01*
X66535Y335579D01*
X66566Y335635D01*
X66584Y335710D01*
X66611Y335783D01*
X66616Y335847D01*
X66631Y335910D01*
X66627Y335987D01*
X66633Y336064D01*
X66620Y336127D01*
X66617Y336191D01*
X66591Y336264D01*
X66576Y336340D01*
X66545Y336397D01*
X66524Y336458D01*
X66483Y336514D01*
X66443Y336589D01*
X66384Y336650D01*
X66343Y336707D01*
X64499Y338550D01*
X64499Y341450D01*
X66343Y343293D01*
X66362Y343319D01*
X66387Y343340D01*
X66447Y343432D01*
X66512Y343519D01*
X66523Y343549D01*
X66541Y343576D01*
X66573Y343681D01*
X66611Y343783D01*
X66614Y343815D01*
X66623Y343846D01*
X66625Y343955D01*
X66633Y344064D01*
X66627Y344096D01*
X66627Y344128D01*
X66598Y344233D01*
X66576Y344340D01*
X66561Y344369D01*
X66552Y344400D01*
X66494Y344493D01*
X66443Y344589D01*
X66421Y344612D01*
X66404Y344640D01*
X66323Y344713D01*
X66246Y344791D01*
X66218Y344807D01*
X66194Y344829D01*
X66096Y344876D01*
X66001Y344930D01*
X65970Y344938D01*
X65941Y344952D01*
X65851Y344966D01*
X65727Y344995D01*
X65678Y344993D01*
X65636Y344999D01*
X65300Y344999D01*
X63249Y347050D01*
X63249Y349950D01*
X65300Y352001D01*
X68200Y352001D01*
X70251Y349950D01*
X70251Y347050D01*
X68407Y345207D01*
X68388Y345181D01*
X68363Y345160D01*
X68303Y345068D01*
X68238Y344981D01*
X68227Y344951D01*
X68209Y344924D01*
X68177Y344819D01*
X68139Y344717D01*
X68136Y344685D01*
X68127Y344654D01*
X68125Y344545D01*
X68117Y344436D01*
X68123Y344404D01*
X68123Y344372D01*
X68152Y344267D01*
X68174Y344160D01*
X68189Y344131D01*
X68198Y344100D01*
X68256Y344007D01*
X68307Y343911D01*
X68329Y343888D01*
X68346Y343860D01*
X68427Y343787D01*
X68504Y343709D01*
X68532Y343693D01*
X68556Y343671D01*
X68654Y343624D01*
X68749Y343570D01*
X68780Y343562D01*
X68809Y343548D01*
X68899Y343534D01*
X69023Y343505D01*
X69072Y343507D01*
X69114Y343501D01*
X69450Y343501D01*
X71293Y341657D01*
X71345Y341619D01*
X71390Y341573D01*
X71457Y341535D01*
X71519Y341488D01*
X71579Y341465D01*
X71635Y341434D01*
X71710Y341416D01*
X71783Y341389D01*
X71847Y341384D01*
X71909Y341369D01*
X71987Y341373D01*
X72064Y341367D01*
X72127Y341380D01*
X72191Y341383D01*
X72264Y341409D01*
X72340Y341424D01*
X72397Y341455D01*
X72458Y341476D01*
X72514Y341517D01*
X72589Y341557D01*
X72650Y341616D01*
X72707Y341657D01*
X74343Y343293D01*
X74381Y343345D01*
X74427Y343390D01*
X74465Y343457D01*
X74512Y343519D01*
X74535Y343579D01*
X74566Y343635D01*
X74584Y343710D01*
X74611Y343783D01*
X74616Y343847D01*
X74631Y343909D01*
X74627Y343987D01*
X74633Y344064D01*
X74620Y344127D01*
X74617Y344191D01*
X74591Y344264D01*
X74576Y344340D01*
X74545Y344397D01*
X74524Y344458D01*
X74483Y344514D01*
X74443Y344589D01*
X74384Y344650D01*
X74343Y344707D01*
X72499Y346550D01*
X72499Y349450D01*
X74550Y351501D01*
X77450Y351501D01*
X79293Y349657D01*
X79345Y349619D01*
X79390Y349573D01*
X79457Y349535D01*
X79519Y349488D01*
X79579Y349465D01*
X79635Y349434D01*
X79710Y349416D01*
X79783Y349389D01*
X79847Y349384D01*
X79910Y349369D01*
X79987Y349373D01*
X80064Y349367D01*
X80127Y349380D01*
X80191Y349383D01*
X80264Y349409D01*
X80340Y349424D01*
X80397Y349455D01*
X80458Y349476D01*
X80514Y349517D01*
X80589Y349557D01*
X80650Y349616D01*
X80707Y349657D01*
X82550Y351501D01*
X85450Y351501D01*
X87293Y349657D01*
X87345Y349619D01*
X87390Y349573D01*
X87457Y349535D01*
X87519Y349488D01*
X87579Y349465D01*
X87635Y349434D01*
X87710Y349416D01*
X87783Y349389D01*
X87847Y349384D01*
X87910Y349369D01*
X87987Y349373D01*
X88064Y349367D01*
X88127Y349380D01*
X88191Y349383D01*
X88264Y349409D01*
X88340Y349424D01*
X88397Y349455D01*
X88458Y349476D01*
X88514Y349517D01*
X88589Y349557D01*
X88650Y349616D01*
X88707Y349657D01*
X90550Y351501D01*
X93450Y351501D01*
X95293Y349657D01*
X95345Y349619D01*
X95390Y349573D01*
X95457Y349535D01*
X95519Y349488D01*
X95579Y349465D01*
X95635Y349434D01*
X95710Y349416D01*
X95783Y349389D01*
X95847Y349384D01*
X95909Y349369D01*
X95987Y349373D01*
X96064Y349367D01*
X96127Y349380D01*
X96191Y349383D01*
X96264Y349409D01*
X96340Y349424D01*
X96397Y349455D01*
X96458Y349476D01*
X96514Y349517D01*
X96589Y349557D01*
X96650Y349616D01*
X96707Y349657D01*
X98550Y351501D01*
X101450Y351501D01*
X103501Y349450D01*
X103501Y346550D01*
X101450Y344499D01*
X98550Y344499D01*
X96707Y346343D01*
X96655Y346381D01*
X96610Y346427D01*
X96543Y346465D01*
X96481Y346512D01*
X96421Y346535D01*
X96365Y346566D01*
X96290Y346584D01*
X96217Y346611D01*
X96153Y346616D01*
X96090Y346631D01*
X96013Y346627D01*
X95936Y346633D01*
X95873Y346620D01*
X95809Y346617D01*
X95736Y346591D01*
X95660Y346576D01*
X95603Y346545D01*
X95542Y346524D01*
X95486Y346483D01*
X95411Y346443D01*
X95350Y346384D01*
X95293Y346343D01*
X93657Y344707D01*
X93619Y344655D01*
X93573Y344610D01*
X93535Y344543D01*
X93488Y344481D01*
X93465Y344421D01*
X93434Y344365D01*
X93416Y344289D01*
X93389Y344217D01*
X93384Y344153D01*
X93369Y344090D01*
X93373Y344013D01*
X93367Y343936D01*
X93380Y343873D01*
X93383Y343809D01*
X93409Y343736D01*
X93424Y343660D01*
X93455Y343603D01*
X93476Y343542D01*
X93517Y343486D01*
X93557Y343411D01*
X93616Y343350D01*
X93657Y343293D01*
X95501Y341450D01*
X95501Y338550D01*
X93657Y336707D01*
X93619Y336655D01*
X93573Y336610D01*
X93535Y336543D01*
X93488Y336481D01*
X93465Y336421D01*
X93434Y336365D01*
X93416Y336290D01*
X93389Y336217D01*
X93384Y336153D01*
X93369Y336091D01*
X93373Y336013D01*
X93367Y335936D01*
X93380Y335873D01*
X93383Y335809D01*
X93409Y335736D01*
X93424Y335660D01*
X93455Y335603D01*
X93476Y335542D01*
X93517Y335486D01*
X93557Y335411D01*
X93616Y335350D01*
X93657Y335293D01*
X95501Y333450D01*
X95501Y330550D01*
X93450Y328499D01*
X90550Y328499D01*
X88499Y330550D01*
X88499Y333450D01*
X90343Y335293D01*
X90381Y335345D01*
X90427Y335390D01*
X90465Y335457D01*
X90512Y335519D01*
X90535Y335579D01*
X90566Y335635D01*
X90584Y335710D01*
X90611Y335783D01*
X90616Y335847D01*
X90631Y335910D01*
X90627Y335987D01*
X90633Y336064D01*
X90620Y336127D01*
X90617Y336191D01*
X90591Y336264D01*
X90576Y336340D01*
X90545Y336397D01*
X90524Y336458D01*
X90483Y336514D01*
X90443Y336589D01*
X90384Y336650D01*
X90343Y336707D01*
X88707Y338343D01*
X88655Y338381D01*
X88610Y338427D01*
X88543Y338465D01*
X88481Y338512D01*
X88421Y338535D01*
X88365Y338566D01*
X88289Y338584D01*
X88217Y338611D01*
X88153Y338616D01*
X88090Y338631D01*
X88013Y338627D01*
X87936Y338633D01*
X87873Y338620D01*
X87809Y338617D01*
X87736Y338591D01*
X87660Y338576D01*
X87603Y338545D01*
X87542Y338524D01*
X87486Y338483D01*
X87411Y338443D01*
X87350Y338384D01*
X87293Y338343D01*
X85450Y336499D01*
X82550Y336499D01*
X80707Y338343D01*
X80655Y338381D01*
X80610Y338427D01*
X80543Y338465D01*
X80481Y338512D01*
X80421Y338535D01*
X80365Y338566D01*
X80290Y338584D01*
X80217Y338611D01*
X80153Y338616D01*
X80091Y338631D01*
X80013Y338627D01*
X79936Y338633D01*
X79873Y338620D01*
X79809Y338617D01*
X79736Y338591D01*
X79660Y338576D01*
X79603Y338545D01*
X79542Y338524D01*
X79486Y338483D01*
X79411Y338443D01*
X79350Y338384D01*
X79293Y338343D01*
X77450Y336499D01*
X74550Y336499D01*
X72707Y338343D01*
X72655Y338381D01*
X72610Y338427D01*
X72543Y338465D01*
X72481Y338512D01*
X72421Y338535D01*
X72365Y338566D01*
X72290Y338584D01*
X72217Y338611D01*
X72153Y338616D01*
X72091Y338631D01*
X72013Y338627D01*
X71936Y338633D01*
X71873Y338620D01*
X71809Y338617D01*
X71736Y338591D01*
X71660Y338576D01*
X71603Y338546D01*
X71542Y338524D01*
X71486Y338483D01*
X71411Y338443D01*
X71350Y338384D01*
X71293Y338343D01*
X69657Y336707D01*
X69619Y336655D01*
X69573Y336610D01*
X69535Y336543D01*
X69488Y336481D01*
X69465Y336421D01*
X69434Y336365D01*
X69416Y336290D01*
X69389Y336217D01*
X69384Y336153D01*
X69369Y336091D01*
X69373Y336013D01*
X69367Y335936D01*
X69380Y335873D01*
X69383Y335809D01*
X69409Y335736D01*
X69424Y335660D01*
X69455Y335603D01*
X69476Y335542D01*
X69517Y335486D01*
X69557Y335411D01*
X69616Y335350D01*
X69657Y335293D01*
X71501Y333450D01*
X71501Y330550D01*
X69450Y328499D01*
X66550Y328499D01*
G37*
%LPD*%
%LPC*%
G36*
X106550Y192499D02*
X106550Y192499D01*
X104499Y194550D01*
X104499Y197450D01*
X106343Y199293D01*
X106381Y199345D01*
X106427Y199390D01*
X106465Y199457D01*
X106512Y199519D01*
X106535Y199579D01*
X106566Y199635D01*
X106584Y199710D01*
X106611Y199783D01*
X106616Y199847D01*
X106631Y199909D01*
X106627Y199987D01*
X106633Y200064D01*
X106620Y200127D01*
X106617Y200191D01*
X106591Y200264D01*
X106576Y200340D01*
X106546Y200397D01*
X106524Y200458D01*
X106483Y200514D01*
X106443Y200589D01*
X106384Y200650D01*
X106343Y200707D01*
X104707Y202343D01*
X104655Y202381D01*
X104610Y202427D01*
X104543Y202465D01*
X104481Y202512D01*
X104421Y202535D01*
X104365Y202566D01*
X104290Y202584D01*
X104217Y202611D01*
X104153Y202616D01*
X104091Y202631D01*
X104013Y202627D01*
X103936Y202633D01*
X103873Y202620D01*
X103809Y202617D01*
X103736Y202591D01*
X103660Y202576D01*
X103603Y202545D01*
X103542Y202524D01*
X103486Y202483D01*
X103411Y202443D01*
X103350Y202384D01*
X103293Y202343D01*
X101450Y200499D01*
X98550Y200499D01*
X96499Y202550D01*
X96499Y205450D01*
X98343Y207293D01*
X98381Y207345D01*
X98427Y207390D01*
X98465Y207457D01*
X98512Y207519D01*
X98535Y207579D01*
X98566Y207635D01*
X98584Y207710D01*
X98611Y207783D01*
X98616Y207847D01*
X98631Y207910D01*
X98627Y207987D01*
X98633Y208064D01*
X98620Y208127D01*
X98617Y208191D01*
X98591Y208264D01*
X98576Y208340D01*
X98545Y208397D01*
X98524Y208458D01*
X98483Y208514D01*
X98443Y208589D01*
X98384Y208650D01*
X98343Y208707D01*
X96707Y210343D01*
X96655Y210381D01*
X96610Y210427D01*
X96543Y210465D01*
X96481Y210512D01*
X96421Y210535D01*
X96365Y210566D01*
X96289Y210584D01*
X96217Y210611D01*
X96153Y210616D01*
X96090Y210631D01*
X96013Y210627D01*
X95936Y210633D01*
X95873Y210620D01*
X95809Y210617D01*
X95736Y210591D01*
X95660Y210576D01*
X95603Y210545D01*
X95542Y210524D01*
X95486Y210483D01*
X95411Y210443D01*
X95350Y210384D01*
X95293Y210343D01*
X93450Y208499D01*
X90550Y208499D01*
X88499Y210550D01*
X88499Y213450D01*
X90343Y215293D01*
X90381Y215345D01*
X90427Y215390D01*
X90465Y215457D01*
X90512Y215519D01*
X90535Y215579D01*
X90566Y215635D01*
X90584Y215710D01*
X90611Y215783D01*
X90616Y215847D01*
X90631Y215909D01*
X90627Y215987D01*
X90633Y216064D01*
X90620Y216127D01*
X90617Y216191D01*
X90591Y216264D01*
X90576Y216340D01*
X90545Y216397D01*
X90524Y216458D01*
X90483Y216514D01*
X90443Y216589D01*
X90384Y216650D01*
X90343Y216707D01*
X88499Y218550D01*
X88499Y221450D01*
X90343Y223293D01*
X90381Y223345D01*
X90427Y223390D01*
X90465Y223457D01*
X90512Y223519D01*
X90535Y223579D01*
X90566Y223635D01*
X90584Y223710D01*
X90611Y223783D01*
X90616Y223847D01*
X90631Y223910D01*
X90627Y223987D01*
X90633Y224064D01*
X90620Y224127D01*
X90617Y224191D01*
X90591Y224264D01*
X90576Y224340D01*
X90545Y224397D01*
X90524Y224458D01*
X90483Y224514D01*
X90443Y224589D01*
X90384Y224650D01*
X90343Y224707D01*
X88499Y226550D01*
X88499Y229450D01*
X90550Y231501D01*
X93450Y231501D01*
X95501Y229450D01*
X95501Y226550D01*
X93657Y224707D01*
X93619Y224655D01*
X93573Y224610D01*
X93535Y224543D01*
X93488Y224481D01*
X93465Y224421D01*
X93434Y224365D01*
X93416Y224290D01*
X93389Y224217D01*
X93384Y224153D01*
X93369Y224091D01*
X93373Y224013D01*
X93367Y223936D01*
X93380Y223873D01*
X93383Y223809D01*
X93409Y223736D01*
X93424Y223660D01*
X93455Y223603D01*
X93476Y223542D01*
X93517Y223486D01*
X93557Y223411D01*
X93616Y223350D01*
X93657Y223293D01*
X95501Y221450D01*
X95501Y218550D01*
X93657Y216707D01*
X93619Y216655D01*
X93573Y216610D01*
X93535Y216543D01*
X93488Y216481D01*
X93465Y216421D01*
X93434Y216365D01*
X93416Y216290D01*
X93389Y216217D01*
X93384Y216153D01*
X93369Y216091D01*
X93373Y216013D01*
X93367Y215936D01*
X93380Y215873D01*
X93383Y215809D01*
X93409Y215736D01*
X93424Y215660D01*
X93455Y215603D01*
X93476Y215542D01*
X93517Y215486D01*
X93557Y215411D01*
X93616Y215350D01*
X93657Y215293D01*
X95293Y213657D01*
X95345Y213619D01*
X95390Y213573D01*
X95457Y213535D01*
X95519Y213488D01*
X95579Y213465D01*
X95635Y213434D01*
X95710Y213416D01*
X95783Y213389D01*
X95847Y213384D01*
X95909Y213369D01*
X95987Y213373D01*
X96064Y213367D01*
X96127Y213380D01*
X96191Y213383D01*
X96264Y213409D01*
X96340Y213424D01*
X96397Y213455D01*
X96458Y213476D01*
X96514Y213517D01*
X96589Y213557D01*
X96650Y213616D01*
X96707Y213657D01*
X98550Y215501D01*
X101450Y215501D01*
X103293Y213657D01*
X103345Y213619D01*
X103390Y213573D01*
X103457Y213535D01*
X103519Y213488D01*
X103579Y213465D01*
X103635Y213434D01*
X103710Y213416D01*
X103783Y213389D01*
X103847Y213384D01*
X103909Y213369D01*
X103987Y213373D01*
X104064Y213367D01*
X104127Y213380D01*
X104191Y213383D01*
X104264Y213409D01*
X104340Y213424D01*
X104397Y213455D01*
X104458Y213476D01*
X104514Y213517D01*
X104589Y213557D01*
X104650Y213616D01*
X104707Y213657D01*
X106550Y215501D01*
X109450Y215501D01*
X111293Y213657D01*
X111345Y213619D01*
X111390Y213573D01*
X111457Y213535D01*
X111519Y213488D01*
X111579Y213465D01*
X111635Y213434D01*
X111710Y213416D01*
X111783Y213389D01*
X111847Y213384D01*
X111909Y213369D01*
X111987Y213373D01*
X112064Y213367D01*
X112127Y213380D01*
X112191Y213383D01*
X112264Y213409D01*
X112340Y213424D01*
X112397Y213455D01*
X112458Y213476D01*
X112514Y213517D01*
X112589Y213557D01*
X112650Y213616D01*
X112707Y213657D01*
X114343Y215293D01*
X114381Y215345D01*
X114427Y215390D01*
X114465Y215457D01*
X114512Y215519D01*
X114535Y215579D01*
X114566Y215635D01*
X114584Y215710D01*
X114611Y215783D01*
X114616Y215847D01*
X114631Y215909D01*
X114627Y215987D01*
X114633Y216064D01*
X114620Y216127D01*
X114617Y216191D01*
X114591Y216264D01*
X114576Y216340D01*
X114545Y216397D01*
X114524Y216458D01*
X114483Y216514D01*
X114443Y216589D01*
X114384Y216650D01*
X114343Y216707D01*
X112499Y218550D01*
X112499Y221450D01*
X114550Y223501D01*
X117450Y223501D01*
X119501Y221450D01*
X119501Y218550D01*
X117657Y216707D01*
X117619Y216655D01*
X117573Y216610D01*
X117535Y216543D01*
X117488Y216481D01*
X117465Y216421D01*
X117434Y216365D01*
X117416Y216290D01*
X117389Y216217D01*
X117384Y216153D01*
X117369Y216090D01*
X117373Y216013D01*
X117367Y215936D01*
X117380Y215873D01*
X117383Y215809D01*
X117409Y215736D01*
X117424Y215660D01*
X117455Y215603D01*
X117476Y215542D01*
X117517Y215486D01*
X117557Y215411D01*
X117616Y215350D01*
X117657Y215293D01*
X119501Y213450D01*
X119501Y210550D01*
X117450Y208499D01*
X114550Y208499D01*
X112707Y210343D01*
X112655Y210381D01*
X112610Y210427D01*
X112543Y210465D01*
X112481Y210512D01*
X112421Y210535D01*
X112365Y210566D01*
X112290Y210584D01*
X112217Y210611D01*
X112153Y210616D01*
X112091Y210631D01*
X112013Y210627D01*
X111936Y210633D01*
X111873Y210620D01*
X111809Y210617D01*
X111736Y210591D01*
X111660Y210576D01*
X111603Y210546D01*
X111542Y210524D01*
X111486Y210483D01*
X111411Y210443D01*
X111350Y210384D01*
X111293Y210343D01*
X109657Y208707D01*
X109619Y208655D01*
X109573Y208610D01*
X109535Y208543D01*
X109488Y208481D01*
X109465Y208421D01*
X109434Y208365D01*
X109416Y208290D01*
X109389Y208217D01*
X109384Y208153D01*
X109369Y208091D01*
X109373Y208013D01*
X109367Y207936D01*
X109380Y207873D01*
X109383Y207809D01*
X109409Y207736D01*
X109424Y207660D01*
X109455Y207603D01*
X109476Y207542D01*
X109517Y207486D01*
X109557Y207411D01*
X109616Y207350D01*
X109657Y207293D01*
X111501Y205450D01*
X111501Y202550D01*
X109657Y200707D01*
X109619Y200655D01*
X109573Y200610D01*
X109535Y200543D01*
X109488Y200481D01*
X109465Y200421D01*
X109434Y200365D01*
X109416Y200290D01*
X109389Y200217D01*
X109384Y200153D01*
X109369Y200090D01*
X109373Y200013D01*
X109367Y199936D01*
X109380Y199873D01*
X109383Y199809D01*
X109409Y199736D01*
X109424Y199660D01*
X109455Y199603D01*
X109476Y199542D01*
X109517Y199486D01*
X109557Y199411D01*
X109616Y199350D01*
X109657Y199293D01*
X111293Y197657D01*
X111345Y197619D01*
X111390Y197573D01*
X111457Y197535D01*
X111519Y197488D01*
X111579Y197465D01*
X111635Y197434D01*
X111711Y197416D01*
X111783Y197389D01*
X111847Y197384D01*
X111910Y197369D01*
X111987Y197373D01*
X112064Y197367D01*
X112127Y197380D01*
X112191Y197383D01*
X112264Y197409D01*
X112340Y197424D01*
X112397Y197455D01*
X112458Y197476D01*
X112514Y197517D01*
X112589Y197557D01*
X112650Y197616D01*
X112707Y197657D01*
X114550Y199501D01*
X117450Y199501D01*
X119501Y197450D01*
X119501Y194550D01*
X117450Y192499D01*
X114550Y192499D01*
X112707Y194343D01*
X112655Y194381D01*
X112610Y194427D01*
X112543Y194465D01*
X112481Y194512D01*
X112421Y194535D01*
X112365Y194566D01*
X112290Y194584D01*
X112217Y194611D01*
X112153Y194616D01*
X112091Y194631D01*
X112013Y194627D01*
X111936Y194633D01*
X111873Y194620D01*
X111809Y194617D01*
X111736Y194591D01*
X111660Y194576D01*
X111603Y194545D01*
X111542Y194524D01*
X111486Y194483D01*
X111411Y194443D01*
X111350Y194384D01*
X111293Y194343D01*
X109450Y192499D01*
X106550Y192499D01*
G37*
%LPD*%
%LPC*%
G36*
X54800Y438999D02*
X54800Y438999D01*
X52749Y441050D01*
X52749Y443950D01*
X53718Y444918D01*
X53756Y444970D01*
X53802Y445015D01*
X53840Y445082D01*
X53887Y445144D01*
X53910Y445204D01*
X53941Y445260D01*
X53959Y445335D01*
X53986Y445408D01*
X53991Y445472D01*
X54006Y445535D01*
X54002Y445612D01*
X54008Y445689D01*
X53995Y445752D01*
X53992Y445816D01*
X53966Y445889D01*
X53951Y445965D01*
X53920Y446022D01*
X53899Y446083D01*
X53858Y446139D01*
X53818Y446214D01*
X53759Y446275D01*
X53718Y446332D01*
X52749Y447300D01*
X52749Y450200D01*
X53718Y451168D01*
X53756Y451220D01*
X53802Y451265D01*
X53840Y451332D01*
X53887Y451394D01*
X53910Y451454D01*
X53941Y451510D01*
X53959Y451585D01*
X53986Y451658D01*
X53991Y451722D01*
X54006Y451784D01*
X54002Y451862D01*
X54008Y451939D01*
X53995Y452002D01*
X53992Y452066D01*
X53966Y452139D01*
X53951Y452215D01*
X53920Y452272D01*
X53899Y452333D01*
X53858Y452389D01*
X53818Y452464D01*
X53759Y452525D01*
X53718Y452582D01*
X52749Y453550D01*
X52749Y456450D01*
X53718Y457418D01*
X53756Y457470D01*
X53802Y457515D01*
X53840Y457582D01*
X53887Y457644D01*
X53910Y457704D01*
X53941Y457760D01*
X53959Y457835D01*
X53986Y457908D01*
X53991Y457972D01*
X54006Y458034D01*
X54002Y458112D01*
X54008Y458189D01*
X53995Y458252D01*
X53992Y458316D01*
X53966Y458389D01*
X53951Y458465D01*
X53920Y458522D01*
X53899Y458583D01*
X53858Y458639D01*
X53818Y458714D01*
X53760Y458773D01*
X53745Y458798D01*
X53736Y458807D01*
X53718Y458832D01*
X52749Y459800D01*
X52749Y462700D01*
X54800Y464751D01*
X57700Y464751D01*
X59751Y462700D01*
X59751Y459800D01*
X58782Y458832D01*
X58773Y458819D01*
X58772Y458819D01*
X58770Y458815D01*
X58744Y458780D01*
X58698Y458735D01*
X58660Y458668D01*
X58613Y458606D01*
X58590Y458546D01*
X58559Y458490D01*
X58541Y458415D01*
X58514Y458342D01*
X58509Y458278D01*
X58494Y458215D01*
X58498Y458138D01*
X58492Y458061D01*
X58505Y457998D01*
X58508Y457934D01*
X58534Y457861D01*
X58549Y457785D01*
X58580Y457728D01*
X58601Y457667D01*
X58642Y457611D01*
X58682Y457536D01*
X58741Y457475D01*
X58782Y457418D01*
X59751Y456450D01*
X59751Y453550D01*
X58782Y452582D01*
X58744Y452530D01*
X58698Y452485D01*
X58660Y452418D01*
X58613Y452356D01*
X58590Y452296D01*
X58559Y452240D01*
X58541Y452165D01*
X58514Y452092D01*
X58509Y452028D01*
X58494Y451965D01*
X58498Y451888D01*
X58492Y451811D01*
X58505Y451748D01*
X58508Y451684D01*
X58534Y451611D01*
X58549Y451535D01*
X58580Y451478D01*
X58601Y451417D01*
X58642Y451361D01*
X58682Y451286D01*
X58741Y451225D01*
X58782Y451168D01*
X59751Y450200D01*
X59751Y447000D01*
X59760Y446936D01*
X59759Y446872D01*
X59780Y446797D01*
X59791Y446721D01*
X59817Y446662D01*
X59834Y446600D01*
X59875Y446534D01*
X59907Y446464D01*
X59949Y446415D01*
X59982Y446360D01*
X60040Y446308D01*
X60090Y446250D01*
X60144Y446214D01*
X60192Y446171D01*
X60261Y446138D01*
X60326Y446095D01*
X60388Y446076D01*
X60445Y446048D01*
X60515Y446037D01*
X60596Y446013D01*
X60681Y446012D01*
X60750Y446001D01*
X63950Y446001D01*
X64918Y445032D01*
X64970Y444994D01*
X65015Y444948D01*
X65082Y444910D01*
X65144Y444863D01*
X65204Y444840D01*
X65260Y444809D01*
X65335Y444791D01*
X65408Y444764D01*
X65472Y444759D01*
X65535Y444744D01*
X65612Y444748D01*
X65689Y444742D01*
X65752Y444755D01*
X65816Y444758D01*
X65889Y444784D01*
X65965Y444799D01*
X66022Y444830D01*
X66083Y444851D01*
X66139Y444892D01*
X66214Y444932D01*
X66275Y444991D01*
X66332Y445032D01*
X67300Y446001D01*
X70500Y446001D01*
X70564Y446010D01*
X70628Y446009D01*
X70703Y446030D01*
X70779Y446041D01*
X70838Y446067D01*
X70900Y446084D01*
X70966Y446125D01*
X71036Y446157D01*
X71085Y446199D01*
X71140Y446232D01*
X71192Y446290D01*
X71250Y446340D01*
X71286Y446394D01*
X71329Y446442D01*
X71362Y446511D01*
X71405Y446576D01*
X71424Y446638D01*
X71452Y446695D01*
X71463Y446765D01*
X71487Y446846D01*
X71488Y446931D01*
X71499Y447000D01*
X71499Y450200D01*
X73550Y452251D01*
X76450Y452251D01*
X77418Y451282D01*
X77470Y451244D01*
X77515Y451198D01*
X77582Y451160D01*
X77644Y451113D01*
X77704Y451090D01*
X77760Y451059D01*
X77835Y451041D01*
X77908Y451014D01*
X77972Y451009D01*
X78035Y450994D01*
X78112Y450998D01*
X78189Y450992D01*
X78252Y451005D01*
X78316Y451008D01*
X78389Y451034D01*
X78465Y451049D01*
X78522Y451080D01*
X78583Y451101D01*
X78639Y451142D01*
X78714Y451182D01*
X78775Y451241D01*
X78832Y451282D01*
X79800Y452251D01*
X82700Y452251D01*
X84751Y450200D01*
X84751Y447300D01*
X83782Y446332D01*
X83744Y446280D01*
X83698Y446235D01*
X83660Y446168D01*
X83613Y446106D01*
X83590Y446046D01*
X83559Y445990D01*
X83541Y445915D01*
X83514Y445842D01*
X83509Y445778D01*
X83494Y445715D01*
X83498Y445638D01*
X83492Y445561D01*
X83505Y445498D01*
X83508Y445434D01*
X83534Y445361D01*
X83549Y445285D01*
X83580Y445228D01*
X83601Y445167D01*
X83642Y445111D01*
X83682Y445036D01*
X83741Y444975D01*
X83782Y444918D01*
X84751Y443950D01*
X84751Y441050D01*
X82700Y438999D01*
X79800Y438999D01*
X78832Y439968D01*
X78780Y440006D01*
X78735Y440052D01*
X78668Y440090D01*
X78606Y440137D01*
X78546Y440160D01*
X78490Y440191D01*
X78415Y440209D01*
X78342Y440236D01*
X78278Y440241D01*
X78216Y440256D01*
X78138Y440252D01*
X78061Y440258D01*
X77998Y440245D01*
X77934Y440242D01*
X77861Y440216D01*
X77785Y440201D01*
X77728Y440170D01*
X77667Y440149D01*
X77611Y440108D01*
X77536Y440068D01*
X77475Y440009D01*
X77418Y439968D01*
X76450Y438999D01*
X73550Y438999D01*
X72582Y439968D01*
X72530Y440006D01*
X72485Y440052D01*
X72418Y440090D01*
X72356Y440137D01*
X72296Y440160D01*
X72240Y440191D01*
X72165Y440209D01*
X72092Y440236D01*
X72028Y440241D01*
X71966Y440256D01*
X71888Y440252D01*
X71811Y440258D01*
X71748Y440245D01*
X71684Y440242D01*
X71611Y440216D01*
X71535Y440201D01*
X71478Y440170D01*
X71417Y440149D01*
X71361Y440108D01*
X71286Y440068D01*
X71225Y440009D01*
X71168Y439968D01*
X70200Y438999D01*
X67300Y438999D01*
X66332Y439968D01*
X66280Y440006D01*
X66235Y440052D01*
X66168Y440090D01*
X66106Y440137D01*
X66046Y440160D01*
X65990Y440191D01*
X65915Y440209D01*
X65842Y440236D01*
X65778Y440241D01*
X65716Y440256D01*
X65638Y440252D01*
X65561Y440258D01*
X65498Y440245D01*
X65434Y440242D01*
X65361Y440216D01*
X65285Y440201D01*
X65228Y440170D01*
X65167Y440149D01*
X65111Y440108D01*
X65036Y440068D01*
X64975Y440009D01*
X64918Y439968D01*
X63950Y438999D01*
X61050Y438999D01*
X60082Y439968D01*
X60030Y440006D01*
X59985Y440052D01*
X59918Y440090D01*
X59856Y440137D01*
X59796Y440160D01*
X59740Y440191D01*
X59665Y440209D01*
X59592Y440236D01*
X59528Y440241D01*
X59466Y440256D01*
X59388Y440252D01*
X59311Y440258D01*
X59248Y440245D01*
X59184Y440242D01*
X59111Y440216D01*
X59035Y440201D01*
X58978Y440170D01*
X58917Y440149D01*
X58861Y440108D01*
X58786Y440068D01*
X58725Y440009D01*
X58668Y439968D01*
X57700Y438999D01*
X54800Y438999D01*
G37*
%LPD*%
%LPC*%
G36*
X222925Y396499D02*
X222925Y396499D01*
X220874Y398550D01*
X220874Y401450D01*
X222925Y403501D01*
X225500Y403501D01*
X225564Y403510D01*
X225628Y403509D01*
X225703Y403530D01*
X225779Y403541D01*
X225838Y403567D01*
X225900Y403584D01*
X225966Y403625D01*
X226036Y403657D01*
X226085Y403699D01*
X226140Y403732D01*
X226192Y403790D01*
X226250Y403840D01*
X226286Y403894D01*
X226329Y403942D01*
X226362Y404011D01*
X226405Y404076D01*
X226424Y404138D01*
X226452Y404195D01*
X226463Y404265D01*
X226487Y404346D01*
X226488Y404431D01*
X226499Y404500D01*
X226499Y405000D01*
X226490Y405064D01*
X226491Y405128D01*
X226470Y405203D01*
X226459Y405279D01*
X226433Y405338D01*
X226416Y405400D01*
X226375Y405466D01*
X226343Y405536D01*
X226301Y405585D01*
X226268Y405640D01*
X226210Y405692D01*
X226160Y405750D01*
X226106Y405786D01*
X226058Y405829D01*
X225989Y405862D01*
X225924Y405905D01*
X225862Y405924D01*
X225805Y405952D01*
X225735Y405963D01*
X225654Y405987D01*
X225569Y405988D01*
X225500Y405999D01*
X224300Y405999D01*
X222249Y408050D01*
X222249Y410950D01*
X224300Y413001D01*
X227200Y413001D01*
X229251Y410950D01*
X229251Y408500D01*
X229260Y408436D01*
X229259Y408372D01*
X229280Y408297D01*
X229291Y408221D01*
X229317Y408162D01*
X229334Y408100D01*
X229375Y408034D01*
X229407Y407964D01*
X229449Y407915D01*
X229482Y407860D01*
X229540Y407808D01*
X229590Y407750D01*
X229644Y407714D01*
X229692Y407671D01*
X229761Y407638D01*
X229826Y407595D01*
X229888Y407576D01*
X229945Y407548D01*
X230015Y407537D01*
X230096Y407513D01*
X230181Y407512D01*
X230250Y407501D01*
X231450Y407501D01*
X232173Y406777D01*
X232199Y406758D01*
X232220Y406733D01*
X232312Y406674D01*
X232399Y406608D01*
X232429Y406597D01*
X232456Y406579D01*
X232561Y406547D01*
X232663Y406509D01*
X232695Y406506D01*
X232726Y406497D01*
X232835Y406495D01*
X232944Y406487D01*
X232976Y406493D01*
X233008Y406493D01*
X233113Y406522D01*
X233220Y406544D01*
X233249Y406559D01*
X233280Y406568D01*
X233373Y406625D01*
X233469Y406677D01*
X233492Y406699D01*
X233520Y406716D01*
X233593Y406797D01*
X233671Y406874D01*
X233687Y406902D01*
X233709Y406926D01*
X233756Y407024D01*
X233810Y407119D01*
X233818Y407150D01*
X233832Y407179D01*
X233846Y407269D01*
X233875Y407393D01*
X233873Y407442D01*
X233879Y407484D01*
X233879Y408915D01*
X235192Y412083D01*
X237617Y414508D01*
X240785Y415821D01*
X244215Y415821D01*
X247383Y414508D01*
X249808Y412083D01*
X251121Y408915D01*
X251121Y405485D01*
X249808Y402317D01*
X247383Y399892D01*
X244215Y398579D01*
X240785Y398579D01*
X237617Y399892D01*
X235183Y402326D01*
X235140Y402398D01*
X235084Y402502D01*
X235068Y402519D01*
X235057Y402538D01*
X234970Y402620D01*
X234888Y402705D01*
X234868Y402716D01*
X234851Y402731D01*
X234745Y402785D01*
X234642Y402844D01*
X234620Y402849D01*
X234600Y402859D01*
X234483Y402881D01*
X234368Y402908D01*
X234345Y402907D01*
X234323Y402912D01*
X234204Y402900D01*
X234086Y402894D01*
X234065Y402887D01*
X234042Y402884D01*
X233931Y402840D01*
X233820Y402802D01*
X233802Y402789D01*
X233780Y402780D01*
X233633Y402666D01*
X233571Y402620D01*
X231450Y400499D01*
X228875Y400499D01*
X228811Y400490D01*
X228747Y400491D01*
X228672Y400470D01*
X228596Y400459D01*
X228537Y400433D01*
X228475Y400416D01*
X228409Y400375D01*
X228339Y400343D01*
X228290Y400301D01*
X228235Y400268D01*
X228183Y400210D01*
X228125Y400160D01*
X228089Y400106D01*
X228046Y400058D01*
X228013Y399989D01*
X227970Y399924D01*
X227951Y399862D01*
X227923Y399805D01*
X227912Y399735D01*
X227888Y399654D01*
X227887Y399569D01*
X227876Y399500D01*
X227876Y398550D01*
X225825Y396499D01*
X222925Y396499D01*
G37*
%LPD*%
%LPC*%
G36*
X23550Y143999D02*
X23550Y143999D01*
X21499Y146050D01*
X21499Y146345D01*
X21495Y146377D01*
X21497Y146409D01*
X21475Y146516D01*
X21459Y146625D01*
X21446Y146654D01*
X21440Y146685D01*
X21388Y146782D01*
X21343Y146881D01*
X21322Y146906D01*
X21307Y146934D01*
X21231Y147013D01*
X21160Y147096D01*
X21133Y147113D01*
X21110Y147137D01*
X21015Y147190D01*
X20924Y147250D01*
X20893Y147260D01*
X20865Y147276D01*
X20759Y147301D01*
X20654Y147333D01*
X20622Y147333D01*
X20591Y147340D01*
X20481Y147335D01*
X20372Y147336D01*
X20341Y147328D01*
X20309Y147326D01*
X20206Y147290D01*
X20100Y147261D01*
X20073Y147244D01*
X20042Y147234D01*
X19969Y147180D01*
X19860Y147113D01*
X19828Y147077D01*
X19793Y147052D01*
X18633Y145892D01*
X15465Y144579D01*
X12035Y144579D01*
X8867Y145892D01*
X6442Y148317D01*
X5129Y151485D01*
X5129Y154915D01*
X6442Y158083D01*
X8867Y160508D01*
X12035Y161821D01*
X15465Y161821D01*
X18633Y160508D01*
X21058Y158083D01*
X21460Y157114D01*
X21520Y157012D01*
X21576Y156908D01*
X21592Y156891D01*
X21603Y156872D01*
X21690Y156791D01*
X21772Y156706D01*
X21792Y156694D01*
X21809Y156679D01*
X21915Y156625D01*
X22018Y156567D01*
X22040Y156561D01*
X22060Y156551D01*
X22177Y156529D01*
X22292Y156502D01*
X22315Y156503D01*
X22338Y156499D01*
X22456Y156510D01*
X22574Y156516D01*
X22595Y156523D01*
X22618Y156526D01*
X22728Y156570D01*
X22840Y156608D01*
X22858Y156621D01*
X22880Y156630D01*
X23027Y156745D01*
X23089Y156790D01*
X23750Y157451D01*
X26650Y157451D01*
X28701Y155400D01*
X28701Y152500D01*
X27532Y151332D01*
X27494Y151280D01*
X27448Y151235D01*
X27410Y151168D01*
X27363Y151106D01*
X27340Y151046D01*
X27309Y150990D01*
X27291Y150915D01*
X27264Y150842D01*
X27259Y150778D01*
X27244Y150715D01*
X27248Y150638D01*
X27242Y150561D01*
X27255Y150498D01*
X27258Y150434D01*
X27284Y150361D01*
X27299Y150285D01*
X27330Y150228D01*
X27351Y150167D01*
X27392Y150111D01*
X27432Y150036D01*
X27491Y149975D01*
X27532Y149918D01*
X28501Y148950D01*
X28501Y146050D01*
X26450Y143999D01*
X23550Y143999D01*
G37*
%LPD*%
%LPC*%
G36*
X240785Y500179D02*
X240785Y500179D01*
X237617Y501492D01*
X235192Y503917D01*
X233879Y507085D01*
X233879Y510515D01*
X235268Y513867D01*
X235286Y513938D01*
X235316Y514012D01*
X235320Y514055D01*
X235333Y514096D01*
X235333Y514121D01*
X235338Y514140D01*
X235336Y514211D01*
X235344Y514293D01*
X235336Y514335D01*
X235336Y514378D01*
X235329Y514403D01*
X235329Y514422D01*
X235307Y514488D01*
X235292Y514570D01*
X235273Y514608D01*
X235261Y514650D01*
X235247Y514672D01*
X235241Y514690D01*
X235203Y514747D01*
X235165Y514822D01*
X235136Y514853D01*
X235113Y514890D01*
X235093Y514908D01*
X235082Y514923D01*
X235030Y514966D01*
X234972Y515028D01*
X234936Y515050D01*
X234904Y515079D01*
X234879Y515091D01*
X234865Y515102D01*
X234802Y515129D01*
X234730Y515172D01*
X234688Y515183D01*
X234650Y515202D01*
X234625Y515206D01*
X234606Y515214D01*
X234537Y515222D01*
X234457Y515243D01*
X234397Y515241D01*
X234345Y515249D01*
X231050Y515249D01*
X228999Y517300D01*
X228999Y520200D01*
X231050Y522251D01*
X233950Y522251D01*
X236001Y520200D01*
X236001Y516905D01*
X236005Y516873D01*
X236003Y516840D01*
X236025Y516733D01*
X236041Y516625D01*
X236054Y516596D01*
X236061Y516564D01*
X236112Y516468D01*
X236157Y516369D01*
X236178Y516344D01*
X236193Y516315D01*
X236269Y516237D01*
X236340Y516154D01*
X236367Y516136D01*
X236390Y516113D01*
X236485Y516060D01*
X236576Y516000D01*
X236607Y515990D01*
X236635Y515974D01*
X236741Y515949D01*
X236846Y515917D01*
X236878Y515917D01*
X236910Y515910D01*
X237019Y515915D01*
X237128Y515914D01*
X237159Y515922D01*
X237191Y515924D01*
X237294Y515960D01*
X237400Y515989D01*
X237427Y516006D01*
X237458Y516016D01*
X237531Y516070D01*
X237545Y516079D01*
X240785Y517421D01*
X244215Y517421D01*
X247383Y516108D01*
X249808Y513683D01*
X251121Y510515D01*
X251121Y507085D01*
X249808Y503917D01*
X247383Y501492D01*
X244215Y500179D01*
X240785Y500179D01*
G37*
%LPD*%
%LPC*%
G36*
X229550Y92499D02*
X229550Y92499D01*
X227499Y94550D01*
X227499Y97450D01*
X229550Y99501D01*
X232721Y99501D01*
X232726Y99499D01*
X232758Y99499D01*
X232837Y99484D01*
X232891Y99489D01*
X232945Y99485D01*
X232997Y99496D01*
X233008Y99495D01*
X233036Y99503D01*
X233117Y99511D01*
X233168Y99531D01*
X233221Y99542D01*
X233269Y99568D01*
X233280Y99571D01*
X233303Y99585D01*
X233379Y99615D01*
X233422Y99649D01*
X233470Y99674D01*
X233509Y99712D01*
X233520Y99719D01*
X233539Y99740D01*
X233602Y99789D01*
X233633Y99833D01*
X233672Y99871D01*
X233698Y99917D01*
X233709Y99928D01*
X233722Y99956D01*
X233767Y100018D01*
X233785Y100069D01*
X233812Y100116D01*
X233823Y100164D01*
X233832Y100182D01*
X233837Y100215D01*
X233861Y100283D01*
X233864Y100338D01*
X233877Y100391D01*
X233874Y100452D01*
X233879Y100486D01*
X233879Y104115D01*
X235192Y107283D01*
X237617Y109708D01*
X240785Y111021D01*
X244215Y111021D01*
X247383Y109708D01*
X249808Y107283D01*
X251121Y104115D01*
X251121Y100685D01*
X249808Y97517D01*
X247383Y95092D01*
X244215Y93779D01*
X240785Y93779D01*
X237617Y95092D01*
X236207Y96502D01*
X236181Y96521D01*
X236160Y96546D01*
X236068Y96606D01*
X235981Y96671D01*
X235951Y96683D01*
X235924Y96700D01*
X235819Y96732D01*
X235717Y96771D01*
X235685Y96773D01*
X235654Y96783D01*
X235545Y96784D01*
X235436Y96793D01*
X235404Y96786D01*
X235372Y96786D01*
X235267Y96757D01*
X235160Y96735D01*
X235131Y96720D01*
X235100Y96711D01*
X235007Y96654D01*
X234911Y96602D01*
X234888Y96580D01*
X234860Y96563D01*
X234787Y96482D01*
X234709Y96406D01*
X234693Y96378D01*
X234671Y96354D01*
X234624Y96255D01*
X234570Y96160D01*
X234562Y96129D01*
X234548Y96100D01*
X234534Y96011D01*
X234505Y95886D01*
X234507Y95837D01*
X234501Y95795D01*
X234501Y94550D01*
X232450Y92499D01*
X229550Y92499D01*
G37*
%LPD*%
%LPC*%
G36*
X114550Y328499D02*
X114550Y328499D01*
X112499Y330550D01*
X112499Y333450D01*
X114343Y335293D01*
X114381Y335345D01*
X114427Y335390D01*
X114465Y335457D01*
X114512Y335519D01*
X114535Y335579D01*
X114566Y335635D01*
X114584Y335710D01*
X114611Y335783D01*
X114616Y335847D01*
X114631Y335909D01*
X114627Y335987D01*
X114633Y336064D01*
X114620Y336127D01*
X114617Y336191D01*
X114591Y336264D01*
X114576Y336340D01*
X114545Y336397D01*
X114524Y336458D01*
X114483Y336514D01*
X114443Y336589D01*
X114384Y336650D01*
X114343Y336707D01*
X112499Y338550D01*
X112499Y341450D01*
X114343Y343293D01*
X114381Y343345D01*
X114427Y343390D01*
X114465Y343457D01*
X114512Y343519D01*
X114535Y343579D01*
X114566Y343635D01*
X114584Y343710D01*
X114611Y343783D01*
X114616Y343847D01*
X114631Y343909D01*
X114627Y343987D01*
X114633Y344064D01*
X114620Y344127D01*
X114617Y344191D01*
X114591Y344264D01*
X114576Y344340D01*
X114545Y344397D01*
X114524Y344458D01*
X114483Y344514D01*
X114443Y344589D01*
X114384Y344650D01*
X114343Y344707D01*
X112499Y346550D01*
X112499Y349450D01*
X114343Y351293D01*
X114381Y351345D01*
X114427Y351390D01*
X114465Y351457D01*
X114512Y351519D01*
X114535Y351579D01*
X114566Y351635D01*
X114584Y351710D01*
X114611Y351783D01*
X114616Y351847D01*
X114631Y351910D01*
X114627Y351987D01*
X114633Y352064D01*
X114620Y352127D01*
X114617Y352191D01*
X114591Y352264D01*
X114576Y352340D01*
X114545Y352397D01*
X114524Y352458D01*
X114483Y352514D01*
X114443Y352589D01*
X114384Y352650D01*
X114343Y352707D01*
X112499Y354550D01*
X112499Y357450D01*
X114550Y359501D01*
X117450Y359501D01*
X119293Y357657D01*
X119345Y357619D01*
X119390Y357573D01*
X119457Y357535D01*
X119519Y357488D01*
X119579Y357465D01*
X119635Y357434D01*
X119710Y357416D01*
X119783Y357389D01*
X119847Y357384D01*
X119910Y357369D01*
X119987Y357373D01*
X120064Y357367D01*
X120127Y357380D01*
X120191Y357383D01*
X120264Y357409D01*
X120340Y357424D01*
X120397Y357455D01*
X120458Y357476D01*
X120514Y357517D01*
X120589Y357557D01*
X120650Y357616D01*
X120707Y357657D01*
X122550Y359501D01*
X125450Y359501D01*
X127501Y357450D01*
X127501Y354550D01*
X125657Y352707D01*
X125619Y352655D01*
X125573Y352610D01*
X125535Y352543D01*
X125488Y352481D01*
X125465Y352421D01*
X125434Y352365D01*
X125416Y352290D01*
X125389Y352217D01*
X125384Y352153D01*
X125369Y352091D01*
X125373Y352013D01*
X125367Y351936D01*
X125380Y351873D01*
X125383Y351809D01*
X125409Y351736D01*
X125424Y351660D01*
X125455Y351603D01*
X125476Y351542D01*
X125517Y351486D01*
X125557Y351411D01*
X125616Y351350D01*
X125657Y351293D01*
X127501Y349450D01*
X127501Y346550D01*
X125450Y344499D01*
X122550Y344499D01*
X120707Y346343D01*
X120655Y346381D01*
X120610Y346427D01*
X120543Y346465D01*
X120481Y346512D01*
X120421Y346535D01*
X120365Y346566D01*
X120290Y346584D01*
X120217Y346611D01*
X120153Y346616D01*
X120090Y346631D01*
X120013Y346627D01*
X119936Y346633D01*
X119873Y346620D01*
X119809Y346617D01*
X119736Y346591D01*
X119660Y346576D01*
X119603Y346545D01*
X119542Y346524D01*
X119486Y346483D01*
X119411Y346443D01*
X119350Y346384D01*
X119293Y346343D01*
X117657Y344707D01*
X117619Y344655D01*
X117573Y344610D01*
X117535Y344543D01*
X117488Y344481D01*
X117465Y344421D01*
X117434Y344365D01*
X117416Y344289D01*
X117389Y344217D01*
X117384Y344153D01*
X117369Y344090D01*
X117373Y344013D01*
X117367Y343936D01*
X117380Y343873D01*
X117383Y343809D01*
X117409Y343736D01*
X117424Y343660D01*
X117455Y343603D01*
X117476Y343542D01*
X117517Y343486D01*
X117557Y343411D01*
X117616Y343350D01*
X117657Y343293D01*
X119501Y341450D01*
X119501Y338550D01*
X117657Y336707D01*
X117619Y336655D01*
X117573Y336610D01*
X117535Y336543D01*
X117488Y336481D01*
X117465Y336421D01*
X117434Y336365D01*
X117416Y336290D01*
X117389Y336217D01*
X117384Y336153D01*
X117369Y336090D01*
X117373Y336013D01*
X117367Y335936D01*
X117380Y335873D01*
X117383Y335809D01*
X117409Y335736D01*
X117424Y335660D01*
X117455Y335603D01*
X117476Y335542D01*
X117517Y335486D01*
X117557Y335411D01*
X117616Y335350D01*
X117657Y335293D01*
X119501Y333450D01*
X119501Y330550D01*
X117450Y328499D01*
X114550Y328499D01*
G37*
%LPD*%
%LPC*%
G36*
X12035Y373179D02*
X12035Y373179D01*
X8867Y374492D01*
X6442Y376917D01*
X5129Y380085D01*
X5129Y383515D01*
X6442Y386683D01*
X8867Y389108D01*
X12035Y390421D01*
X15465Y390421D01*
X18633Y389108D01*
X21058Y386683D01*
X22371Y383515D01*
X22371Y380085D01*
X21058Y376917D01*
X18633Y374492D01*
X15465Y373179D01*
X12035Y373179D01*
G37*
%LPD*%
%LPC*%
G36*
X12035Y68379D02*
X12035Y68379D01*
X8867Y69692D01*
X6442Y72117D01*
X5129Y75285D01*
X5129Y78715D01*
X6442Y81883D01*
X8867Y84308D01*
X12035Y85621D01*
X15465Y85621D01*
X18633Y84308D01*
X21058Y81883D01*
X22371Y78715D01*
X22371Y75285D01*
X21058Y72117D01*
X18633Y69692D01*
X15465Y68379D01*
X12035Y68379D01*
G37*
%LPD*%
%LPC*%
G36*
X12035Y296979D02*
X12035Y296979D01*
X8867Y298292D01*
X6442Y300717D01*
X5129Y303885D01*
X5129Y307315D01*
X6442Y310483D01*
X8867Y312908D01*
X12035Y314221D01*
X15465Y314221D01*
X18633Y312908D01*
X21058Y310483D01*
X22371Y307315D01*
X22371Y303885D01*
X21058Y300717D01*
X18633Y298292D01*
X15465Y296979D01*
X12035Y296979D01*
G37*
%LPD*%
%LPC*%
G36*
X240785Y296979D02*
X240785Y296979D01*
X237617Y298292D01*
X235192Y300717D01*
X233879Y303885D01*
X233879Y307315D01*
X235192Y310483D01*
X237617Y312908D01*
X240785Y314221D01*
X244215Y314221D01*
X247383Y312908D01*
X249808Y310483D01*
X251121Y307315D01*
X251121Y303885D01*
X249808Y300717D01*
X247383Y298292D01*
X244215Y296979D01*
X240785Y296979D01*
G37*
%LPD*%
%LPC*%
G36*
X12035Y322379D02*
X12035Y322379D01*
X8867Y323692D01*
X6442Y326117D01*
X5129Y329285D01*
X5129Y332715D01*
X6442Y335883D01*
X8867Y338308D01*
X12035Y339621D01*
X15465Y339621D01*
X18633Y338308D01*
X21058Y335883D01*
X22371Y332715D01*
X22371Y329285D01*
X21058Y326117D01*
X18633Y323692D01*
X15465Y322379D01*
X12035Y322379D01*
G37*
%LPD*%
%LPC*%
G36*
X240785Y322379D02*
X240785Y322379D01*
X237617Y323692D01*
X235192Y326117D01*
X233879Y329285D01*
X233879Y332715D01*
X235192Y335883D01*
X237617Y338308D01*
X240785Y339621D01*
X244215Y339621D01*
X247383Y338308D01*
X249808Y335883D01*
X251121Y332715D01*
X251121Y329285D01*
X249808Y326117D01*
X247383Y323692D01*
X244215Y322379D01*
X240785Y322379D01*
G37*
%LPD*%
%LPC*%
G36*
X12035Y347779D02*
X12035Y347779D01*
X8867Y349092D01*
X6442Y351517D01*
X5129Y354685D01*
X5129Y358115D01*
X6442Y361283D01*
X8867Y363708D01*
X12035Y365021D01*
X15465Y365021D01*
X18633Y363708D01*
X21058Y361283D01*
X22371Y358115D01*
X22371Y354685D01*
X21058Y351517D01*
X18633Y349092D01*
X15465Y347779D01*
X12035Y347779D01*
G37*
%LPD*%
%LPC*%
G36*
X240785Y347779D02*
X240785Y347779D01*
X237617Y349092D01*
X235192Y351517D01*
X233879Y354685D01*
X233879Y358115D01*
X235192Y361283D01*
X237617Y363708D01*
X240785Y365021D01*
X244215Y365021D01*
X247383Y363708D01*
X249808Y361283D01*
X251121Y358115D01*
X251121Y354685D01*
X249808Y351517D01*
X247383Y349092D01*
X244215Y347779D01*
X240785Y347779D01*
G37*
%LPD*%
%LPC*%
G36*
X240785Y42979D02*
X240785Y42979D01*
X237617Y44292D01*
X235192Y46717D01*
X233879Y49885D01*
X233879Y53315D01*
X235192Y56483D01*
X237617Y58908D01*
X240785Y60221D01*
X244215Y60221D01*
X247383Y58908D01*
X249808Y56483D01*
X251121Y53315D01*
X251121Y49885D01*
X249808Y46717D01*
X247383Y44292D01*
X244215Y42979D01*
X240785Y42979D01*
G37*
%LPD*%
%LPC*%
G36*
X12035Y42979D02*
X12035Y42979D01*
X8867Y44292D01*
X6442Y46717D01*
X5129Y49885D01*
X5129Y53315D01*
X6442Y56483D01*
X8867Y58908D01*
X12035Y60221D01*
X15465Y60221D01*
X18633Y58908D01*
X21058Y56483D01*
X22371Y53315D01*
X22371Y49885D01*
X21058Y46717D01*
X18633Y44292D01*
X15465Y42979D01*
X12035Y42979D01*
G37*
%LPD*%
%LPC*%
G36*
X240785Y68379D02*
X240785Y68379D01*
X237617Y69692D01*
X235192Y72117D01*
X233879Y75285D01*
X233879Y78715D01*
X235192Y81883D01*
X237617Y84308D01*
X240785Y85621D01*
X244215Y85621D01*
X247383Y84308D01*
X249808Y81883D01*
X251121Y78715D01*
X251121Y75285D01*
X249808Y72117D01*
X247383Y69692D01*
X244215Y68379D01*
X240785Y68379D01*
G37*
%LPD*%
%LPC*%
G36*
X240785Y271579D02*
X240785Y271579D01*
X237617Y272892D01*
X235192Y275317D01*
X233879Y278485D01*
X233879Y281915D01*
X235192Y285083D01*
X237617Y287508D01*
X240785Y288821D01*
X244215Y288821D01*
X247383Y287508D01*
X249808Y285083D01*
X251121Y281915D01*
X251121Y278485D01*
X249808Y275317D01*
X247383Y272892D01*
X244215Y271579D01*
X240785Y271579D01*
G37*
%LPD*%
%LPC*%
G36*
X12035Y271579D02*
X12035Y271579D01*
X8867Y272892D01*
X6442Y275317D01*
X5129Y278485D01*
X5129Y281915D01*
X6442Y285083D01*
X8867Y287508D01*
X12035Y288821D01*
X15465Y288821D01*
X18633Y287508D01*
X21058Y285083D01*
X22371Y281915D01*
X22371Y278485D01*
X21058Y275317D01*
X18633Y272892D01*
X15465Y271579D01*
X12035Y271579D01*
G37*
%LPD*%
%LPC*%
G36*
X240785Y246179D02*
X240785Y246179D01*
X237617Y247492D01*
X235192Y249917D01*
X233879Y253085D01*
X233879Y256515D01*
X235192Y259683D01*
X237617Y262108D01*
X240785Y263421D01*
X244215Y263421D01*
X247383Y262108D01*
X249808Y259683D01*
X251121Y256515D01*
X251121Y253085D01*
X249808Y249917D01*
X247383Y247492D01*
X244215Y246179D01*
X240785Y246179D01*
G37*
%LPD*%
%LPC*%
G36*
X12035Y246179D02*
X12035Y246179D01*
X8867Y247492D01*
X6442Y249917D01*
X5129Y253085D01*
X5129Y256515D01*
X6442Y259683D01*
X8867Y262108D01*
X12035Y263421D01*
X15465Y263421D01*
X18633Y262108D01*
X21058Y259683D01*
X22371Y256515D01*
X22371Y253085D01*
X21058Y249917D01*
X18633Y247492D01*
X15465Y246179D01*
X12035Y246179D01*
G37*
%LPD*%
%LPC*%
G36*
X240785Y220779D02*
X240785Y220779D01*
X237617Y222092D01*
X235192Y224517D01*
X233879Y227685D01*
X233879Y231115D01*
X235192Y234283D01*
X237617Y236708D01*
X240785Y238021D01*
X244215Y238021D01*
X247383Y236708D01*
X249808Y234283D01*
X251121Y231115D01*
X251121Y227685D01*
X249808Y224517D01*
X247383Y222092D01*
X244215Y220779D01*
X240785Y220779D01*
G37*
%LPD*%
%LPC*%
G36*
X12035Y220779D02*
X12035Y220779D01*
X8867Y222092D01*
X6442Y224517D01*
X5129Y227685D01*
X5129Y231115D01*
X6442Y234283D01*
X8867Y236708D01*
X12035Y238021D01*
X15465Y238021D01*
X18633Y236708D01*
X21058Y234283D01*
X22371Y231115D01*
X22371Y227685D01*
X21058Y224517D01*
X18633Y222092D01*
X15465Y220779D01*
X12035Y220779D01*
G37*
%LPD*%
%LPC*%
G36*
X240785Y195379D02*
X240785Y195379D01*
X237617Y196692D01*
X235192Y199117D01*
X233879Y202285D01*
X233879Y205715D01*
X235192Y208883D01*
X237617Y211308D01*
X240785Y212621D01*
X244215Y212621D01*
X247383Y211308D01*
X249808Y208883D01*
X251121Y205715D01*
X251121Y202285D01*
X249808Y199117D01*
X247383Y196692D01*
X244215Y195379D01*
X240785Y195379D01*
G37*
%LPD*%
%LPC*%
G36*
X12035Y195379D02*
X12035Y195379D01*
X8867Y196692D01*
X6442Y199117D01*
X5129Y202285D01*
X5129Y205715D01*
X6442Y208883D01*
X8867Y211308D01*
X12035Y212621D01*
X15465Y212621D01*
X18633Y211308D01*
X21058Y208883D01*
X22371Y205715D01*
X22371Y202285D01*
X21058Y199117D01*
X18633Y196692D01*
X15465Y195379D01*
X12035Y195379D01*
G37*
%LPD*%
%LPC*%
G36*
X240785Y169979D02*
X240785Y169979D01*
X237617Y171292D01*
X235192Y173717D01*
X233879Y176885D01*
X233879Y180315D01*
X235192Y183483D01*
X237617Y185908D01*
X240785Y187221D01*
X244215Y187221D01*
X247383Y185908D01*
X249808Y183483D01*
X251121Y180315D01*
X251121Y176885D01*
X249808Y173717D01*
X247383Y171292D01*
X244215Y169979D01*
X240785Y169979D01*
G37*
%LPD*%
%LPC*%
G36*
X12035Y169979D02*
X12035Y169979D01*
X8867Y171292D01*
X6442Y173717D01*
X5129Y176885D01*
X5129Y180315D01*
X6442Y183483D01*
X8867Y185908D01*
X12035Y187221D01*
X15465Y187221D01*
X18633Y185908D01*
X21058Y183483D01*
X22371Y180315D01*
X22371Y176885D01*
X21058Y173717D01*
X18633Y171292D01*
X15465Y169979D01*
X12035Y169979D01*
G37*
%LPD*%
%LPC*%
G36*
X12035Y93779D02*
X12035Y93779D01*
X8867Y95092D01*
X6442Y97517D01*
X5129Y100685D01*
X5129Y104115D01*
X6442Y107283D01*
X8867Y109708D01*
X12035Y111021D01*
X15465Y111021D01*
X18633Y109708D01*
X21058Y107283D01*
X22371Y104115D01*
X22371Y100685D01*
X21058Y97517D01*
X18633Y95092D01*
X15465Y93779D01*
X12035Y93779D01*
G37*
%LPD*%
%LPC*%
G36*
X240785Y144579D02*
X240785Y144579D01*
X237617Y145892D01*
X235192Y148317D01*
X233879Y151485D01*
X233879Y154915D01*
X235192Y158083D01*
X237617Y160508D01*
X240785Y161821D01*
X244215Y161821D01*
X247383Y160508D01*
X249808Y158083D01*
X251121Y154915D01*
X251121Y151485D01*
X249808Y148317D01*
X247383Y145892D01*
X244215Y144579D01*
X240785Y144579D01*
G37*
%LPD*%
%LPC*%
G36*
X12035Y119179D02*
X12035Y119179D01*
X8867Y120492D01*
X6442Y122917D01*
X5129Y126085D01*
X5129Y129515D01*
X6442Y132683D01*
X8867Y135108D01*
X12035Y136421D01*
X15465Y136421D01*
X18633Y135108D01*
X21058Y132683D01*
X22371Y129515D01*
X22371Y126085D01*
X21058Y122917D01*
X18633Y120492D01*
X15465Y119179D01*
X12035Y119179D01*
G37*
%LPD*%
%LPC*%
G36*
X240785Y119179D02*
X240785Y119179D01*
X237617Y120492D01*
X235192Y122917D01*
X233879Y126085D01*
X233879Y129515D01*
X235192Y132683D01*
X237617Y135108D01*
X240785Y136421D01*
X244215Y136421D01*
X247383Y135108D01*
X249808Y132683D01*
X251121Y129515D01*
X251121Y126085D01*
X249808Y122917D01*
X247383Y120492D01*
X244215Y119179D01*
X240785Y119179D01*
G37*
%LPD*%
%LPC*%
G36*
X12035Y423979D02*
X12035Y423979D01*
X8867Y425292D01*
X6442Y427717D01*
X5129Y430885D01*
X5129Y434315D01*
X6442Y437483D01*
X8867Y439908D01*
X12035Y441221D01*
X15465Y441221D01*
X18633Y439908D01*
X21058Y437483D01*
X22371Y434315D01*
X22371Y430885D01*
X21058Y427717D01*
X18633Y425292D01*
X15465Y423979D01*
X12035Y423979D01*
G37*
%LPD*%
%LPC*%
G36*
X240785Y423979D02*
X240785Y423979D01*
X237617Y425292D01*
X235192Y427717D01*
X233879Y430885D01*
X233879Y434315D01*
X235192Y437483D01*
X237617Y439908D01*
X240785Y441221D01*
X244215Y441221D01*
X247383Y439908D01*
X249808Y437483D01*
X251121Y434315D01*
X251121Y430885D01*
X249808Y427717D01*
X247383Y425292D01*
X244215Y423979D01*
X240785Y423979D01*
G37*
%LPD*%
%LPC*%
G36*
X12035Y449379D02*
X12035Y449379D01*
X8867Y450692D01*
X6442Y453117D01*
X5129Y456285D01*
X5129Y459715D01*
X6442Y462883D01*
X8867Y465308D01*
X12035Y466621D01*
X15465Y466621D01*
X18633Y465308D01*
X21058Y462883D01*
X22371Y459715D01*
X22371Y456285D01*
X21058Y453117D01*
X18633Y450692D01*
X15465Y449379D01*
X12035Y449379D01*
G37*
%LPD*%
%LPC*%
G36*
X240785Y449379D02*
X240785Y449379D01*
X237617Y450692D01*
X235192Y453117D01*
X233879Y456285D01*
X233879Y459715D01*
X235192Y462883D01*
X237617Y465308D01*
X240785Y466621D01*
X244215Y466621D01*
X247383Y465308D01*
X249808Y462883D01*
X251121Y459715D01*
X251121Y456285D01*
X249808Y453117D01*
X247383Y450692D01*
X244215Y449379D01*
X240785Y449379D01*
G37*
%LPD*%
%LPC*%
G36*
X12035Y398579D02*
X12035Y398579D01*
X8867Y399892D01*
X6442Y402317D01*
X5129Y405485D01*
X5129Y408915D01*
X6442Y412083D01*
X8867Y414508D01*
X12035Y415821D01*
X15465Y415821D01*
X18633Y414508D01*
X21058Y412083D01*
X22371Y408915D01*
X22371Y405485D01*
X21058Y402317D01*
X18633Y399892D01*
X15465Y398579D01*
X12035Y398579D01*
G37*
%LPD*%
%LPC*%
G36*
X240785Y474779D02*
X240785Y474779D01*
X237617Y476092D01*
X235192Y478517D01*
X233879Y481685D01*
X233879Y485115D01*
X235192Y488283D01*
X237617Y490708D01*
X240785Y492021D01*
X244215Y492021D01*
X247383Y490708D01*
X249808Y488283D01*
X251121Y485115D01*
X251121Y481685D01*
X249808Y478517D01*
X247383Y476092D01*
X244215Y474779D01*
X240785Y474779D01*
G37*
%LPD*%
%LPC*%
G36*
X12035Y474779D02*
X12035Y474779D01*
X8867Y476092D01*
X6442Y478517D01*
X5129Y481685D01*
X5129Y485115D01*
X6442Y488283D01*
X8867Y490708D01*
X12035Y492021D01*
X15465Y492021D01*
X18633Y490708D01*
X21058Y488283D01*
X22371Y485115D01*
X22371Y481685D01*
X21058Y478517D01*
X18633Y476092D01*
X15465Y474779D01*
X12035Y474779D01*
G37*
%LPD*%
%LPC*%
G36*
X12035Y17579D02*
X12035Y17579D01*
X8867Y18892D01*
X6442Y21317D01*
X5129Y24485D01*
X5129Y27915D01*
X6442Y31083D01*
X8867Y33508D01*
X12035Y34821D01*
X15465Y34821D01*
X18633Y33508D01*
X21058Y31083D01*
X22371Y27915D01*
X22371Y24485D01*
X21058Y21317D01*
X18633Y18892D01*
X15465Y17579D01*
X12035Y17579D01*
G37*
%LPD*%
%LPC*%
G36*
X240785Y17579D02*
X240785Y17579D01*
X237617Y18892D01*
X235192Y21317D01*
X233879Y24485D01*
X233879Y27915D01*
X235192Y31083D01*
X237617Y33508D01*
X240785Y34821D01*
X244215Y34821D01*
X247383Y33508D01*
X249808Y31083D01*
X251121Y27915D01*
X251121Y24485D01*
X249808Y21317D01*
X247383Y18892D01*
X244215Y17579D01*
X240785Y17579D01*
G37*
%LPD*%
%LPC*%
G36*
X240785Y373179D02*
X240785Y373179D01*
X237617Y374492D01*
X235192Y376917D01*
X233879Y380085D01*
X233879Y383515D01*
X235192Y386683D01*
X237617Y389108D01*
X240785Y390421D01*
X244215Y390421D01*
X247383Y389108D01*
X249808Y386683D01*
X251121Y383515D01*
X251121Y380085D01*
X249808Y376917D01*
X247383Y374492D01*
X244215Y373179D01*
X240785Y373179D01*
G37*
%LPD*%
%LPC*%
G36*
X178550Y128499D02*
X178550Y128499D01*
X176499Y130550D01*
X176499Y133450D01*
X178343Y135293D01*
X178381Y135345D01*
X178427Y135390D01*
X178465Y135457D01*
X178512Y135519D01*
X178535Y135579D01*
X178566Y135635D01*
X178584Y135710D01*
X178611Y135783D01*
X178616Y135847D01*
X178631Y135910D01*
X178627Y135987D01*
X178633Y136064D01*
X178620Y136127D01*
X178617Y136191D01*
X178591Y136264D01*
X178576Y136340D01*
X178545Y136397D01*
X178524Y136458D01*
X178483Y136514D01*
X178443Y136589D01*
X178384Y136650D01*
X178343Y136707D01*
X176499Y138550D01*
X176499Y141450D01*
X178343Y143293D01*
X178381Y143345D01*
X178427Y143390D01*
X178465Y143457D01*
X178512Y143519D01*
X178535Y143579D01*
X178566Y143635D01*
X178584Y143710D01*
X178611Y143783D01*
X178616Y143847D01*
X178631Y143909D01*
X178627Y143987D01*
X178633Y144064D01*
X178620Y144127D01*
X178617Y144191D01*
X178591Y144264D01*
X178576Y144340D01*
X178545Y144397D01*
X178524Y144458D01*
X178483Y144514D01*
X178443Y144589D01*
X178384Y144650D01*
X178343Y144707D01*
X176499Y146550D01*
X176499Y149450D01*
X178343Y151293D01*
X178381Y151345D01*
X178427Y151390D01*
X178465Y151457D01*
X178512Y151519D01*
X178535Y151579D01*
X178566Y151635D01*
X178584Y151710D01*
X178611Y151783D01*
X178616Y151847D01*
X178631Y151909D01*
X178627Y151987D01*
X178633Y152064D01*
X178620Y152127D01*
X178617Y152191D01*
X178591Y152264D01*
X178576Y152340D01*
X178545Y152397D01*
X178524Y152458D01*
X178483Y152514D01*
X178443Y152589D01*
X178384Y152650D01*
X178343Y152707D01*
X176499Y154550D01*
X176499Y157450D01*
X178343Y159293D01*
X178381Y159345D01*
X178427Y159390D01*
X178465Y159457D01*
X178512Y159519D01*
X178535Y159579D01*
X178566Y159635D01*
X178584Y159710D01*
X178611Y159783D01*
X178616Y159847D01*
X178631Y159909D01*
X178627Y159987D01*
X178633Y160064D01*
X178620Y160127D01*
X178617Y160191D01*
X178591Y160264D01*
X178576Y160340D01*
X178545Y160397D01*
X178524Y160458D01*
X178483Y160514D01*
X178443Y160589D01*
X178384Y160650D01*
X178343Y160707D01*
X176499Y162550D01*
X176499Y165450D01*
X178550Y167501D01*
X181450Y167501D01*
X183501Y165450D01*
X183501Y162550D01*
X181657Y160707D01*
X181619Y160655D01*
X181573Y160610D01*
X181535Y160543D01*
X181488Y160481D01*
X181465Y160421D01*
X181434Y160365D01*
X181416Y160290D01*
X181389Y160217D01*
X181384Y160153D01*
X181369Y160090D01*
X181373Y160013D01*
X181367Y159936D01*
X181380Y159873D01*
X181383Y159809D01*
X181409Y159736D01*
X181424Y159660D01*
X181455Y159603D01*
X181476Y159542D01*
X181517Y159486D01*
X181557Y159411D01*
X181616Y159350D01*
X181657Y159293D01*
X183501Y157450D01*
X183501Y154550D01*
X181657Y152707D01*
X181619Y152655D01*
X181573Y152610D01*
X181535Y152543D01*
X181488Y152481D01*
X181465Y152421D01*
X181434Y152365D01*
X181416Y152290D01*
X181389Y152217D01*
X181384Y152153D01*
X181369Y152090D01*
X181373Y152013D01*
X181367Y151936D01*
X181380Y151873D01*
X181383Y151809D01*
X181409Y151736D01*
X181424Y151660D01*
X181455Y151603D01*
X181476Y151542D01*
X181517Y151486D01*
X181557Y151411D01*
X181616Y151350D01*
X181657Y151293D01*
X183501Y149450D01*
X183501Y146550D01*
X181657Y144707D01*
X181619Y144655D01*
X181573Y144610D01*
X181535Y144543D01*
X181488Y144481D01*
X181465Y144421D01*
X181434Y144365D01*
X181416Y144290D01*
X181389Y144217D01*
X181384Y144153D01*
X181369Y144090D01*
X181373Y144013D01*
X181367Y143936D01*
X181380Y143873D01*
X181383Y143809D01*
X181409Y143736D01*
X181424Y143660D01*
X181455Y143603D01*
X181476Y143542D01*
X181517Y143486D01*
X181557Y143411D01*
X181616Y143350D01*
X181657Y143293D01*
X183501Y141450D01*
X183501Y138550D01*
X181657Y136707D01*
X181619Y136655D01*
X181573Y136610D01*
X181535Y136543D01*
X181488Y136481D01*
X181465Y136421D01*
X181434Y136365D01*
X181416Y136290D01*
X181389Y136217D01*
X181384Y136153D01*
X181369Y136091D01*
X181373Y136013D01*
X181367Y135936D01*
X181380Y135873D01*
X181383Y135809D01*
X181409Y135736D01*
X181424Y135660D01*
X181455Y135603D01*
X181476Y135542D01*
X181517Y135486D01*
X181557Y135411D01*
X181616Y135350D01*
X181657Y135293D01*
X183501Y133450D01*
X183501Y130550D01*
X181450Y128499D01*
X178550Y128499D01*
G37*
%LPD*%
%LPC*%
G36*
X170550Y200499D02*
X170550Y200499D01*
X168499Y202550D01*
X168499Y205450D01*
X170343Y207293D01*
X170381Y207345D01*
X170427Y207390D01*
X170465Y207457D01*
X170512Y207519D01*
X170535Y207579D01*
X170566Y207635D01*
X170584Y207710D01*
X170611Y207783D01*
X170616Y207847D01*
X170631Y207910D01*
X170627Y207987D01*
X170633Y208064D01*
X170620Y208127D01*
X170617Y208191D01*
X170591Y208264D01*
X170576Y208340D01*
X170545Y208397D01*
X170524Y208458D01*
X170483Y208514D01*
X170443Y208589D01*
X170384Y208650D01*
X170343Y208707D01*
X168499Y210550D01*
X168499Y213450D01*
X170343Y215293D01*
X170381Y215345D01*
X170427Y215390D01*
X170465Y215457D01*
X170512Y215519D01*
X170535Y215579D01*
X170566Y215635D01*
X170584Y215710D01*
X170611Y215783D01*
X170616Y215847D01*
X170631Y215909D01*
X170627Y215987D01*
X170633Y216064D01*
X170620Y216127D01*
X170617Y216191D01*
X170591Y216264D01*
X170576Y216340D01*
X170545Y216397D01*
X170524Y216458D01*
X170483Y216514D01*
X170443Y216589D01*
X170384Y216650D01*
X170343Y216707D01*
X168499Y218550D01*
X168499Y221450D01*
X170343Y223293D01*
X170381Y223345D01*
X170427Y223390D01*
X170465Y223457D01*
X170512Y223519D01*
X170535Y223579D01*
X170566Y223635D01*
X170584Y223710D01*
X170611Y223783D01*
X170616Y223847D01*
X170631Y223909D01*
X170627Y223987D01*
X170633Y224064D01*
X170620Y224127D01*
X170617Y224191D01*
X170591Y224264D01*
X170576Y224340D01*
X170545Y224397D01*
X170524Y224458D01*
X170483Y224514D01*
X170443Y224589D01*
X170384Y224650D01*
X170343Y224707D01*
X168707Y226343D01*
X168655Y226381D01*
X168610Y226427D01*
X168543Y226465D01*
X168481Y226512D01*
X168421Y226535D01*
X168365Y226566D01*
X168290Y226584D01*
X168217Y226611D01*
X168153Y226616D01*
X168090Y226631D01*
X168013Y226627D01*
X167936Y226633D01*
X167873Y226620D01*
X167809Y226617D01*
X167736Y226591D01*
X167660Y226576D01*
X167603Y226545D01*
X167542Y226524D01*
X167486Y226483D01*
X167411Y226443D01*
X167350Y226384D01*
X167293Y226343D01*
X165450Y224499D01*
X162550Y224499D01*
X160499Y226550D01*
X160499Y229450D01*
X162550Y231501D01*
X165450Y231501D01*
X167293Y229657D01*
X167345Y229619D01*
X167390Y229573D01*
X167457Y229535D01*
X167519Y229488D01*
X167579Y229465D01*
X167635Y229434D01*
X167710Y229416D01*
X167783Y229389D01*
X167847Y229384D01*
X167909Y229369D01*
X167987Y229373D01*
X168064Y229367D01*
X168127Y229380D01*
X168191Y229383D01*
X168264Y229409D01*
X168340Y229424D01*
X168397Y229455D01*
X168458Y229476D01*
X168514Y229517D01*
X168589Y229557D01*
X168650Y229616D01*
X168707Y229657D01*
X170550Y231501D01*
X173450Y231501D01*
X175501Y229450D01*
X175501Y226550D01*
X173657Y224707D01*
X173619Y224655D01*
X173573Y224610D01*
X173535Y224543D01*
X173488Y224481D01*
X173465Y224421D01*
X173434Y224365D01*
X173416Y224290D01*
X173389Y224217D01*
X173384Y224153D01*
X173369Y224090D01*
X173373Y224013D01*
X173367Y223936D01*
X173380Y223873D01*
X173383Y223809D01*
X173409Y223736D01*
X173424Y223660D01*
X173455Y223603D01*
X173476Y223542D01*
X173517Y223486D01*
X173557Y223411D01*
X173616Y223350D01*
X173657Y223293D01*
X175501Y221450D01*
X175501Y218550D01*
X173657Y216707D01*
X173619Y216655D01*
X173573Y216610D01*
X173535Y216543D01*
X173488Y216481D01*
X173465Y216421D01*
X173434Y216365D01*
X173416Y216290D01*
X173389Y216217D01*
X173384Y216153D01*
X173369Y216090D01*
X173373Y216013D01*
X173367Y215936D01*
X173380Y215873D01*
X173383Y215809D01*
X173409Y215736D01*
X173424Y215660D01*
X173455Y215603D01*
X173476Y215542D01*
X173517Y215486D01*
X173557Y215411D01*
X173616Y215350D01*
X173657Y215293D01*
X175501Y213450D01*
X175501Y210550D01*
X173657Y208707D01*
X173619Y208655D01*
X173573Y208610D01*
X173535Y208543D01*
X173488Y208481D01*
X173465Y208421D01*
X173434Y208365D01*
X173416Y208290D01*
X173389Y208217D01*
X173384Y208153D01*
X173369Y208091D01*
X173373Y208013D01*
X173367Y207936D01*
X173380Y207873D01*
X173383Y207809D01*
X173409Y207736D01*
X173424Y207660D01*
X173455Y207603D01*
X173476Y207542D01*
X173517Y207486D01*
X173557Y207411D01*
X173616Y207350D01*
X173657Y207293D01*
X175501Y205450D01*
X175501Y202550D01*
X173450Y200499D01*
X170550Y200499D01*
G37*
%LPD*%
%LPC*%
G36*
X62050Y148499D02*
X62050Y148499D01*
X59999Y150550D01*
X59999Y153450D01*
X61843Y155293D01*
X61881Y155345D01*
X61927Y155390D01*
X61965Y155457D01*
X62012Y155519D01*
X62035Y155579D01*
X62066Y155635D01*
X62084Y155710D01*
X62111Y155783D01*
X62116Y155847D01*
X62131Y155910D01*
X62127Y155987D01*
X62133Y156064D01*
X62120Y156127D01*
X62117Y156191D01*
X62091Y156264D01*
X62076Y156340D01*
X62045Y156397D01*
X62024Y156458D01*
X61983Y156514D01*
X61943Y156589D01*
X61884Y156650D01*
X61843Y156707D01*
X59999Y158550D01*
X59999Y161450D01*
X61843Y163293D01*
X61881Y163345D01*
X61927Y163390D01*
X61965Y163457D01*
X62012Y163519D01*
X62035Y163579D01*
X62066Y163635D01*
X62084Y163710D01*
X62111Y163783D01*
X62116Y163847D01*
X62131Y163910D01*
X62127Y163987D01*
X62133Y164064D01*
X62120Y164127D01*
X62117Y164191D01*
X62091Y164264D01*
X62076Y164340D01*
X62045Y164397D01*
X62024Y164458D01*
X61983Y164514D01*
X61943Y164589D01*
X61884Y164650D01*
X61843Y164707D01*
X59999Y166550D01*
X59999Y169450D01*
X62050Y171501D01*
X64950Y171501D01*
X67001Y169450D01*
X67001Y168500D01*
X67010Y168436D01*
X67009Y168372D01*
X67030Y168297D01*
X67041Y168221D01*
X67067Y168162D01*
X67084Y168100D01*
X67125Y168034D01*
X67157Y167964D01*
X67199Y167915D01*
X67232Y167860D01*
X67290Y167808D01*
X67340Y167750D01*
X67394Y167714D01*
X67442Y167671D01*
X67511Y167638D01*
X67576Y167595D01*
X67638Y167576D01*
X67695Y167548D01*
X67765Y167537D01*
X67846Y167513D01*
X67931Y167512D01*
X68000Y167501D01*
X69450Y167501D01*
X71501Y165450D01*
X71501Y162550D01*
X69657Y160707D01*
X69619Y160655D01*
X69573Y160610D01*
X69535Y160543D01*
X69488Y160481D01*
X69465Y160421D01*
X69434Y160365D01*
X69416Y160290D01*
X69389Y160217D01*
X69384Y160153D01*
X69369Y160091D01*
X69373Y160013D01*
X69367Y159936D01*
X69380Y159873D01*
X69383Y159809D01*
X69409Y159736D01*
X69424Y159660D01*
X69455Y159603D01*
X69476Y159542D01*
X69517Y159486D01*
X69557Y159411D01*
X69616Y159350D01*
X69657Y159293D01*
X71501Y157450D01*
X71501Y154550D01*
X69450Y152499D01*
X68000Y152499D01*
X67936Y152490D01*
X67872Y152491D01*
X67797Y152470D01*
X67721Y152459D01*
X67662Y152433D01*
X67600Y152416D01*
X67534Y152375D01*
X67464Y152343D01*
X67415Y152301D01*
X67360Y152268D01*
X67308Y152210D01*
X67250Y152160D01*
X67214Y152106D01*
X67171Y152058D01*
X67138Y151989D01*
X67095Y151924D01*
X67076Y151862D01*
X67048Y151805D01*
X67037Y151735D01*
X67013Y151654D01*
X67012Y151569D01*
X67001Y151500D01*
X67001Y150550D01*
X64950Y148499D01*
X62050Y148499D01*
G37*
%LPD*%
%LPC*%
G36*
X138550Y336499D02*
X138550Y336499D01*
X136499Y338550D01*
X136499Y341450D01*
X138343Y343293D01*
X138381Y343345D01*
X138427Y343390D01*
X138465Y343457D01*
X138512Y343519D01*
X138535Y343579D01*
X138566Y343635D01*
X138584Y343710D01*
X138611Y343783D01*
X138616Y343847D01*
X138631Y343910D01*
X138627Y343987D01*
X138633Y344064D01*
X138620Y344127D01*
X138617Y344191D01*
X138591Y344264D01*
X138576Y344340D01*
X138545Y344397D01*
X138524Y344458D01*
X138483Y344514D01*
X138443Y344589D01*
X138384Y344650D01*
X138343Y344707D01*
X136499Y346550D01*
X136499Y349450D01*
X137843Y350793D01*
X137862Y350819D01*
X137887Y350840D01*
X137947Y350932D01*
X138012Y351019D01*
X138023Y351049D01*
X138041Y351076D01*
X138073Y351181D01*
X138111Y351283D01*
X138114Y351315D01*
X138123Y351346D01*
X138125Y351455D01*
X138133Y351564D01*
X138127Y351596D01*
X138127Y351628D01*
X138098Y351733D01*
X138076Y351840D01*
X138061Y351869D01*
X138052Y351900D01*
X137995Y351993D01*
X137943Y352089D01*
X137921Y352112D01*
X137904Y352140D01*
X137823Y352213D01*
X137746Y352291D01*
X137718Y352307D01*
X137694Y352329D01*
X137596Y352376D01*
X137501Y352430D01*
X137470Y352438D01*
X137441Y352452D01*
X137351Y352466D01*
X137328Y352471D01*
X135249Y354550D01*
X135249Y357450D01*
X137300Y359501D01*
X140200Y359501D01*
X142251Y357450D01*
X142251Y354550D01*
X140907Y353207D01*
X140888Y353181D01*
X140863Y353160D01*
X140803Y353068D01*
X140738Y352981D01*
X140727Y352951D01*
X140709Y352924D01*
X140677Y352819D01*
X140639Y352717D01*
X140636Y352685D01*
X140627Y352654D01*
X140625Y352545D01*
X140617Y352436D01*
X140623Y352404D01*
X140623Y352372D01*
X140652Y352267D01*
X140674Y352160D01*
X140689Y352131D01*
X140698Y352100D01*
X140755Y352007D01*
X140807Y351911D01*
X140829Y351888D01*
X140846Y351860D01*
X140927Y351787D01*
X141004Y351709D01*
X141032Y351693D01*
X141056Y351671D01*
X141154Y351624D01*
X141249Y351570D01*
X141280Y351562D01*
X141309Y351548D01*
X141399Y351534D01*
X141422Y351529D01*
X143293Y349657D01*
X143345Y349619D01*
X143390Y349573D01*
X143457Y349535D01*
X143519Y349488D01*
X143579Y349465D01*
X143635Y349434D01*
X143710Y349416D01*
X143783Y349389D01*
X143847Y349384D01*
X143909Y349369D01*
X143987Y349373D01*
X144064Y349367D01*
X144127Y349380D01*
X144191Y349383D01*
X144264Y349409D01*
X144340Y349424D01*
X144397Y349455D01*
X144458Y349476D01*
X144514Y349517D01*
X144589Y349557D01*
X144650Y349616D01*
X144707Y349657D01*
X144800Y349751D01*
X147700Y349751D01*
X149751Y347700D01*
X149751Y344800D01*
X147700Y342749D01*
X144500Y342749D01*
X144436Y342740D01*
X144372Y342741D01*
X144297Y342720D01*
X144221Y342709D01*
X144162Y342683D01*
X144100Y342666D01*
X144034Y342625D01*
X143964Y342593D01*
X143915Y342551D01*
X143860Y342518D01*
X143808Y342460D01*
X143750Y342410D01*
X143714Y342356D01*
X143671Y342308D01*
X143638Y342239D01*
X143595Y342174D01*
X143576Y342112D01*
X143548Y342055D01*
X143537Y341985D01*
X143513Y341904D01*
X143512Y341819D01*
X143501Y341750D01*
X143501Y338550D01*
X141450Y336499D01*
X138550Y336499D01*
G37*
%LPD*%
%LPC*%
G36*
X82550Y112499D02*
X82550Y112499D01*
X80499Y114550D01*
X80499Y117450D01*
X82343Y119293D01*
X82381Y119345D01*
X82427Y119390D01*
X82465Y119457D01*
X82512Y119519D01*
X82535Y119579D01*
X82566Y119635D01*
X82584Y119710D01*
X82611Y119783D01*
X82616Y119847D01*
X82631Y119909D01*
X82627Y119987D01*
X82633Y120064D01*
X82620Y120127D01*
X82617Y120191D01*
X82591Y120264D01*
X82576Y120340D01*
X82545Y120397D01*
X82524Y120458D01*
X82483Y120514D01*
X82443Y120589D01*
X82384Y120650D01*
X82343Y120707D01*
X80499Y122550D01*
X80499Y125450D01*
X82550Y127501D01*
X85450Y127501D01*
X87293Y125657D01*
X87345Y125619D01*
X87390Y125573D01*
X87457Y125535D01*
X87519Y125488D01*
X87579Y125465D01*
X87635Y125434D01*
X87710Y125416D01*
X87783Y125389D01*
X87847Y125384D01*
X87909Y125369D01*
X87987Y125373D01*
X88064Y125367D01*
X88127Y125380D01*
X88191Y125383D01*
X88264Y125409D01*
X88340Y125424D01*
X88397Y125455D01*
X88458Y125476D01*
X88514Y125517D01*
X88589Y125557D01*
X88650Y125616D01*
X88707Y125657D01*
X90343Y127293D01*
X90381Y127345D01*
X90427Y127390D01*
X90465Y127457D01*
X90512Y127519D01*
X90535Y127579D01*
X90566Y127635D01*
X90584Y127710D01*
X90611Y127783D01*
X90616Y127847D01*
X90631Y127909D01*
X90627Y127987D01*
X90633Y128064D01*
X90620Y128127D01*
X90617Y128191D01*
X90591Y128264D01*
X90576Y128340D01*
X90545Y128397D01*
X90524Y128458D01*
X90483Y128514D01*
X90443Y128589D01*
X90384Y128650D01*
X90343Y128707D01*
X88499Y130550D01*
X88499Y133450D01*
X90550Y135501D01*
X93450Y135501D01*
X95501Y133450D01*
X95501Y130550D01*
X93657Y128707D01*
X93619Y128655D01*
X93573Y128610D01*
X93535Y128543D01*
X93488Y128481D01*
X93465Y128421D01*
X93434Y128365D01*
X93416Y128290D01*
X93389Y128217D01*
X93384Y128153D01*
X93369Y128090D01*
X93373Y128013D01*
X93367Y127936D01*
X93380Y127873D01*
X93383Y127809D01*
X93409Y127736D01*
X93424Y127660D01*
X93455Y127603D01*
X93476Y127542D01*
X93517Y127486D01*
X93557Y127411D01*
X93616Y127350D01*
X93657Y127293D01*
X95501Y125450D01*
X95501Y122550D01*
X93450Y120499D01*
X90550Y120499D01*
X88707Y122343D01*
X88655Y122381D01*
X88610Y122427D01*
X88543Y122465D01*
X88481Y122512D01*
X88421Y122535D01*
X88365Y122566D01*
X88290Y122584D01*
X88217Y122611D01*
X88153Y122616D01*
X88091Y122631D01*
X88013Y122627D01*
X87936Y122633D01*
X87873Y122620D01*
X87809Y122617D01*
X87736Y122591D01*
X87660Y122576D01*
X87603Y122545D01*
X87542Y122524D01*
X87486Y122483D01*
X87411Y122443D01*
X87350Y122384D01*
X87293Y122343D01*
X85657Y120707D01*
X85619Y120655D01*
X85573Y120610D01*
X85535Y120543D01*
X85488Y120481D01*
X85465Y120421D01*
X85434Y120365D01*
X85416Y120290D01*
X85389Y120217D01*
X85384Y120153D01*
X85369Y120090D01*
X85373Y120013D01*
X85367Y119936D01*
X85380Y119873D01*
X85383Y119809D01*
X85409Y119736D01*
X85424Y119660D01*
X85455Y119603D01*
X85476Y119542D01*
X85517Y119486D01*
X85557Y119411D01*
X85616Y119350D01*
X85657Y119293D01*
X87501Y117450D01*
X87501Y114550D01*
X85450Y112499D01*
X82550Y112499D01*
G37*
%LPD*%
%LPC*%
G36*
X130550Y280499D02*
X130550Y280499D01*
X128499Y282550D01*
X128499Y285450D01*
X130343Y287293D01*
X130381Y287345D01*
X130427Y287390D01*
X130465Y287457D01*
X130512Y287519D01*
X130535Y287579D01*
X130566Y287635D01*
X130584Y287710D01*
X130611Y287783D01*
X130616Y287847D01*
X130631Y287910D01*
X130627Y287987D01*
X130633Y288064D01*
X130620Y288127D01*
X130617Y288191D01*
X130591Y288264D01*
X130576Y288340D01*
X130545Y288397D01*
X130524Y288458D01*
X130483Y288514D01*
X130443Y288589D01*
X130384Y288650D01*
X130343Y288707D01*
X128499Y290550D01*
X128499Y293450D01*
X130343Y295293D01*
X130381Y295345D01*
X130427Y295390D01*
X130465Y295457D01*
X130512Y295519D01*
X130535Y295579D01*
X130566Y295635D01*
X130584Y295710D01*
X130611Y295783D01*
X130616Y295847D01*
X130631Y295910D01*
X130627Y295987D01*
X130633Y296064D01*
X130620Y296127D01*
X130617Y296191D01*
X130591Y296264D01*
X130576Y296340D01*
X130545Y296397D01*
X130524Y296458D01*
X130483Y296514D01*
X130443Y296589D01*
X130384Y296650D01*
X130343Y296707D01*
X128499Y298550D01*
X128499Y301450D01*
X130343Y303293D01*
X130381Y303345D01*
X130427Y303390D01*
X130465Y303457D01*
X130512Y303519D01*
X130535Y303579D01*
X130566Y303635D01*
X130584Y303710D01*
X130611Y303783D01*
X130616Y303847D01*
X130631Y303910D01*
X130627Y303987D01*
X130633Y304064D01*
X130620Y304127D01*
X130617Y304191D01*
X130591Y304264D01*
X130576Y304340D01*
X130545Y304397D01*
X130524Y304458D01*
X130483Y304514D01*
X130443Y304589D01*
X130384Y304650D01*
X130343Y304707D01*
X128499Y306550D01*
X128499Y309450D01*
X130550Y311501D01*
X133450Y311501D01*
X135501Y309450D01*
X135501Y306550D01*
X133657Y304707D01*
X133619Y304655D01*
X133573Y304610D01*
X133535Y304543D01*
X133488Y304481D01*
X133465Y304421D01*
X133434Y304365D01*
X133416Y304290D01*
X133389Y304217D01*
X133384Y304153D01*
X133369Y304091D01*
X133373Y304013D01*
X133367Y303936D01*
X133380Y303873D01*
X133383Y303809D01*
X133409Y303736D01*
X133424Y303660D01*
X133455Y303603D01*
X133476Y303542D01*
X133517Y303486D01*
X133557Y303411D01*
X133616Y303350D01*
X133657Y303293D01*
X135501Y301450D01*
X135501Y298550D01*
X133657Y296707D01*
X133619Y296655D01*
X133573Y296610D01*
X133535Y296543D01*
X133488Y296481D01*
X133465Y296421D01*
X133434Y296365D01*
X133416Y296290D01*
X133389Y296217D01*
X133384Y296153D01*
X133369Y296091D01*
X133373Y296013D01*
X133367Y295936D01*
X133380Y295873D01*
X133383Y295809D01*
X133409Y295736D01*
X133424Y295660D01*
X133455Y295603D01*
X133476Y295542D01*
X133517Y295486D01*
X133557Y295411D01*
X133616Y295350D01*
X133657Y295293D01*
X135501Y293450D01*
X135501Y290550D01*
X133657Y288707D01*
X133619Y288655D01*
X133573Y288610D01*
X133535Y288543D01*
X133488Y288481D01*
X133465Y288421D01*
X133434Y288365D01*
X133416Y288290D01*
X133389Y288217D01*
X133384Y288153D01*
X133369Y288091D01*
X133373Y288013D01*
X133367Y287936D01*
X133380Y287873D01*
X133383Y287809D01*
X133409Y287736D01*
X133424Y287660D01*
X133455Y287603D01*
X133476Y287542D01*
X133517Y287486D01*
X133557Y287411D01*
X133616Y287350D01*
X133657Y287293D01*
X135501Y285450D01*
X135501Y282550D01*
X133450Y280499D01*
X130550Y280499D01*
G37*
%LPD*%
%LPC*%
G36*
X74550Y288499D02*
X74550Y288499D01*
X72499Y290550D01*
X72499Y293450D01*
X74343Y295293D01*
X74381Y295345D01*
X74427Y295390D01*
X74465Y295457D01*
X74512Y295519D01*
X74535Y295579D01*
X74566Y295635D01*
X74584Y295710D01*
X74611Y295783D01*
X74616Y295847D01*
X74631Y295910D01*
X74627Y295987D01*
X74633Y296064D01*
X74620Y296127D01*
X74617Y296191D01*
X74591Y296264D01*
X74576Y296340D01*
X74545Y296397D01*
X74524Y296458D01*
X74483Y296514D01*
X74443Y296589D01*
X74384Y296650D01*
X74343Y296707D01*
X72707Y298343D01*
X72655Y298381D01*
X72610Y298427D01*
X72543Y298465D01*
X72481Y298512D01*
X72421Y298535D01*
X72365Y298566D01*
X72289Y298584D01*
X72217Y298611D01*
X72153Y298616D01*
X72090Y298631D01*
X72013Y298627D01*
X71936Y298633D01*
X71873Y298620D01*
X71809Y298617D01*
X71736Y298591D01*
X71660Y298576D01*
X71603Y298545D01*
X71542Y298524D01*
X71486Y298483D01*
X71411Y298443D01*
X71350Y298384D01*
X71293Y298343D01*
X69450Y296499D01*
X66550Y296499D01*
X64499Y298550D01*
X64499Y301450D01*
X66550Y303501D01*
X69450Y303501D01*
X71293Y301657D01*
X71345Y301619D01*
X71390Y301573D01*
X71457Y301535D01*
X71519Y301488D01*
X71579Y301465D01*
X71635Y301434D01*
X71710Y301416D01*
X71783Y301389D01*
X71847Y301384D01*
X71909Y301369D01*
X71987Y301373D01*
X72064Y301367D01*
X72127Y301380D01*
X72191Y301383D01*
X72264Y301409D01*
X72340Y301424D01*
X72397Y301454D01*
X72458Y301476D01*
X72514Y301517D01*
X72589Y301557D01*
X72650Y301616D01*
X72707Y301657D01*
X74343Y303293D01*
X74362Y303319D01*
X74387Y303340D01*
X74447Y303432D01*
X74512Y303519D01*
X74523Y303549D01*
X74541Y303576D01*
X74573Y303681D01*
X74611Y303783D01*
X74614Y303815D01*
X74623Y303846D01*
X74625Y303955D01*
X74633Y304064D01*
X74627Y304096D01*
X74627Y304128D01*
X74598Y304233D01*
X74576Y304340D01*
X74561Y304369D01*
X74552Y304400D01*
X74495Y304493D01*
X74443Y304589D01*
X74421Y304612D01*
X74404Y304640D01*
X74323Y304713D01*
X74246Y304791D01*
X74218Y304807D01*
X74194Y304829D01*
X74096Y304876D01*
X74001Y304930D01*
X73970Y304938D01*
X73941Y304952D01*
X73851Y304966D01*
X73727Y304995D01*
X73678Y304993D01*
X73636Y304999D01*
X73300Y304999D01*
X71249Y307050D01*
X71249Y309950D01*
X73300Y312001D01*
X76200Y312001D01*
X78251Y309950D01*
X78251Y307050D01*
X76407Y305207D01*
X76388Y305181D01*
X76363Y305160D01*
X76303Y305068D01*
X76238Y304981D01*
X76227Y304951D01*
X76209Y304924D01*
X76177Y304819D01*
X76139Y304717D01*
X76136Y304685D01*
X76127Y304654D01*
X76125Y304545D01*
X76117Y304436D01*
X76123Y304404D01*
X76123Y304372D01*
X76152Y304267D01*
X76174Y304160D01*
X76189Y304131D01*
X76198Y304100D01*
X76256Y304007D01*
X76307Y303911D01*
X76329Y303888D01*
X76346Y303860D01*
X76427Y303787D01*
X76504Y303709D01*
X76532Y303693D01*
X76556Y303671D01*
X76654Y303624D01*
X76749Y303570D01*
X76780Y303562D01*
X76809Y303548D01*
X76899Y303534D01*
X77023Y303505D01*
X77072Y303507D01*
X77114Y303501D01*
X77450Y303501D01*
X79501Y301450D01*
X79501Y298550D01*
X77657Y296707D01*
X77619Y296655D01*
X77573Y296610D01*
X77535Y296543D01*
X77488Y296481D01*
X77465Y296421D01*
X77434Y296365D01*
X77416Y296290D01*
X77389Y296217D01*
X77384Y296153D01*
X77369Y296091D01*
X77373Y296013D01*
X77367Y295936D01*
X77380Y295873D01*
X77383Y295809D01*
X77409Y295736D01*
X77424Y295660D01*
X77455Y295603D01*
X77476Y295542D01*
X77517Y295486D01*
X77557Y295411D01*
X77616Y295350D01*
X77657Y295293D01*
X79501Y293450D01*
X79501Y290550D01*
X77450Y288499D01*
X74550Y288499D01*
G37*
%LPD*%
%LPC*%
G36*
X212550Y373499D02*
X212550Y373499D01*
X210582Y375468D01*
X210530Y375506D01*
X210485Y375552D01*
X210418Y375590D01*
X210356Y375637D01*
X210296Y375660D01*
X210240Y375691D01*
X210165Y375709D01*
X210092Y375736D01*
X210028Y375741D01*
X209966Y375756D01*
X209888Y375752D01*
X209811Y375758D01*
X209748Y375745D01*
X209684Y375742D01*
X209611Y375716D01*
X209535Y375701D01*
X209478Y375670D01*
X209417Y375649D01*
X209361Y375608D01*
X209286Y375568D01*
X209225Y375509D01*
X209168Y375468D01*
X208950Y375249D01*
X206050Y375249D01*
X204207Y377093D01*
X204181Y377112D01*
X204160Y377137D01*
X204068Y377197D01*
X203981Y377262D01*
X203951Y377273D01*
X203924Y377291D01*
X203819Y377323D01*
X203717Y377361D01*
X203685Y377364D01*
X203654Y377373D01*
X203545Y377375D01*
X203436Y377383D01*
X203404Y377377D01*
X203372Y377377D01*
X203267Y377348D01*
X203160Y377326D01*
X203131Y377311D01*
X203100Y377302D01*
X203007Y377244D01*
X202911Y377193D01*
X202888Y377171D01*
X202860Y377154D01*
X202787Y377073D01*
X202709Y376996D01*
X202693Y376968D01*
X202671Y376944D01*
X202624Y376846D01*
X202570Y376751D01*
X202562Y376720D01*
X202548Y376691D01*
X202534Y376601D01*
X202529Y376578D01*
X200450Y374499D01*
X197550Y374499D01*
X195499Y376550D01*
X195499Y379450D01*
X197550Y381501D01*
X200450Y381501D01*
X202293Y379657D01*
X202319Y379638D01*
X202340Y379613D01*
X202432Y379553D01*
X202519Y379488D01*
X202549Y379477D01*
X202576Y379459D01*
X202681Y379427D01*
X202783Y379389D01*
X202815Y379386D01*
X202846Y379377D01*
X202955Y379375D01*
X203064Y379367D01*
X203096Y379373D01*
X203128Y379373D01*
X203233Y379402D01*
X203340Y379424D01*
X203369Y379439D01*
X203400Y379448D01*
X203493Y379506D01*
X203589Y379557D01*
X203612Y379579D01*
X203640Y379596D01*
X203713Y379677D01*
X203791Y379754D01*
X203807Y379782D01*
X203829Y379806D01*
X203876Y379904D01*
X203930Y379999D01*
X203938Y380030D01*
X203952Y380059D01*
X203966Y380149D01*
X203971Y380172D01*
X206050Y382251D01*
X208950Y382251D01*
X210918Y380282D01*
X210970Y380244D01*
X211015Y380198D01*
X211082Y380160D01*
X211144Y380113D01*
X211204Y380090D01*
X211260Y380059D01*
X211335Y380041D01*
X211408Y380014D01*
X211472Y380009D01*
X211535Y379994D01*
X211612Y379998D01*
X211689Y379992D01*
X211752Y380005D01*
X211816Y380008D01*
X211889Y380034D01*
X211965Y380049D01*
X212022Y380080D01*
X212083Y380101D01*
X212139Y380142D01*
X212214Y380182D01*
X212275Y380241D01*
X212332Y380282D01*
X212550Y380501D01*
X215136Y380501D01*
X215168Y380505D01*
X215200Y380503D01*
X215307Y380525D01*
X215415Y380541D01*
X215445Y380554D01*
X215476Y380560D01*
X215573Y380612D01*
X215672Y380657D01*
X215697Y380678D01*
X215725Y380693D01*
X215803Y380769D01*
X215887Y380840D01*
X215904Y380867D01*
X215927Y380890D01*
X215981Y380985D01*
X216041Y381076D01*
X216050Y381107D01*
X216066Y381135D01*
X216092Y381241D01*
X216123Y381346D01*
X216124Y381378D01*
X216131Y381409D01*
X216126Y381519D01*
X216127Y381628D01*
X216119Y381659D01*
X216117Y381691D01*
X216081Y381794D01*
X216052Y381900D01*
X216035Y381927D01*
X216024Y381958D01*
X215971Y382031D01*
X215904Y382140D01*
X215868Y382172D01*
X215843Y382207D01*
X214499Y383550D01*
X214499Y386450D01*
X216550Y388501D01*
X219450Y388501D01*
X221501Y386450D01*
X221501Y383550D01*
X219450Y381499D01*
X216864Y381499D01*
X216832Y381495D01*
X216800Y381497D01*
X216693Y381475D01*
X216585Y381459D01*
X216555Y381446D01*
X216524Y381440D01*
X216427Y381388D01*
X216328Y381343D01*
X216303Y381322D01*
X216275Y381307D01*
X216197Y381231D01*
X216113Y381160D01*
X216096Y381133D01*
X216073Y381110D01*
X216019Y381015D01*
X215959Y380924D01*
X215950Y380893D01*
X215934Y380865D01*
X215908Y380759D01*
X215877Y380654D01*
X215876Y380622D01*
X215869Y380591D01*
X215874Y380481D01*
X215873Y380372D01*
X215881Y380341D01*
X215883Y380309D01*
X215919Y380206D01*
X215948Y380100D01*
X215965Y380073D01*
X215976Y380042D01*
X216029Y379969D01*
X216096Y379860D01*
X216132Y379828D01*
X216157Y379793D01*
X217501Y378450D01*
X217501Y375550D01*
X215450Y373499D01*
X212550Y373499D01*
G37*
%LPD*%
%LPC*%
G36*
X172550Y49999D02*
X172550Y49999D01*
X170499Y52050D01*
X170499Y54950D01*
X171343Y55793D01*
X171381Y55845D01*
X171427Y55890D01*
X171465Y55957D01*
X171512Y56019D01*
X171535Y56079D01*
X171566Y56135D01*
X171584Y56210D01*
X171611Y56283D01*
X171616Y56347D01*
X171631Y56409D01*
X171627Y56487D01*
X171633Y56564D01*
X171620Y56627D01*
X171617Y56691D01*
X171591Y56764D01*
X171576Y56840D01*
X171545Y56897D01*
X171524Y56958D01*
X171483Y57014D01*
X171443Y57089D01*
X171384Y57150D01*
X171343Y57207D01*
X170499Y58050D01*
X170499Y60950D01*
X172550Y63001D01*
X173136Y63001D01*
X173168Y63005D01*
X173200Y63003D01*
X173307Y63025D01*
X173415Y63041D01*
X173445Y63054D01*
X173476Y63060D01*
X173573Y63112D01*
X173672Y63157D01*
X173697Y63178D01*
X173725Y63193D01*
X173803Y63269D01*
X173887Y63340D01*
X173904Y63367D01*
X173927Y63390D01*
X173981Y63485D01*
X174041Y63576D01*
X174050Y63607D01*
X174066Y63635D01*
X174092Y63741D01*
X174123Y63846D01*
X174124Y63878D01*
X174131Y63909D01*
X174126Y64019D01*
X174127Y64128D01*
X174119Y64159D01*
X174117Y64191D01*
X174081Y64294D01*
X174052Y64400D01*
X174035Y64427D01*
X174024Y64458D01*
X173971Y64531D01*
X173904Y64640D01*
X173868Y64672D01*
X173843Y64707D01*
X172499Y66050D01*
X172499Y68950D01*
X174218Y70668D01*
X174237Y70694D01*
X174262Y70715D01*
X174322Y70807D01*
X174387Y70894D01*
X174398Y70924D01*
X174416Y70951D01*
X174448Y71056D01*
X174486Y71158D01*
X174489Y71190D01*
X174498Y71221D01*
X174500Y71330D01*
X174508Y71439D01*
X174502Y71471D01*
X174502Y71503D01*
X174473Y71608D01*
X174451Y71715D01*
X174436Y71744D01*
X174427Y71775D01*
X174369Y71868D01*
X174318Y71964D01*
X174296Y71987D01*
X174279Y72015D01*
X174198Y72088D01*
X174121Y72166D01*
X174093Y72182D01*
X174069Y72204D01*
X173971Y72251D01*
X173876Y72305D01*
X173845Y72313D01*
X173816Y72327D01*
X173726Y72341D01*
X173703Y72346D01*
X171624Y74425D01*
X171624Y77325D01*
X173675Y79376D01*
X176575Y79376D01*
X178626Y77325D01*
X178626Y74425D01*
X176907Y72707D01*
X176888Y72681D01*
X176863Y72660D01*
X176803Y72568D01*
X176738Y72481D01*
X176727Y72451D01*
X176709Y72424D01*
X176677Y72319D01*
X176639Y72217D01*
X176636Y72185D01*
X176627Y72154D01*
X176625Y72045D01*
X176617Y71936D01*
X176623Y71904D01*
X176623Y71872D01*
X176652Y71767D01*
X176674Y71660D01*
X176689Y71631D01*
X176698Y71600D01*
X176756Y71507D01*
X176807Y71411D01*
X176829Y71388D01*
X176846Y71360D01*
X176927Y71287D01*
X177004Y71209D01*
X177032Y71193D01*
X177056Y71171D01*
X177154Y71124D01*
X177249Y71070D01*
X177280Y71062D01*
X177309Y71048D01*
X177399Y71034D01*
X177422Y71029D01*
X179501Y68950D01*
X179501Y66050D01*
X177450Y63999D01*
X176864Y63999D01*
X176832Y63995D01*
X176800Y63997D01*
X176693Y63975D01*
X176585Y63959D01*
X176555Y63946D01*
X176524Y63940D01*
X176427Y63888D01*
X176328Y63843D01*
X176303Y63822D01*
X176275Y63807D01*
X176197Y63731D01*
X176113Y63660D01*
X176096Y63633D01*
X176073Y63610D01*
X176019Y63515D01*
X175959Y63424D01*
X175950Y63393D01*
X175934Y63365D01*
X175908Y63259D01*
X175877Y63154D01*
X175876Y63122D01*
X175869Y63091D01*
X175874Y62981D01*
X175873Y62872D01*
X175881Y62841D01*
X175883Y62809D01*
X175919Y62706D01*
X175948Y62600D01*
X175965Y62573D01*
X175976Y62542D01*
X176029Y62469D01*
X176096Y62360D01*
X176132Y62328D01*
X176157Y62293D01*
X177501Y60950D01*
X177501Y58050D01*
X176657Y57207D01*
X176619Y57155D01*
X176573Y57110D01*
X176535Y57043D01*
X176488Y56981D01*
X176465Y56921D01*
X176434Y56865D01*
X176416Y56790D01*
X176389Y56717D01*
X176384Y56653D01*
X176369Y56590D01*
X176373Y56513D01*
X176367Y56436D01*
X176380Y56373D01*
X176383Y56309D01*
X176409Y56236D01*
X176424Y56160D01*
X176455Y56103D01*
X176476Y56042D01*
X176517Y55986D01*
X176557Y55911D01*
X176616Y55850D01*
X176628Y55834D01*
X176636Y55821D01*
X176640Y55817D01*
X176657Y55793D01*
X177501Y54950D01*
X177501Y52050D01*
X175450Y49999D01*
X172550Y49999D01*
G37*
%LPD*%
%LPC*%
G36*
X173550Y387499D02*
X173550Y387499D01*
X171499Y389550D01*
X171499Y392450D01*
X172843Y393793D01*
X172881Y393845D01*
X172927Y393890D01*
X172965Y393957D01*
X173012Y394019D01*
X173035Y394079D01*
X173066Y394135D01*
X173084Y394210D01*
X173111Y394283D01*
X173116Y394347D01*
X173131Y394409D01*
X173127Y394487D01*
X173133Y394564D01*
X173120Y394627D01*
X173117Y394691D01*
X173091Y394764D01*
X173076Y394840D01*
X173045Y394897D01*
X173024Y394958D01*
X172983Y395014D01*
X172943Y395089D01*
X172884Y395150D01*
X172843Y395207D01*
X171499Y396550D01*
X171499Y399450D01*
X172843Y400793D01*
X172881Y400845D01*
X172927Y400890D01*
X172965Y400957D01*
X173012Y401019D01*
X173035Y401079D01*
X173066Y401135D01*
X173084Y401210D01*
X173111Y401283D01*
X173116Y401347D01*
X173131Y401409D01*
X173127Y401487D01*
X173133Y401564D01*
X173120Y401627D01*
X173117Y401691D01*
X173091Y401764D01*
X173076Y401840D01*
X173045Y401897D01*
X173024Y401958D01*
X172983Y402014D01*
X172943Y402089D01*
X172884Y402150D01*
X172843Y402207D01*
X171499Y403550D01*
X171499Y406450D01*
X172843Y407793D01*
X172881Y407845D01*
X172927Y407890D01*
X172965Y407957D01*
X173012Y408019D01*
X173035Y408079D01*
X173066Y408135D01*
X173084Y408210D01*
X173111Y408283D01*
X173116Y408347D01*
X173131Y408410D01*
X173127Y408487D01*
X173133Y408564D01*
X173120Y408627D01*
X173117Y408691D01*
X173091Y408764D01*
X173076Y408840D01*
X173045Y408897D01*
X173024Y408958D01*
X172983Y409014D01*
X172943Y409089D01*
X172884Y409150D01*
X172843Y409207D01*
X171499Y410550D01*
X171499Y413450D01*
X173550Y415501D01*
X176450Y415501D01*
X178501Y413450D01*
X178501Y410550D01*
X177157Y409207D01*
X177119Y409155D01*
X177073Y409110D01*
X177035Y409043D01*
X176988Y408981D01*
X176965Y408921D01*
X176934Y408865D01*
X176916Y408790D01*
X176889Y408717D01*
X176884Y408653D01*
X176869Y408591D01*
X176873Y408513D01*
X176867Y408436D01*
X176880Y408373D01*
X176883Y408309D01*
X176909Y408236D01*
X176924Y408160D01*
X176955Y408103D01*
X176976Y408042D01*
X177017Y407986D01*
X177057Y407911D01*
X177116Y407850D01*
X177157Y407793D01*
X178501Y406450D01*
X178501Y403550D01*
X177157Y402207D01*
X177119Y402155D01*
X177073Y402110D01*
X177035Y402043D01*
X176988Y401981D01*
X176965Y401921D01*
X176934Y401865D01*
X176916Y401790D01*
X176889Y401717D01*
X176884Y401653D01*
X176869Y401590D01*
X176873Y401513D01*
X176867Y401436D01*
X176880Y401373D01*
X176883Y401309D01*
X176909Y401236D01*
X176924Y401160D01*
X176955Y401103D01*
X176976Y401042D01*
X177017Y400986D01*
X177057Y400911D01*
X177116Y400850D01*
X177157Y400793D01*
X178501Y399450D01*
X178501Y396550D01*
X177157Y395207D01*
X177119Y395155D01*
X177073Y395110D01*
X177035Y395043D01*
X176988Y394981D01*
X176965Y394921D01*
X176934Y394865D01*
X176916Y394790D01*
X176889Y394717D01*
X176884Y394653D01*
X176869Y394590D01*
X176873Y394513D01*
X176867Y394436D01*
X176880Y394373D01*
X176883Y394309D01*
X176909Y394236D01*
X176924Y394160D01*
X176955Y394103D01*
X176976Y394042D01*
X177017Y393986D01*
X177057Y393911D01*
X177116Y393850D01*
X177157Y393793D01*
X178501Y392450D01*
X178501Y389550D01*
X176450Y387499D01*
X173550Y387499D01*
G37*
%LPD*%
%LPC*%
G36*
X111107Y472749D02*
X111107Y472749D01*
X108534Y473815D01*
X106565Y475784D01*
X105499Y478357D01*
X105499Y481143D01*
X106565Y483716D01*
X108534Y485685D01*
X111107Y486751D01*
X113893Y486751D01*
X116466Y485685D01*
X118435Y483716D01*
X119501Y481143D01*
X119501Y478357D01*
X118435Y475784D01*
X116466Y473815D01*
X113893Y472749D01*
X111107Y472749D01*
G37*
%LPD*%
%LPC*%
G36*
X165107Y452749D02*
X165107Y452749D01*
X162534Y453815D01*
X160565Y455784D01*
X159499Y458357D01*
X159499Y461143D01*
X160565Y463716D01*
X162534Y465685D01*
X165107Y466751D01*
X167893Y466751D01*
X170466Y465685D01*
X172435Y463716D01*
X173501Y461143D01*
X173501Y458357D01*
X172435Y455784D01*
X170466Y453815D01*
X167893Y452749D01*
X165107Y452749D01*
G37*
%LPD*%
%LPC*%
G36*
X146107Y472749D02*
X146107Y472749D01*
X143534Y473815D01*
X141565Y475784D01*
X140499Y478357D01*
X140499Y481143D01*
X141565Y483716D01*
X143534Y485685D01*
X146107Y486751D01*
X148893Y486751D01*
X151466Y485685D01*
X153435Y483716D01*
X154501Y481143D01*
X154501Y478357D01*
X153435Y475784D01*
X151466Y473815D01*
X148893Y472749D01*
X146107Y472749D01*
G37*
%LPD*%
%LPC*%
G36*
X92107Y505749D02*
X92107Y505749D01*
X89534Y506815D01*
X87565Y508784D01*
X86499Y511357D01*
X86499Y514143D01*
X87565Y516716D01*
X89534Y518685D01*
X92107Y519751D01*
X94893Y519751D01*
X97466Y518685D01*
X99435Y516716D01*
X100501Y514143D01*
X100501Y511357D01*
X99435Y508784D01*
X97466Y506815D01*
X94893Y505749D01*
X92107Y505749D01*
G37*
%LPD*%
%LPC*%
G36*
X165107Y505749D02*
X165107Y505749D01*
X162534Y506815D01*
X160565Y508784D01*
X159499Y511357D01*
X159499Y514143D01*
X160565Y516716D01*
X162534Y518685D01*
X165107Y519751D01*
X167893Y519751D01*
X170466Y518685D01*
X172435Y516716D01*
X173501Y514143D01*
X173501Y511357D01*
X172435Y508784D01*
X170466Y506815D01*
X167893Y505749D01*
X165107Y505749D01*
G37*
%LPD*%
%LPC*%
G36*
X92107Y452749D02*
X92107Y452749D01*
X89534Y453815D01*
X87565Y455784D01*
X86499Y458357D01*
X86499Y461143D01*
X87565Y463716D01*
X89534Y465685D01*
X92107Y466751D01*
X94893Y466751D01*
X97466Y465685D01*
X99435Y463716D01*
X100501Y461143D01*
X100501Y458357D01*
X99435Y455784D01*
X97466Y453815D01*
X94893Y452749D01*
X92107Y452749D01*
G37*
%LPD*%
%LPC*%
G36*
X28550Y118999D02*
X28550Y118999D01*
X26499Y121050D01*
X26499Y123950D01*
X28718Y126168D01*
X28756Y126220D01*
X28802Y126265D01*
X28840Y126332D01*
X28887Y126394D01*
X28910Y126454D01*
X28941Y126510D01*
X28959Y126585D01*
X28986Y126658D01*
X28991Y126722D01*
X29006Y126784D01*
X29002Y126862D01*
X29008Y126939D01*
X28995Y127002D01*
X28992Y127066D01*
X28966Y127139D01*
X28951Y127215D01*
X28920Y127272D01*
X28899Y127333D01*
X28858Y127389D01*
X28818Y127464D01*
X28759Y127525D01*
X28718Y127582D01*
X26499Y129800D01*
X26499Y132700D01*
X27780Y133981D01*
X27819Y134032D01*
X27865Y134077D01*
X27903Y134145D01*
X27949Y134206D01*
X27972Y134267D01*
X28004Y134323D01*
X28022Y134398D01*
X28049Y134470D01*
X28054Y134534D01*
X28069Y134597D01*
X28065Y134674D01*
X28071Y134752D01*
X28058Y134814D01*
X28054Y134879D01*
X28029Y134952D01*
X28013Y135028D01*
X27983Y135084D01*
X27962Y135145D01*
X27921Y135202D01*
X27881Y135277D01*
X27821Y135337D01*
X27780Y135394D01*
X25874Y137300D01*
X25874Y140200D01*
X27925Y142251D01*
X30825Y142251D01*
X32876Y140200D01*
X32876Y137300D01*
X31595Y136019D01*
X31556Y135968D01*
X31510Y135923D01*
X31472Y135855D01*
X31426Y135793D01*
X31403Y135733D01*
X31371Y135677D01*
X31353Y135602D01*
X31326Y135530D01*
X31321Y135466D01*
X31306Y135403D01*
X31310Y135326D01*
X31304Y135248D01*
X31317Y135186D01*
X31321Y135121D01*
X31346Y135048D01*
X31362Y134972D01*
X31392Y134916D01*
X31413Y134855D01*
X31454Y134798D01*
X31494Y134723D01*
X31553Y134663D01*
X31595Y134606D01*
X33501Y132700D01*
X33501Y129800D01*
X31282Y127582D01*
X31244Y127530D01*
X31198Y127485D01*
X31160Y127418D01*
X31113Y127356D01*
X31090Y127296D01*
X31059Y127240D01*
X31041Y127165D01*
X31014Y127092D01*
X31009Y127028D01*
X30994Y126965D01*
X30998Y126888D01*
X30992Y126811D01*
X31005Y126748D01*
X31008Y126684D01*
X31034Y126611D01*
X31049Y126535D01*
X31080Y126478D01*
X31101Y126417D01*
X31142Y126361D01*
X31182Y126286D01*
X31241Y126225D01*
X31282Y126168D01*
X33501Y123950D01*
X33501Y121050D01*
X31450Y118999D01*
X28550Y118999D01*
G37*
%LPD*%
%LPC*%
G36*
X192550Y86499D02*
X192550Y86499D01*
X190499Y88550D01*
X190499Y91450D01*
X190843Y91793D01*
X190862Y91819D01*
X190887Y91840D01*
X190946Y91932D01*
X191012Y92019D01*
X191023Y92049D01*
X191041Y92076D01*
X191073Y92181D01*
X191111Y92283D01*
X191114Y92315D01*
X191123Y92346D01*
X191125Y92455D01*
X191133Y92564D01*
X191127Y92596D01*
X191127Y92628D01*
X191098Y92733D01*
X191076Y92840D01*
X191061Y92869D01*
X191052Y92900D01*
X190995Y92993D01*
X190943Y93089D01*
X190921Y93112D01*
X190904Y93140D01*
X190823Y93213D01*
X190746Y93291D01*
X190718Y93307D01*
X190694Y93329D01*
X190596Y93376D01*
X190501Y93430D01*
X190470Y93438D01*
X190441Y93452D01*
X190351Y93466D01*
X190227Y93495D01*
X190178Y93493D01*
X190136Y93499D01*
X187550Y93499D01*
X185207Y95843D01*
X185181Y95862D01*
X185160Y95887D01*
X185133Y95904D01*
X185110Y95927D01*
X185043Y95966D01*
X184981Y96012D01*
X184951Y96023D01*
X184924Y96041D01*
X184893Y96050D01*
X184865Y96066D01*
X184789Y96084D01*
X184717Y96111D01*
X184685Y96114D01*
X184654Y96123D01*
X184622Y96124D01*
X184591Y96131D01*
X184513Y96127D01*
X184436Y96133D01*
X184405Y96127D01*
X184372Y96127D01*
X184341Y96119D01*
X184309Y96117D01*
X184235Y96091D01*
X184160Y96076D01*
X184132Y96061D01*
X184100Y96052D01*
X184073Y96035D01*
X184042Y96024D01*
X183985Y95983D01*
X183911Y95943D01*
X183888Y95921D01*
X183860Y95904D01*
X183828Y95868D01*
X183793Y95843D01*
X182450Y94499D01*
X179550Y94499D01*
X177499Y96550D01*
X177499Y99450D01*
X179550Y101501D01*
X182450Y101501D01*
X184793Y99157D01*
X184819Y99138D01*
X184840Y99113D01*
X184867Y99096D01*
X184890Y99073D01*
X184957Y99034D01*
X185019Y98988D01*
X185049Y98977D01*
X185076Y98959D01*
X185107Y98950D01*
X185135Y98934D01*
X185211Y98916D01*
X185283Y98889D01*
X185315Y98886D01*
X185346Y98877D01*
X185378Y98876D01*
X185409Y98869D01*
X185487Y98873D01*
X185564Y98867D01*
X185595Y98873D01*
X185628Y98873D01*
X185659Y98881D01*
X185691Y98883D01*
X185765Y98909D01*
X185840Y98924D01*
X185868Y98939D01*
X185900Y98948D01*
X185927Y98965D01*
X185958Y98976D01*
X186015Y99017D01*
X186089Y99057D01*
X186112Y99079D01*
X186140Y99096D01*
X186172Y99132D01*
X186207Y99157D01*
X187550Y100501D01*
X190450Y100501D01*
X192501Y98450D01*
X192501Y95550D01*
X192157Y95207D01*
X192138Y95181D01*
X192113Y95160D01*
X192053Y95068D01*
X191988Y94981D01*
X191977Y94951D01*
X191959Y94924D01*
X191927Y94819D01*
X191889Y94717D01*
X191886Y94685D01*
X191877Y94654D01*
X191875Y94545D01*
X191867Y94436D01*
X191873Y94404D01*
X191873Y94372D01*
X191902Y94267D01*
X191924Y94160D01*
X191939Y94131D01*
X191948Y94100D01*
X192005Y94007D01*
X192057Y93911D01*
X192079Y93888D01*
X192096Y93860D01*
X192177Y93787D01*
X192254Y93709D01*
X192282Y93693D01*
X192306Y93671D01*
X192404Y93624D01*
X192499Y93570D01*
X192530Y93562D01*
X192559Y93548D01*
X192649Y93534D01*
X192773Y93505D01*
X192822Y93507D01*
X192864Y93501D01*
X195450Y93501D01*
X197501Y91450D01*
X197501Y88550D01*
X195450Y86499D01*
X192550Y86499D01*
G37*
%LPD*%
%LPC*%
G36*
X98550Y136499D02*
X98550Y136499D01*
X96499Y138550D01*
X96499Y141450D01*
X98343Y143293D01*
X98381Y143345D01*
X98427Y143390D01*
X98465Y143457D01*
X98512Y143519D01*
X98535Y143579D01*
X98566Y143635D01*
X98584Y143710D01*
X98611Y143783D01*
X98616Y143847D01*
X98631Y143910D01*
X98627Y143987D01*
X98633Y144064D01*
X98620Y144127D01*
X98617Y144191D01*
X98591Y144264D01*
X98576Y144340D01*
X98545Y144397D01*
X98524Y144458D01*
X98483Y144514D01*
X98443Y144589D01*
X98384Y144650D01*
X98343Y144707D01*
X96499Y146550D01*
X96499Y149450D01*
X98550Y151501D01*
X101450Y151501D01*
X103501Y149450D01*
X103501Y146550D01*
X101657Y144707D01*
X101619Y144655D01*
X101573Y144610D01*
X101535Y144543D01*
X101488Y144481D01*
X101465Y144421D01*
X101434Y144365D01*
X101416Y144290D01*
X101389Y144217D01*
X101384Y144153D01*
X101369Y144091D01*
X101373Y144013D01*
X101367Y143936D01*
X101380Y143873D01*
X101383Y143809D01*
X101409Y143736D01*
X101424Y143660D01*
X101455Y143603D01*
X101476Y143542D01*
X101517Y143486D01*
X101557Y143411D01*
X101616Y143350D01*
X101657Y143293D01*
X103293Y141657D01*
X103345Y141619D01*
X103390Y141573D01*
X103457Y141535D01*
X103519Y141488D01*
X103579Y141465D01*
X103635Y141434D01*
X103710Y141416D01*
X103783Y141389D01*
X103847Y141384D01*
X103910Y141369D01*
X103987Y141373D01*
X104064Y141367D01*
X104127Y141380D01*
X104191Y141383D01*
X104264Y141409D01*
X104340Y141424D01*
X104397Y141455D01*
X104458Y141476D01*
X104514Y141517D01*
X104589Y141557D01*
X104650Y141616D01*
X104707Y141657D01*
X106550Y143501D01*
X109450Y143501D01*
X111501Y141450D01*
X111501Y138550D01*
X109450Y136499D01*
X106550Y136499D01*
X104707Y138343D01*
X104655Y138381D01*
X104610Y138427D01*
X104543Y138465D01*
X104481Y138512D01*
X104421Y138535D01*
X104365Y138566D01*
X104290Y138584D01*
X104217Y138611D01*
X104153Y138616D01*
X104091Y138631D01*
X104013Y138627D01*
X103936Y138633D01*
X103873Y138620D01*
X103809Y138617D01*
X103736Y138591D01*
X103660Y138576D01*
X103603Y138545D01*
X103542Y138524D01*
X103486Y138483D01*
X103411Y138443D01*
X103350Y138384D01*
X103293Y138343D01*
X101450Y136499D01*
X98550Y136499D01*
G37*
%LPD*%
%LPC*%
G36*
X106550Y104499D02*
X106550Y104499D01*
X104499Y106550D01*
X104499Y109450D01*
X106550Y111501D01*
X109450Y111501D01*
X111293Y109657D01*
X111345Y109619D01*
X111390Y109573D01*
X111457Y109535D01*
X111519Y109488D01*
X111579Y109465D01*
X111635Y109434D01*
X111710Y109416D01*
X111783Y109389D01*
X111847Y109384D01*
X111909Y109369D01*
X111987Y109373D01*
X112064Y109367D01*
X112127Y109380D01*
X112191Y109383D01*
X112264Y109409D01*
X112340Y109424D01*
X112397Y109455D01*
X112458Y109476D01*
X112514Y109517D01*
X112589Y109557D01*
X112650Y109616D01*
X112707Y109657D01*
X114550Y111501D01*
X117450Y111501D01*
X119293Y109657D01*
X119345Y109619D01*
X119390Y109573D01*
X119457Y109535D01*
X119519Y109488D01*
X119579Y109465D01*
X119635Y109434D01*
X119710Y109416D01*
X119783Y109389D01*
X119847Y109384D01*
X119910Y109369D01*
X119987Y109373D01*
X120064Y109367D01*
X120127Y109380D01*
X120191Y109383D01*
X120264Y109409D01*
X120340Y109424D01*
X120397Y109455D01*
X120458Y109476D01*
X120514Y109517D01*
X120589Y109557D01*
X120650Y109616D01*
X120707Y109657D01*
X122550Y111501D01*
X125450Y111501D01*
X127501Y109450D01*
X127501Y106550D01*
X125450Y104499D01*
X122550Y104499D01*
X120707Y106343D01*
X120655Y106381D01*
X120610Y106427D01*
X120543Y106465D01*
X120481Y106512D01*
X120421Y106535D01*
X120365Y106566D01*
X120290Y106584D01*
X120217Y106611D01*
X120153Y106616D01*
X120091Y106631D01*
X120013Y106627D01*
X119936Y106633D01*
X119873Y106620D01*
X119809Y106617D01*
X119736Y106591D01*
X119660Y106576D01*
X119603Y106545D01*
X119542Y106524D01*
X119486Y106483D01*
X119411Y106443D01*
X119350Y106384D01*
X119293Y106343D01*
X117450Y104499D01*
X114550Y104499D01*
X112707Y106343D01*
X112655Y106381D01*
X112610Y106427D01*
X112543Y106465D01*
X112481Y106512D01*
X112421Y106535D01*
X112365Y106566D01*
X112290Y106584D01*
X112217Y106611D01*
X112153Y106616D01*
X112090Y106631D01*
X112013Y106627D01*
X111936Y106633D01*
X111873Y106620D01*
X111809Y106617D01*
X111736Y106591D01*
X111660Y106576D01*
X111603Y106545D01*
X111542Y106524D01*
X111486Y106483D01*
X111411Y106443D01*
X111350Y106384D01*
X111293Y106343D01*
X109450Y104499D01*
X106550Y104499D01*
G37*
%LPD*%
%LPC*%
G36*
X34550Y301999D02*
X34550Y301999D01*
X32499Y304050D01*
X32499Y306500D01*
X32490Y306564D01*
X32491Y306628D01*
X32470Y306703D01*
X32459Y306779D01*
X32433Y306838D01*
X32416Y306900D01*
X32375Y306966D01*
X32343Y307036D01*
X32301Y307085D01*
X32268Y307140D01*
X32210Y307192D01*
X32160Y307250D01*
X32106Y307286D01*
X32058Y307329D01*
X31989Y307362D01*
X31924Y307405D01*
X31862Y307424D01*
X31805Y307452D01*
X31735Y307463D01*
X31654Y307487D01*
X31569Y307488D01*
X31559Y307490D01*
X29499Y309550D01*
X29499Y312502D01*
X29512Y312519D01*
X29535Y312579D01*
X29566Y312635D01*
X29584Y312710D01*
X29611Y312783D01*
X29616Y312847D01*
X29631Y312909D01*
X29627Y312987D01*
X29633Y313064D01*
X29620Y313127D01*
X29617Y313191D01*
X29591Y313264D01*
X29576Y313340D01*
X29545Y313397D01*
X29524Y313458D01*
X29483Y313514D01*
X29443Y313589D01*
X29384Y313650D01*
X29343Y313707D01*
X27499Y315550D01*
X27499Y318450D01*
X29550Y320501D01*
X32450Y320501D01*
X34501Y318450D01*
X34501Y315498D01*
X34488Y315481D01*
X34465Y315421D01*
X34434Y315365D01*
X34416Y315290D01*
X34389Y315217D01*
X34384Y315153D01*
X34369Y315090D01*
X34373Y315013D01*
X34367Y314936D01*
X34380Y314873D01*
X34383Y314809D01*
X34409Y314736D01*
X34424Y314660D01*
X34455Y314603D01*
X34476Y314542D01*
X34517Y314486D01*
X34557Y314411D01*
X34616Y314350D01*
X34657Y314293D01*
X36501Y312450D01*
X36501Y310000D01*
X36510Y309936D01*
X36509Y309872D01*
X36530Y309797D01*
X36541Y309721D01*
X36567Y309662D01*
X36584Y309600D01*
X36625Y309534D01*
X36657Y309464D01*
X36699Y309415D01*
X36732Y309360D01*
X36790Y309308D01*
X36840Y309250D01*
X36894Y309214D01*
X36942Y309171D01*
X37011Y309138D01*
X37076Y309095D01*
X37138Y309076D01*
X37195Y309048D01*
X37265Y309037D01*
X37346Y309013D01*
X37431Y309012D01*
X37441Y309010D01*
X39501Y306950D01*
X39501Y304050D01*
X37450Y301999D01*
X34550Y301999D01*
G37*
%LPD*%
%LPC*%
G36*
X210550Y170999D02*
X210550Y170999D01*
X208343Y173207D01*
X208266Y173264D01*
X208194Y173329D01*
X208153Y173349D01*
X208117Y173376D01*
X208027Y173410D01*
X207941Y173452D01*
X207899Y173458D01*
X207853Y173475D01*
X207726Y173485D01*
X207636Y173499D01*
X204998Y173499D01*
X204981Y173512D01*
X204921Y173535D01*
X204865Y173566D01*
X204790Y173584D01*
X204717Y173611D01*
X204653Y173616D01*
X204591Y173631D01*
X204513Y173627D01*
X204436Y173633D01*
X204373Y173620D01*
X204309Y173617D01*
X204236Y173591D01*
X204160Y173576D01*
X204103Y173545D01*
X204042Y173524D01*
X203986Y173483D01*
X203911Y173443D01*
X203850Y173384D01*
X203793Y173343D01*
X201950Y171499D01*
X199050Y171499D01*
X196999Y173550D01*
X196999Y176450D01*
X199050Y178501D01*
X202002Y178501D01*
X202019Y178488D01*
X202079Y178465D01*
X202135Y178434D01*
X202175Y178424D01*
X202191Y178416D01*
X202222Y178412D01*
X202283Y178389D01*
X202347Y178384D01*
X202410Y178369D01*
X202475Y178372D01*
X202496Y178369D01*
X202504Y178369D01*
X202516Y178370D01*
X202564Y178367D01*
X202627Y178380D01*
X202691Y178383D01*
X202751Y178404D01*
X202783Y178409D01*
X202799Y178416D01*
X202840Y178424D01*
X202897Y178455D01*
X202958Y178476D01*
X203000Y178507D01*
X203040Y178525D01*
X203059Y178541D01*
X203089Y178557D01*
X203150Y178616D01*
X203207Y178657D01*
X205050Y180501D01*
X207950Y180501D01*
X210157Y178293D01*
X210234Y178236D01*
X210306Y178171D01*
X210347Y178151D01*
X210383Y178124D01*
X210473Y178090D01*
X210559Y178048D01*
X210601Y178042D01*
X210647Y178025D01*
X210774Y178015D01*
X210864Y178001D01*
X213450Y178001D01*
X215501Y175950D01*
X215501Y173050D01*
X213450Y170999D01*
X210550Y170999D01*
G37*
%LPD*%
%LPC*%
G36*
X198550Y65499D02*
X198550Y65499D01*
X196499Y67550D01*
X196499Y68500D01*
X196491Y68559D01*
X196491Y68579D01*
X196490Y68581D01*
X196491Y68628D01*
X196470Y68703D01*
X196459Y68779D01*
X196433Y68838D01*
X196416Y68900D01*
X196375Y68966D01*
X196343Y69036D01*
X196301Y69085D01*
X196268Y69140D01*
X196210Y69192D01*
X196160Y69250D01*
X196106Y69286D01*
X196058Y69329D01*
X195989Y69362D01*
X195924Y69405D01*
X195862Y69424D01*
X195805Y69452D01*
X195735Y69463D01*
X195654Y69487D01*
X195569Y69488D01*
X195500Y69499D01*
X194050Y69499D01*
X191999Y71550D01*
X191999Y74450D01*
X192593Y75043D01*
X192631Y75095D01*
X192677Y75140D01*
X192715Y75207D01*
X192762Y75269D01*
X192785Y75329D01*
X192816Y75385D01*
X192834Y75460D01*
X192861Y75533D01*
X192866Y75597D01*
X192881Y75660D01*
X192877Y75737D01*
X192883Y75814D01*
X192870Y75877D01*
X192867Y75941D01*
X192841Y76014D01*
X192826Y76090D01*
X192795Y76147D01*
X192774Y76208D01*
X192733Y76264D01*
X192693Y76339D01*
X192634Y76400D01*
X192593Y76457D01*
X191499Y77550D01*
X191499Y80450D01*
X193550Y82501D01*
X196450Y82501D01*
X198501Y80450D01*
X198501Y77550D01*
X197907Y76957D01*
X197869Y76905D01*
X197823Y76860D01*
X197785Y76793D01*
X197738Y76731D01*
X197715Y76671D01*
X197684Y76615D01*
X197666Y76540D01*
X197639Y76467D01*
X197634Y76403D01*
X197619Y76341D01*
X197623Y76263D01*
X197617Y76186D01*
X197630Y76123D01*
X197633Y76059D01*
X197659Y75986D01*
X197674Y75910D01*
X197705Y75853D01*
X197726Y75792D01*
X197767Y75736D01*
X197807Y75661D01*
X197866Y75600D01*
X197907Y75543D01*
X199001Y74450D01*
X199001Y73500D01*
X199010Y73436D01*
X199009Y73372D01*
X199030Y73297D01*
X199041Y73221D01*
X199067Y73162D01*
X199084Y73100D01*
X199125Y73034D01*
X199157Y72964D01*
X199199Y72915D01*
X199232Y72860D01*
X199290Y72808D01*
X199340Y72750D01*
X199394Y72714D01*
X199442Y72671D01*
X199511Y72638D01*
X199576Y72595D01*
X199638Y72576D01*
X199695Y72548D01*
X199765Y72537D01*
X199846Y72513D01*
X199931Y72512D01*
X200000Y72501D01*
X201450Y72501D01*
X203501Y70450D01*
X203501Y67550D01*
X201450Y65499D01*
X198550Y65499D01*
G37*
%LPD*%
%LPC*%
G36*
X50550Y198499D02*
X50550Y198499D01*
X48499Y200550D01*
X48499Y203450D01*
X49343Y204293D01*
X49381Y204345D01*
X49427Y204390D01*
X49465Y204457D01*
X49512Y204519D01*
X49535Y204579D01*
X49566Y204635D01*
X49584Y204710D01*
X49611Y204783D01*
X49616Y204847D01*
X49631Y204909D01*
X49627Y204987D01*
X49633Y205064D01*
X49620Y205127D01*
X49617Y205191D01*
X49591Y205264D01*
X49576Y205340D01*
X49545Y205397D01*
X49524Y205458D01*
X49483Y205514D01*
X49443Y205589D01*
X49384Y205650D01*
X49343Y205707D01*
X48499Y206550D01*
X48499Y209450D01*
X49343Y210293D01*
X49381Y210345D01*
X49427Y210390D01*
X49465Y210457D01*
X49512Y210519D01*
X49535Y210579D01*
X49566Y210635D01*
X49584Y210710D01*
X49611Y210783D01*
X49616Y210847D01*
X49631Y210909D01*
X49627Y210987D01*
X49633Y211064D01*
X49620Y211127D01*
X49617Y211191D01*
X49591Y211264D01*
X49576Y211340D01*
X49545Y211397D01*
X49524Y211458D01*
X49483Y211514D01*
X49443Y211589D01*
X49384Y211650D01*
X49343Y211707D01*
X48499Y212550D01*
X48499Y215450D01*
X50550Y217501D01*
X53450Y217501D01*
X55501Y215450D01*
X55501Y212550D01*
X54657Y211707D01*
X54619Y211655D01*
X54573Y211610D01*
X54535Y211543D01*
X54488Y211481D01*
X54465Y211421D01*
X54434Y211365D01*
X54416Y211290D01*
X54389Y211217D01*
X54384Y211153D01*
X54369Y211090D01*
X54373Y211013D01*
X54367Y210936D01*
X54380Y210873D01*
X54383Y210809D01*
X54409Y210736D01*
X54424Y210660D01*
X54455Y210603D01*
X54476Y210542D01*
X54517Y210486D01*
X54557Y210411D01*
X54616Y210350D01*
X54657Y210293D01*
X55501Y209450D01*
X55501Y206550D01*
X54657Y205707D01*
X54619Y205655D01*
X54573Y205610D01*
X54535Y205543D01*
X54488Y205481D01*
X54465Y205421D01*
X54434Y205365D01*
X54416Y205290D01*
X54389Y205217D01*
X54384Y205153D01*
X54369Y205090D01*
X54373Y205013D01*
X54367Y204936D01*
X54380Y204873D01*
X54383Y204809D01*
X54409Y204736D01*
X54424Y204660D01*
X54455Y204603D01*
X54476Y204542D01*
X54517Y204486D01*
X54557Y204411D01*
X54616Y204350D01*
X54657Y204293D01*
X55501Y203450D01*
X55501Y200550D01*
X53450Y198499D01*
X50550Y198499D01*
G37*
%LPD*%
%LPC*%
G36*
X200056Y504999D02*
X200056Y504999D01*
X197851Y505913D01*
X196163Y507601D01*
X195249Y509806D01*
X195249Y512194D01*
X196163Y514399D01*
X197851Y516087D01*
X200056Y517001D01*
X202444Y517001D01*
X204649Y516087D01*
X206337Y514399D01*
X207251Y512194D01*
X207251Y509806D01*
X206337Y507601D01*
X204649Y505913D01*
X202444Y504999D01*
X200056Y504999D01*
G37*
%LPD*%
%LPC*%
G36*
X162550Y84499D02*
X162550Y84499D01*
X160499Y86550D01*
X160499Y89450D01*
X162550Y91501D01*
X165502Y91501D01*
X165519Y91488D01*
X165549Y91477D01*
X165576Y91459D01*
X165681Y91427D01*
X165783Y91389D01*
X165815Y91386D01*
X165846Y91377D01*
X165955Y91375D01*
X166064Y91367D01*
X166096Y91373D01*
X166128Y91373D01*
X166233Y91402D01*
X166340Y91424D01*
X166369Y91439D01*
X166400Y91448D01*
X166493Y91505D01*
X166589Y91557D01*
X166612Y91579D01*
X166640Y91596D01*
X166713Y91677D01*
X166791Y91753D01*
X166807Y91782D01*
X166829Y91806D01*
X166876Y91904D01*
X166930Y91999D01*
X166938Y92030D01*
X166952Y92059D01*
X166966Y92149D01*
X166995Y92273D01*
X166993Y92322D01*
X166999Y92364D01*
X166999Y94450D01*
X169050Y96501D01*
X171950Y96501D01*
X174001Y94450D01*
X174001Y91550D01*
X171950Y89499D01*
X168998Y89499D01*
X168981Y89512D01*
X168951Y89523D01*
X168924Y89541D01*
X168819Y89573D01*
X168717Y89611D01*
X168685Y89614D01*
X168654Y89623D01*
X168545Y89625D01*
X168436Y89633D01*
X168404Y89627D01*
X168372Y89627D01*
X168267Y89598D01*
X168160Y89576D01*
X168131Y89561D01*
X168100Y89552D01*
X168007Y89495D01*
X167911Y89443D01*
X167888Y89421D01*
X167860Y89404D01*
X167787Y89323D01*
X167709Y89247D01*
X167693Y89218D01*
X167671Y89194D01*
X167624Y89096D01*
X167570Y89001D01*
X167562Y88970D01*
X167548Y88941D01*
X167534Y88851D01*
X167505Y88727D01*
X167507Y88678D01*
X167501Y88636D01*
X167501Y86550D01*
X165450Y84499D01*
X162550Y84499D01*
G37*
%LPD*%
%LPC*%
G36*
X196550Y108499D02*
X196550Y108499D01*
X194499Y110550D01*
X194499Y113450D01*
X196343Y115293D01*
X196381Y115345D01*
X196427Y115390D01*
X196465Y115457D01*
X196512Y115519D01*
X196535Y115579D01*
X196566Y115635D01*
X196584Y115710D01*
X196611Y115783D01*
X196616Y115847D01*
X196631Y115910D01*
X196627Y115987D01*
X196633Y116064D01*
X196620Y116127D01*
X196617Y116191D01*
X196591Y116264D01*
X196576Y116340D01*
X196545Y116397D01*
X196524Y116458D01*
X196483Y116514D01*
X196443Y116589D01*
X196384Y116650D01*
X196343Y116707D01*
X194499Y118550D01*
X194499Y121450D01*
X196550Y123501D01*
X199450Y123501D01*
X201501Y121450D01*
X201501Y118550D01*
X199657Y116707D01*
X199619Y116655D01*
X199573Y116610D01*
X199535Y116543D01*
X199488Y116481D01*
X199465Y116421D01*
X199434Y116365D01*
X199416Y116290D01*
X199389Y116217D01*
X199384Y116153D01*
X199369Y116091D01*
X199373Y116013D01*
X199367Y115936D01*
X199380Y115873D01*
X199383Y115809D01*
X199409Y115736D01*
X199424Y115660D01*
X199455Y115603D01*
X199476Y115542D01*
X199517Y115486D01*
X199557Y115411D01*
X199616Y115350D01*
X199657Y115293D01*
X201501Y113450D01*
X201501Y110550D01*
X199450Y108499D01*
X196550Y108499D01*
G37*
%LPD*%
%LPC*%
G36*
X151550Y361499D02*
X151550Y361499D01*
X149499Y363550D01*
X149499Y366450D01*
X151343Y368293D01*
X151381Y368345D01*
X151427Y368390D01*
X151465Y368457D01*
X151512Y368519D01*
X151535Y368579D01*
X151566Y368635D01*
X151584Y368710D01*
X151611Y368783D01*
X151616Y368847D01*
X151631Y368909D01*
X151627Y368987D01*
X151633Y369064D01*
X151620Y369127D01*
X151617Y369191D01*
X151591Y369264D01*
X151576Y369340D01*
X151545Y369397D01*
X151524Y369458D01*
X151483Y369514D01*
X151443Y369589D01*
X151384Y369650D01*
X151343Y369707D01*
X149499Y371550D01*
X149499Y374450D01*
X151550Y376501D01*
X154450Y376501D01*
X156501Y374450D01*
X156501Y371550D01*
X154657Y369707D01*
X154619Y369655D01*
X154573Y369610D01*
X154535Y369543D01*
X154488Y369481D01*
X154465Y369421D01*
X154434Y369365D01*
X154416Y369290D01*
X154389Y369217D01*
X154384Y369153D01*
X154369Y369090D01*
X154373Y369013D01*
X154367Y368936D01*
X154380Y368873D01*
X154383Y368809D01*
X154409Y368736D01*
X154424Y368660D01*
X154455Y368603D01*
X154476Y368542D01*
X154517Y368486D01*
X154557Y368411D01*
X154616Y368350D01*
X154657Y368293D01*
X156501Y366450D01*
X156501Y363550D01*
X154450Y361499D01*
X151550Y361499D01*
G37*
%LPD*%
%LPC*%
G36*
X122550Y128499D02*
X122550Y128499D01*
X120499Y130550D01*
X120499Y133450D01*
X122343Y135293D01*
X122381Y135345D01*
X122427Y135390D01*
X122465Y135457D01*
X122512Y135519D01*
X122535Y135579D01*
X122566Y135635D01*
X122584Y135710D01*
X122611Y135783D01*
X122616Y135847D01*
X122631Y135909D01*
X122627Y135987D01*
X122633Y136064D01*
X122620Y136127D01*
X122617Y136191D01*
X122591Y136264D01*
X122576Y136340D01*
X122545Y136397D01*
X122524Y136458D01*
X122483Y136514D01*
X122443Y136589D01*
X122384Y136650D01*
X122343Y136707D01*
X120499Y138550D01*
X120499Y141450D01*
X122550Y143501D01*
X125450Y143501D01*
X127501Y141450D01*
X127501Y138550D01*
X125657Y136707D01*
X125619Y136655D01*
X125573Y136610D01*
X125535Y136543D01*
X125488Y136481D01*
X125465Y136421D01*
X125434Y136365D01*
X125416Y136290D01*
X125389Y136217D01*
X125384Y136153D01*
X125369Y136090D01*
X125373Y136013D01*
X125367Y135936D01*
X125380Y135873D01*
X125383Y135809D01*
X125409Y135736D01*
X125424Y135660D01*
X125455Y135603D01*
X125476Y135542D01*
X125517Y135486D01*
X125557Y135411D01*
X125616Y135350D01*
X125657Y135293D01*
X127501Y133450D01*
X127501Y130550D01*
X125450Y128499D01*
X122550Y128499D01*
G37*
%LPD*%
%LPC*%
G36*
X114550Y280499D02*
X114550Y280499D01*
X112499Y282550D01*
X112499Y285450D01*
X114343Y287293D01*
X114381Y287345D01*
X114427Y287390D01*
X114465Y287457D01*
X114512Y287519D01*
X114535Y287579D01*
X114566Y287635D01*
X114584Y287710D01*
X114611Y287783D01*
X114616Y287847D01*
X114631Y287910D01*
X114627Y287987D01*
X114633Y288064D01*
X114620Y288127D01*
X114617Y288191D01*
X114591Y288264D01*
X114576Y288340D01*
X114545Y288397D01*
X114524Y288458D01*
X114483Y288514D01*
X114443Y288589D01*
X114384Y288650D01*
X114343Y288707D01*
X112499Y290550D01*
X112499Y293450D01*
X114550Y295501D01*
X117450Y295501D01*
X119501Y293450D01*
X119501Y290550D01*
X117657Y288707D01*
X117619Y288655D01*
X117573Y288610D01*
X117535Y288543D01*
X117488Y288481D01*
X117465Y288421D01*
X117434Y288365D01*
X117416Y288290D01*
X117389Y288217D01*
X117384Y288153D01*
X117369Y288091D01*
X117373Y288013D01*
X117367Y287936D01*
X117380Y287873D01*
X117383Y287809D01*
X117409Y287736D01*
X117424Y287660D01*
X117455Y287603D01*
X117476Y287542D01*
X117517Y287486D01*
X117557Y287411D01*
X117616Y287350D01*
X117657Y287293D01*
X119501Y285450D01*
X119501Y282550D01*
X117450Y280499D01*
X114550Y280499D01*
G37*
%LPD*%
%LPC*%
G36*
X66050Y120999D02*
X66050Y120999D01*
X63999Y123050D01*
X63999Y125950D01*
X65843Y127793D01*
X65881Y127845D01*
X65927Y127890D01*
X65965Y127957D01*
X66012Y128019D01*
X66035Y128079D01*
X66066Y128135D01*
X66084Y128210D01*
X66111Y128283D01*
X66116Y128347D01*
X66131Y128410D01*
X66127Y128487D01*
X66133Y128564D01*
X66120Y128627D01*
X66117Y128691D01*
X66091Y128764D01*
X66076Y128840D01*
X66045Y128897D01*
X66024Y128958D01*
X65983Y129014D01*
X65943Y129089D01*
X65884Y129150D01*
X65843Y129207D01*
X64499Y130550D01*
X64499Y133450D01*
X66550Y135501D01*
X69450Y135501D01*
X71501Y133450D01*
X71501Y130550D01*
X69657Y128707D01*
X69619Y128655D01*
X69573Y128610D01*
X69535Y128543D01*
X69488Y128481D01*
X69465Y128421D01*
X69434Y128365D01*
X69416Y128290D01*
X69389Y128217D01*
X69384Y128153D01*
X69369Y128091D01*
X69373Y128013D01*
X69367Y127936D01*
X69380Y127873D01*
X69383Y127809D01*
X69409Y127736D01*
X69424Y127660D01*
X69455Y127603D01*
X69476Y127542D01*
X69517Y127486D01*
X69557Y127411D01*
X69616Y127350D01*
X69657Y127293D01*
X71001Y125950D01*
X71001Y123050D01*
X68950Y120999D01*
X66050Y120999D01*
G37*
%LPD*%
%LPC*%
G36*
X202825Y225674D02*
X202825Y225674D01*
X201057Y227443D01*
X201005Y227481D01*
X200960Y227527D01*
X200893Y227565D01*
X200831Y227612D01*
X200771Y227635D01*
X200715Y227666D01*
X200640Y227684D01*
X200567Y227711D01*
X200503Y227716D01*
X200440Y227731D01*
X200363Y227727D01*
X200286Y227733D01*
X200223Y227720D01*
X200159Y227717D01*
X200086Y227691D01*
X200010Y227676D01*
X199953Y227645D01*
X199892Y227624D01*
X199836Y227583D01*
X199761Y227543D01*
X199700Y227484D01*
X199643Y227443D01*
X199075Y226874D01*
X196175Y226874D01*
X194124Y228925D01*
X194124Y231825D01*
X196175Y233876D01*
X199075Y233876D01*
X200843Y232107D01*
X200895Y232069D01*
X200940Y232023D01*
X201007Y231985D01*
X201069Y231938D01*
X201129Y231915D01*
X201185Y231884D01*
X201260Y231866D01*
X201333Y231839D01*
X201397Y231834D01*
X201459Y231819D01*
X201537Y231823D01*
X201614Y231817D01*
X201677Y231830D01*
X201741Y231833D01*
X201814Y231859D01*
X201890Y231874D01*
X201947Y231905D01*
X202008Y231926D01*
X202064Y231967D01*
X202139Y232007D01*
X202200Y232066D01*
X202257Y232107D01*
X202825Y232676D01*
X205725Y232676D01*
X207776Y230625D01*
X207776Y227725D01*
X205725Y225674D01*
X202825Y225674D01*
G37*
%LPD*%
%LPC*%
G36*
X223550Y173499D02*
X223550Y173499D01*
X221499Y175550D01*
X221499Y178450D01*
X223343Y180293D01*
X223381Y180345D01*
X223427Y180390D01*
X223465Y180457D01*
X223512Y180519D01*
X223535Y180579D01*
X223566Y180635D01*
X223584Y180710D01*
X223611Y180783D01*
X223616Y180847D01*
X223631Y180909D01*
X223627Y180987D01*
X223633Y181064D01*
X223620Y181127D01*
X223617Y181191D01*
X223591Y181264D01*
X223576Y181340D01*
X223545Y181397D01*
X223524Y181458D01*
X223499Y181492D01*
X223499Y184450D01*
X225550Y186501D01*
X228450Y186501D01*
X230501Y184450D01*
X230501Y181550D01*
X228657Y179707D01*
X228619Y179655D01*
X228573Y179610D01*
X228535Y179543D01*
X228488Y179481D01*
X228465Y179421D01*
X228434Y179365D01*
X228416Y179290D01*
X228389Y179217D01*
X228384Y179153D01*
X228369Y179090D01*
X228373Y179013D01*
X228367Y178936D01*
X228380Y178873D01*
X228383Y178809D01*
X228409Y178736D01*
X228424Y178660D01*
X228455Y178603D01*
X228476Y178542D01*
X228501Y178508D01*
X228501Y175550D01*
X226450Y173499D01*
X223550Y173499D01*
G37*
%LPD*%
%LPC*%
G36*
X137550Y315499D02*
X137550Y315499D01*
X135707Y317343D01*
X135655Y317381D01*
X135610Y317427D01*
X135543Y317465D01*
X135481Y317512D01*
X135421Y317535D01*
X135365Y317566D01*
X135290Y317584D01*
X135217Y317611D01*
X135153Y317616D01*
X135091Y317631D01*
X135013Y317627D01*
X134936Y317633D01*
X134873Y317620D01*
X134809Y317617D01*
X134736Y317591D01*
X134660Y317576D01*
X134603Y317545D01*
X134542Y317524D01*
X134508Y317499D01*
X131550Y317499D01*
X129499Y319550D01*
X129499Y322450D01*
X131550Y324501D01*
X134450Y324501D01*
X136293Y322657D01*
X136345Y322619D01*
X136390Y322573D01*
X136457Y322535D01*
X136519Y322488D01*
X136579Y322465D01*
X136635Y322434D01*
X136710Y322416D01*
X136783Y322389D01*
X136847Y322384D01*
X136910Y322369D01*
X136987Y322373D01*
X137064Y322367D01*
X137127Y322380D01*
X137191Y322383D01*
X137264Y322409D01*
X137340Y322424D01*
X137397Y322455D01*
X137458Y322476D01*
X137492Y322501D01*
X140450Y322501D01*
X142501Y320450D01*
X142501Y317550D01*
X140450Y315499D01*
X137550Y315499D01*
G37*
%LPD*%
%LPC*%
G36*
X37550Y401499D02*
X37550Y401499D01*
X35499Y403550D01*
X35499Y406450D01*
X37550Y408501D01*
X38000Y408501D01*
X38064Y408510D01*
X38128Y408509D01*
X38203Y408530D01*
X38279Y408541D01*
X38338Y408567D01*
X38400Y408584D01*
X38466Y408625D01*
X38536Y408657D01*
X38585Y408699D01*
X38640Y408732D01*
X38692Y408790D01*
X38750Y408840D01*
X38786Y408894D01*
X38829Y408942D01*
X38862Y409011D01*
X38905Y409076D01*
X38924Y409138D01*
X38952Y409195D01*
X38963Y409265D01*
X38987Y409346D01*
X38988Y409431D01*
X38999Y409500D01*
X38999Y411450D01*
X41050Y413501D01*
X43950Y413501D01*
X46001Y411450D01*
X46001Y408550D01*
X43950Y406499D01*
X43500Y406499D01*
X43436Y406490D01*
X43372Y406491D01*
X43297Y406470D01*
X43221Y406459D01*
X43162Y406433D01*
X43100Y406416D01*
X43034Y406375D01*
X42964Y406343D01*
X42915Y406301D01*
X42860Y406268D01*
X42808Y406210D01*
X42750Y406160D01*
X42714Y406106D01*
X42671Y406058D01*
X42638Y405989D01*
X42595Y405924D01*
X42576Y405862D01*
X42548Y405805D01*
X42537Y405735D01*
X42513Y405654D01*
X42512Y405569D01*
X42501Y405500D01*
X42501Y403550D01*
X40450Y401499D01*
X37550Y401499D01*
G37*
%LPD*%
%LPC*%
G36*
X130550Y36499D02*
X130550Y36499D01*
X128499Y38550D01*
X128499Y41450D01*
X128843Y41793D01*
X128853Y41807D01*
X128857Y41811D01*
X128867Y41826D01*
X128881Y41845D01*
X128927Y41890D01*
X128965Y41957D01*
X129012Y42019D01*
X129035Y42079D01*
X129066Y42135D01*
X129084Y42210D01*
X129111Y42283D01*
X129116Y42347D01*
X129131Y42410D01*
X129127Y42487D01*
X129133Y42564D01*
X129120Y42627D01*
X129117Y42691D01*
X129091Y42764D01*
X129076Y42840D01*
X129045Y42897D01*
X129024Y42958D01*
X128983Y43014D01*
X128943Y43089D01*
X128884Y43150D01*
X128843Y43207D01*
X127499Y44550D01*
X127499Y47450D01*
X129550Y49501D01*
X132450Y49501D01*
X134501Y47450D01*
X134501Y44550D01*
X134157Y44207D01*
X134119Y44155D01*
X134073Y44110D01*
X134035Y44043D01*
X133988Y43981D01*
X133965Y43921D01*
X133934Y43865D01*
X133916Y43790D01*
X133889Y43717D01*
X133884Y43653D01*
X133869Y43591D01*
X133873Y43513D01*
X133867Y43436D01*
X133880Y43373D01*
X133883Y43309D01*
X133909Y43236D01*
X133924Y43160D01*
X133955Y43103D01*
X133976Y43042D01*
X134017Y42986D01*
X134057Y42911D01*
X134111Y42856D01*
X134126Y42830D01*
X134139Y42819D01*
X134157Y42793D01*
X135501Y41450D01*
X135501Y38550D01*
X133450Y36499D01*
X130550Y36499D01*
G37*
%LPD*%
%LPC*%
G36*
X145550Y83999D02*
X145550Y83999D01*
X143499Y86050D01*
X143499Y88950D01*
X145550Y91001D01*
X148450Y91001D01*
X149293Y90157D01*
X149345Y90119D01*
X149390Y90073D01*
X149457Y90035D01*
X149519Y89988D01*
X149579Y89965D01*
X149635Y89934D01*
X149710Y89916D01*
X149783Y89889D01*
X149847Y89884D01*
X149909Y89869D01*
X149987Y89873D01*
X150064Y89867D01*
X150127Y89880D01*
X150191Y89883D01*
X150264Y89909D01*
X150340Y89924D01*
X150397Y89955D01*
X150458Y89976D01*
X150514Y90017D01*
X150589Y90057D01*
X150650Y90116D01*
X150707Y90157D01*
X151550Y91001D01*
X154450Y91001D01*
X156501Y88950D01*
X156501Y86050D01*
X154450Y83999D01*
X151550Y83999D01*
X150707Y84843D01*
X150655Y84881D01*
X150610Y84927D01*
X150543Y84965D01*
X150481Y85012D01*
X150421Y85035D01*
X150365Y85066D01*
X150290Y85084D01*
X150217Y85111D01*
X150153Y85116D01*
X150090Y85131D01*
X150013Y85127D01*
X149936Y85133D01*
X149873Y85120D01*
X149809Y85117D01*
X149736Y85091D01*
X149660Y85076D01*
X149603Y85045D01*
X149542Y85024D01*
X149486Y84983D01*
X149411Y84943D01*
X149350Y84884D01*
X149293Y84843D01*
X148450Y83999D01*
X145550Y83999D01*
G37*
%LPD*%
%LPC*%
G36*
X162550Y32499D02*
X162550Y32499D01*
X160499Y34550D01*
X160499Y37450D01*
X162550Y39501D01*
X165450Y39501D01*
X167501Y37450D01*
X167501Y34550D01*
X165450Y32499D01*
X162550Y32499D01*
G37*
%LPD*%
%LPC*%
G36*
X140425Y32749D02*
X140425Y32749D01*
X138374Y34800D01*
X138374Y37700D01*
X140425Y39751D01*
X143325Y39751D01*
X145376Y37700D01*
X145376Y34800D01*
X143325Y32749D01*
X140425Y32749D01*
G37*
%LPD*%
%LPC*%
G36*
X66550Y4499D02*
X66550Y4499D01*
X64499Y6550D01*
X64499Y9450D01*
X66550Y11501D01*
X69450Y11501D01*
X71501Y9450D01*
X71501Y6550D01*
X69450Y4499D01*
X66550Y4499D01*
G37*
%LPD*%
%LPC*%
G36*
X90550Y104499D02*
X90550Y104499D01*
X88499Y106550D01*
X88499Y109450D01*
X90550Y111501D01*
X93450Y111501D01*
X95501Y109450D01*
X95501Y106550D01*
X93450Y104499D01*
X90550Y104499D01*
G37*
%LPD*%
%LPC*%
G36*
X209550Y30499D02*
X209550Y30499D01*
X207499Y32550D01*
X207499Y35450D01*
X209550Y37501D01*
X212450Y37501D01*
X214501Y35450D01*
X214501Y32550D01*
X212450Y30499D01*
X209550Y30499D01*
G37*
%LPD*%
%LPC*%
G36*
X28550Y106499D02*
X28550Y106499D01*
X26499Y108550D01*
X26499Y111450D01*
X28550Y113501D01*
X31450Y113501D01*
X33501Y111450D01*
X33501Y108550D01*
X31450Y106499D01*
X28550Y106499D01*
G37*
%LPD*%
%LPC*%
G36*
X128050Y15999D02*
X128050Y15999D01*
X125999Y18050D01*
X125999Y20950D01*
X128050Y23001D01*
X130950Y23001D01*
X133001Y20950D01*
X133001Y18050D01*
X130950Y15999D01*
X128050Y15999D01*
G37*
%LPD*%
%LPC*%
G36*
X98550Y112499D02*
X98550Y112499D01*
X96499Y114550D01*
X96499Y117450D01*
X98550Y119501D01*
X101450Y119501D01*
X103501Y117450D01*
X103501Y114550D01*
X101450Y112499D01*
X98550Y112499D01*
G37*
%LPD*%
%LPC*%
G36*
X86050Y81499D02*
X86050Y81499D01*
X83999Y83550D01*
X83999Y86450D01*
X86050Y88501D01*
X88950Y88501D01*
X91001Y86450D01*
X91001Y83550D01*
X88950Y81499D01*
X86050Y81499D01*
G37*
%LPD*%
%LPC*%
G36*
X74800Y50249D02*
X74800Y50249D01*
X72749Y52300D01*
X72749Y55200D01*
X74800Y57251D01*
X77700Y57251D01*
X79751Y55200D01*
X79751Y52300D01*
X77700Y50249D01*
X74800Y50249D01*
G37*
%LPD*%
%LPC*%
G36*
X194550Y49499D02*
X194550Y49499D01*
X192499Y51550D01*
X192499Y54450D01*
X194550Y56501D01*
X197450Y56501D01*
X199501Y54450D01*
X199501Y51550D01*
X197450Y49499D01*
X194550Y49499D01*
G37*
%LPD*%
%LPC*%
G36*
X114755Y79684D02*
X114755Y79684D01*
X112704Y81735D01*
X112704Y84635D01*
X114755Y86686D01*
X117655Y86686D01*
X119706Y84635D01*
X119706Y81735D01*
X117655Y79684D01*
X114755Y79684D01*
G37*
%LPD*%
%LPC*%
G36*
X83550Y9499D02*
X83550Y9499D01*
X81499Y11550D01*
X81499Y14450D01*
X83550Y16501D01*
X86450Y16501D01*
X88501Y14450D01*
X88501Y11550D01*
X86450Y9499D01*
X83550Y9499D01*
G37*
%LPD*%
%LPC*%
G36*
X74550Y98199D02*
X74550Y98199D01*
X72499Y100250D01*
X72499Y103150D01*
X74550Y105201D01*
X77450Y105201D01*
X79501Y103150D01*
X79501Y100250D01*
X77450Y98199D01*
X74550Y98199D01*
G37*
%LPD*%
%LPC*%
G36*
X206675Y86499D02*
X206675Y86499D01*
X204624Y88550D01*
X204624Y91450D01*
X206675Y93501D01*
X209575Y93501D01*
X211626Y91450D01*
X211626Y88550D01*
X209575Y86499D01*
X206675Y86499D01*
G37*
%LPD*%
%LPC*%
G36*
X213150Y18999D02*
X213150Y18999D01*
X211099Y21050D01*
X211099Y23950D01*
X213150Y26001D01*
X216050Y26001D01*
X218101Y23950D01*
X218101Y21050D01*
X216050Y18999D01*
X213150Y18999D01*
G37*
%LPD*%
%LPC*%
G36*
X112550Y22499D02*
X112550Y22499D01*
X110499Y24550D01*
X110499Y27450D01*
X112550Y29501D01*
X115450Y29501D01*
X117501Y27450D01*
X117501Y24550D01*
X115450Y22499D01*
X112550Y22499D01*
G37*
%LPD*%
%LPC*%
G36*
X194550Y40499D02*
X194550Y40499D01*
X192499Y42550D01*
X192499Y45450D01*
X194550Y47501D01*
X197450Y47501D01*
X199501Y45450D01*
X199501Y42550D01*
X197450Y40499D01*
X194550Y40499D01*
G37*
%LPD*%
%LPC*%
G36*
X123550Y71499D02*
X123550Y71499D01*
X121499Y73550D01*
X121499Y76450D01*
X123550Y78501D01*
X126450Y78501D01*
X128501Y76450D01*
X128501Y73550D01*
X126450Y71499D01*
X123550Y71499D01*
G37*
%LPD*%
%LPC*%
G36*
X171550Y40499D02*
X171550Y40499D01*
X169499Y42550D01*
X169499Y45450D01*
X171550Y47501D01*
X174450Y47501D01*
X176501Y45450D01*
X176501Y42550D01*
X174450Y40499D01*
X171550Y40499D01*
G37*
%LPD*%
%LPC*%
G36*
X221550Y33499D02*
X221550Y33499D01*
X219499Y35550D01*
X219499Y38450D01*
X221550Y40501D01*
X224450Y40501D01*
X226501Y38450D01*
X226501Y35550D01*
X224450Y33499D01*
X221550Y33499D01*
G37*
%LPD*%
%LPC*%
G36*
X149800Y32749D02*
X149800Y32749D01*
X147749Y34800D01*
X147749Y37700D01*
X149800Y39751D01*
X152700Y39751D01*
X154751Y37700D01*
X154751Y34800D01*
X152700Y32749D01*
X149800Y32749D01*
G37*
%LPD*%
%LPC*%
G36*
X149550Y96499D02*
X149550Y96499D01*
X147499Y98550D01*
X147499Y101450D01*
X149550Y103501D01*
X152450Y103501D01*
X154501Y101450D01*
X154501Y98550D01*
X152450Y96499D01*
X149550Y96499D01*
G37*
%LPD*%
%LPC*%
G36*
X130100Y77749D02*
X130100Y77749D01*
X128049Y79800D01*
X128049Y82700D01*
X130100Y84751D01*
X133000Y84751D01*
X135051Y82700D01*
X135051Y79800D01*
X133000Y77749D01*
X130100Y77749D01*
G37*
%LPD*%
%LPC*%
G36*
X166550Y103499D02*
X166550Y103499D01*
X164499Y105550D01*
X164499Y108450D01*
X166550Y110501D01*
X169450Y110501D01*
X171501Y108450D01*
X171501Y105550D01*
X169450Y103499D01*
X166550Y103499D01*
G37*
%LPD*%
%LPC*%
G36*
X191550Y30499D02*
X191550Y30499D01*
X189499Y32550D01*
X189499Y35450D01*
X191550Y37501D01*
X194450Y37501D01*
X196501Y35450D01*
X196501Y32550D01*
X194450Y30499D01*
X191550Y30499D01*
G37*
%LPD*%
%LPC*%
G36*
X34550Y4499D02*
X34550Y4499D01*
X32499Y6550D01*
X32499Y9450D01*
X34550Y11501D01*
X37450Y11501D01*
X39501Y9450D01*
X39501Y6550D01*
X37450Y4499D01*
X34550Y4499D01*
G37*
%LPD*%
%LPC*%
G36*
X57248Y98201D02*
X57248Y98201D01*
X55197Y100252D01*
X55197Y103152D01*
X57248Y105203D01*
X60148Y105203D01*
X62199Y103152D01*
X62199Y100252D01*
X60148Y98201D01*
X57248Y98201D01*
G37*
%LPD*%
%LPC*%
G36*
X201050Y428374D02*
X201050Y428374D01*
X198999Y430425D01*
X198999Y433325D01*
X201050Y435376D01*
X203950Y435376D01*
X206001Y433325D01*
X206001Y430425D01*
X203950Y428374D01*
X201050Y428374D01*
G37*
%LPD*%
%LPC*%
G36*
X204550Y135499D02*
X204550Y135499D01*
X202499Y137550D01*
X202499Y140450D01*
X204550Y142501D01*
X207450Y142501D01*
X209501Y140450D01*
X209501Y137550D01*
X207450Y135499D01*
X204550Y135499D01*
G37*
%LPD*%
%LPC*%
G36*
X208550Y358499D02*
X208550Y358499D01*
X206499Y360550D01*
X206499Y363450D01*
X208550Y365501D01*
X211450Y365501D01*
X213501Y363450D01*
X213501Y360550D01*
X211450Y358499D01*
X208550Y358499D01*
G37*
%LPD*%
%LPC*%
G36*
X199550Y363499D02*
X199550Y363499D01*
X197499Y365550D01*
X197499Y368450D01*
X199550Y370501D01*
X202450Y370501D01*
X204501Y368450D01*
X204501Y365550D01*
X202450Y363499D01*
X199550Y363499D01*
G37*
%LPD*%
%LPC*%
G36*
X186550Y373499D02*
X186550Y373499D01*
X184499Y375550D01*
X184499Y378450D01*
X186550Y380501D01*
X189450Y380501D01*
X191501Y378450D01*
X191501Y375550D01*
X189450Y373499D01*
X186550Y373499D01*
G37*
%LPD*%
%LPC*%
G36*
X226550Y376499D02*
X226550Y376499D01*
X224499Y378550D01*
X224499Y381450D01*
X226550Y383501D01*
X229450Y383501D01*
X231501Y381450D01*
X231501Y378550D01*
X229450Y376499D01*
X226550Y376499D01*
G37*
%LPD*%
%LPC*%
G36*
X48550Y385499D02*
X48550Y385499D01*
X46499Y387550D01*
X46499Y390450D01*
X48550Y392501D01*
X51450Y392501D01*
X53501Y390450D01*
X53501Y387550D01*
X51450Y385499D01*
X48550Y385499D01*
G37*
%LPD*%
%LPC*%
G36*
X33550Y413499D02*
X33550Y413499D01*
X31499Y415550D01*
X31499Y418450D01*
X33550Y420501D01*
X36450Y420501D01*
X38501Y418450D01*
X38501Y415550D01*
X36450Y413499D01*
X33550Y413499D01*
G37*
%LPD*%
%LPC*%
G36*
X217925Y417124D02*
X217925Y417124D01*
X215874Y419175D01*
X215874Y422075D01*
X217925Y424126D01*
X220825Y424126D01*
X222876Y422075D01*
X222876Y419175D01*
X220825Y417124D01*
X217925Y417124D01*
G37*
%LPD*%
%LPC*%
G36*
X176050Y417749D02*
X176050Y417749D01*
X173999Y419800D01*
X173999Y422700D01*
X176050Y424751D01*
X178950Y424751D01*
X181001Y422700D01*
X181001Y419800D01*
X178950Y417749D01*
X176050Y417749D01*
G37*
%LPD*%
%LPC*%
G36*
X53550Y427749D02*
X53550Y427749D01*
X51499Y429800D01*
X51499Y432700D01*
X53550Y434751D01*
X56450Y434751D01*
X58501Y432700D01*
X58501Y429800D01*
X56450Y427749D01*
X53550Y427749D01*
G37*
%LPD*%
%LPC*%
G36*
X226550Y347499D02*
X226550Y347499D01*
X224499Y349550D01*
X224499Y352450D01*
X226550Y354501D01*
X229450Y354501D01*
X231501Y352450D01*
X231501Y349550D01*
X229450Y347499D01*
X226550Y347499D01*
G37*
%LPD*%
%LPC*%
G36*
X192925Y437749D02*
X192925Y437749D01*
X190874Y439800D01*
X190874Y442700D01*
X192925Y444751D01*
X195825Y444751D01*
X197876Y442700D01*
X197876Y439800D01*
X195825Y437749D01*
X192925Y437749D01*
G37*
%LPD*%
%LPC*%
G36*
X144800Y438999D02*
X144800Y438999D01*
X142749Y441050D01*
X142749Y443950D01*
X144800Y446001D01*
X147700Y446001D01*
X149751Y443950D01*
X149751Y441050D01*
X147700Y438999D01*
X144800Y438999D01*
G37*
%LPD*%
%LPC*%
G36*
X182550Y473999D02*
X182550Y473999D01*
X180499Y476050D01*
X180499Y478950D01*
X182550Y481001D01*
X185450Y481001D01*
X187501Y478950D01*
X187501Y476050D01*
X185450Y473999D01*
X182550Y473999D01*
G37*
%LPD*%
%LPC*%
G36*
X223550Y480249D02*
X223550Y480249D01*
X221499Y482300D01*
X221499Y485200D01*
X223550Y487251D01*
X226450Y487251D01*
X228501Y485200D01*
X228501Y482300D01*
X226450Y480249D01*
X223550Y480249D01*
G37*
%LPD*%
%LPC*%
G36*
X172300Y481499D02*
X172300Y481499D01*
X170249Y483550D01*
X170249Y486450D01*
X172300Y488501D01*
X175200Y488501D01*
X177251Y486450D01*
X177251Y483550D01*
X175200Y481499D01*
X172300Y481499D01*
G37*
%LPD*%
%LPC*%
G36*
X34800Y490249D02*
X34800Y490249D01*
X32749Y492300D01*
X32749Y495200D01*
X34800Y497251D01*
X37700Y497251D01*
X39751Y495200D01*
X39751Y492300D01*
X37700Y490249D01*
X34800Y490249D01*
G37*
%LPD*%
%LPC*%
G36*
X223550Y495249D02*
X223550Y495249D01*
X221499Y497300D01*
X221499Y500200D01*
X223550Y502251D01*
X226450Y502251D01*
X228501Y500200D01*
X228501Y497300D01*
X226450Y495249D01*
X223550Y495249D01*
G37*
%LPD*%
%LPC*%
G36*
X28550Y502749D02*
X28550Y502749D01*
X26499Y504800D01*
X26499Y507700D01*
X28550Y509751D01*
X31450Y509751D01*
X33501Y507700D01*
X33501Y504800D01*
X31450Y502749D01*
X28550Y502749D01*
G37*
%LPD*%
%LPC*%
G36*
X20550Y522499D02*
X20550Y522499D01*
X18499Y524550D01*
X18499Y527450D01*
X20550Y529501D01*
X23450Y529501D01*
X25501Y527450D01*
X25501Y524550D01*
X23450Y522499D01*
X20550Y522499D01*
G37*
%LPD*%
%LPC*%
G36*
X36550Y258499D02*
X36550Y258499D01*
X34499Y260550D01*
X34499Y263450D01*
X36550Y265501D01*
X39450Y265501D01*
X41501Y263450D01*
X41501Y260550D01*
X39450Y258499D01*
X36550Y258499D01*
G37*
%LPD*%
%LPC*%
G36*
X106550Y152499D02*
X106550Y152499D01*
X104499Y154550D01*
X104499Y157450D01*
X106550Y159501D01*
X109450Y159501D01*
X111501Y157450D01*
X111501Y154550D01*
X109450Y152499D01*
X106550Y152499D01*
G37*
%LPD*%
%LPC*%
G36*
X122550Y152499D02*
X122550Y152499D01*
X120499Y154550D01*
X120499Y157450D01*
X122550Y159501D01*
X125450Y159501D01*
X127501Y157450D01*
X127501Y154550D01*
X125450Y152499D01*
X122550Y152499D01*
G37*
%LPD*%
%LPC*%
G36*
X138550Y152499D02*
X138550Y152499D01*
X136499Y154550D01*
X136499Y157450D01*
X138550Y159501D01*
X141450Y159501D01*
X143501Y157450D01*
X143501Y154550D01*
X141450Y152499D01*
X138550Y152499D01*
G37*
%LPD*%
%LPC*%
G36*
X42550Y172499D02*
X42550Y172499D01*
X40499Y174550D01*
X40499Y177450D01*
X42550Y179501D01*
X45450Y179501D01*
X47501Y177450D01*
X47501Y174550D01*
X45450Y172499D01*
X42550Y172499D01*
G37*
%LPD*%
%LPC*%
G36*
X200050Y210833D02*
X200050Y210833D01*
X197999Y212884D01*
X197999Y215784D01*
X200050Y217834D01*
X202950Y217834D01*
X205001Y215784D01*
X205001Y212884D01*
X202950Y210833D01*
X200050Y210833D01*
G37*
%LPD*%
%LPC*%
G36*
X113550Y226499D02*
X113550Y226499D01*
X111499Y228550D01*
X111499Y231450D01*
X113550Y233501D01*
X116450Y233501D01*
X118501Y231450D01*
X118501Y228550D01*
X116450Y226499D01*
X113550Y226499D01*
G37*
%LPD*%
%LPC*%
G36*
X120550Y232499D02*
X120550Y232499D01*
X118499Y234550D01*
X118499Y237450D01*
X120550Y239501D01*
X123450Y239501D01*
X125501Y237450D01*
X125501Y234550D01*
X123450Y232499D01*
X120550Y232499D01*
G37*
%LPD*%
%LPC*%
G36*
X226675Y239624D02*
X226675Y239624D01*
X224624Y241675D01*
X224624Y244575D01*
X226675Y246626D01*
X229575Y246626D01*
X231626Y244575D01*
X231626Y241675D01*
X229575Y239624D01*
X226675Y239624D01*
G37*
%LPD*%
%LPC*%
G36*
X195800Y244499D02*
X195800Y244499D01*
X193749Y246550D01*
X193749Y249450D01*
X195800Y251501D01*
X198700Y251501D01*
X200751Y249450D01*
X200751Y246550D01*
X198700Y244499D01*
X195800Y244499D01*
G37*
%LPD*%
%LPC*%
G36*
X130550Y327499D02*
X130550Y327499D01*
X128499Y329550D01*
X128499Y332450D01*
X130550Y334501D01*
X133450Y334501D01*
X135501Y332450D01*
X135501Y329550D01*
X133450Y327499D01*
X130550Y327499D01*
G37*
%LPD*%
%LPC*%
G36*
X38550Y276499D02*
X38550Y276499D01*
X36499Y278550D01*
X36499Y281450D01*
X38550Y283501D01*
X41450Y283501D01*
X43501Y281450D01*
X43501Y278550D01*
X41450Y276499D01*
X38550Y276499D01*
G37*
%LPD*%
%LPC*%
G36*
X149550Y276499D02*
X149550Y276499D01*
X147499Y278550D01*
X147499Y281450D01*
X149550Y283501D01*
X152450Y283501D01*
X154501Y281450D01*
X154501Y278550D01*
X152450Y276499D01*
X149550Y276499D01*
G37*
%LPD*%
%LPC*%
G36*
X222300Y285249D02*
X222300Y285249D01*
X220249Y287300D01*
X220249Y290200D01*
X222300Y292251D01*
X225200Y292251D01*
X227251Y290200D01*
X227251Y287300D01*
X225200Y285249D01*
X222300Y285249D01*
G37*
%LPD*%
%LPC*%
G36*
X142550Y294499D02*
X142550Y294499D01*
X140499Y296550D01*
X140499Y299450D01*
X142550Y301501D01*
X145450Y301501D01*
X147501Y299450D01*
X147501Y296550D01*
X145450Y294499D01*
X142550Y294499D01*
G37*
%LPD*%
%LPC*%
G36*
X98550Y296499D02*
X98550Y296499D01*
X96499Y298550D01*
X96499Y301450D01*
X98550Y303501D01*
X101450Y303501D01*
X103501Y301450D01*
X103501Y298550D01*
X101450Y296499D01*
X98550Y296499D01*
G37*
%LPD*%
%LPC*%
G36*
X141550Y303499D02*
X141550Y303499D01*
X139499Y305550D01*
X139499Y308450D01*
X141550Y310501D01*
X144450Y310501D01*
X146501Y308450D01*
X146501Y305550D01*
X144450Y303499D01*
X141550Y303499D01*
G37*
%LPD*%
%LPC*%
G36*
X118550Y306499D02*
X118550Y306499D01*
X116499Y308550D01*
X116499Y311450D01*
X118550Y313501D01*
X121450Y313501D01*
X123501Y311450D01*
X123501Y308550D01*
X121450Y306499D01*
X118550Y306499D01*
G37*
%LPD*%
%LPC*%
G36*
X121550Y320499D02*
X121550Y320499D01*
X119499Y322550D01*
X119499Y325450D01*
X121550Y327501D01*
X124450Y327501D01*
X126501Y325450D01*
X126501Y322550D01*
X124450Y320499D01*
X121550Y320499D01*
G37*
%LPD*%
%LPC*%
G36*
X146800Y324249D02*
X146800Y324249D01*
X144749Y326300D01*
X144749Y329200D01*
X146800Y331251D01*
X149700Y331251D01*
X151751Y329200D01*
X151751Y326300D01*
X149700Y324249D01*
X146800Y324249D01*
G37*
%LPD*%
%LPC*%
G36*
X102550Y327499D02*
X102550Y327499D01*
X100499Y329550D01*
X100499Y332450D01*
X102550Y334501D01*
X105450Y334501D01*
X107501Y332450D01*
X107501Y329550D01*
X105450Y327499D01*
X102550Y327499D01*
G37*
%LPD*%
%LPC*%
G36*
X15749Y510799D02*
X15749Y510799D01*
X15749Y518224D01*
X16003Y518184D01*
X17443Y517716D01*
X18792Y517028D01*
X20018Y516138D01*
X21088Y515068D01*
X21978Y513842D01*
X22666Y512493D01*
X23134Y511053D01*
X23174Y510799D01*
X15749Y510799D01*
G37*
%LPD*%
%LPC*%
G36*
X15749Y506801D02*
X15749Y506801D01*
X23174Y506801D01*
X23134Y506547D01*
X22666Y505107D01*
X21978Y503758D01*
X21088Y502532D01*
X20018Y501462D01*
X18792Y500572D01*
X17443Y499884D01*
X16003Y499416D01*
X15749Y499376D01*
X15749Y506801D01*
G37*
%LPD*%
%LPC*%
G36*
X44034Y63274D02*
X44034Y63274D01*
X44106Y63637D01*
X44658Y64970D01*
X45460Y66170D01*
X46433Y67143D01*
X46472Y67195D01*
X46518Y67240D01*
X46556Y67307D01*
X46603Y67369D01*
X46625Y67429D01*
X46657Y67485D01*
X46675Y67560D01*
X46702Y67633D01*
X46707Y67697D01*
X46722Y67759D01*
X46718Y67837D01*
X46724Y67914D01*
X46711Y67977D01*
X46708Y68041D01*
X46682Y68114D01*
X46666Y68190D01*
X46636Y68247D01*
X46615Y68308D01*
X46574Y68364D01*
X46534Y68439D01*
X46475Y68500D01*
X46433Y68557D01*
X45460Y69530D01*
X44658Y70730D01*
X44106Y72063D01*
X44034Y72426D01*
X49376Y72426D01*
X49376Y63274D01*
X44034Y63274D01*
G37*
%LPD*%
D10*
X93500Y459750D03*
X166500Y459750D03*
X93500Y512750D03*
X166500Y512750D03*
D11*
X63850Y61500D03*
X63850Y48800D03*
X63850Y74200D03*
X63850Y86900D03*
X63850Y36100D03*
X51150Y61500D03*
X51150Y74200D03*
X51150Y86900D03*
X51150Y48800D03*
X51150Y36100D03*
D12*
X13750Y508800D03*
X13750Y483400D03*
X13750Y458000D03*
X13750Y432600D03*
X13750Y407200D03*
X13750Y381800D03*
X13750Y356400D03*
X13750Y331000D03*
X13750Y305600D03*
X13750Y280200D03*
X13750Y254800D03*
X13750Y229400D03*
X13750Y204000D03*
X13750Y178600D03*
X13750Y153200D03*
X13750Y127800D03*
X13750Y102400D03*
X13750Y77000D03*
X13750Y51600D03*
X13750Y26200D03*
X242500Y508800D03*
X242500Y483400D03*
X242500Y458000D03*
X242500Y432600D03*
X242500Y407200D03*
X242500Y381800D03*
X242500Y356400D03*
X242500Y331000D03*
X242500Y305600D03*
X242500Y280200D03*
X242500Y254800D03*
X242500Y229400D03*
X242500Y204000D03*
X242500Y178600D03*
X242500Y153200D03*
X242500Y127800D03*
X242500Y102400D03*
X242500Y77000D03*
X242500Y51600D03*
X242500Y26200D03*
D13*
X148000Y148000D03*
X148000Y156000D03*
X148000Y164000D03*
X140000Y188000D03*
X132000Y188000D03*
X116000Y188000D03*
X108000Y188000D03*
X108000Y172000D03*
X108000Y148000D03*
X116000Y148000D03*
X124000Y148000D03*
X140000Y148000D03*
X194225Y208000D03*
X194125Y198500D03*
X80000Y482500D03*
X73750Y482500D03*
X80000Y490000D03*
X73750Y490000D03*
X80000Y497500D03*
X73750Y497500D03*
X50000Y423750D03*
X50000Y417500D03*
X65625Y417700D03*
X66750Y308500D03*
X66750Y292500D03*
X92000Y156000D03*
X140000Y180000D03*
X141250Y71250D03*
X148750Y71250D03*
X216875Y90300D03*
X103750Y47500D03*
X103750Y36250D03*
X100000Y75000D03*
X223750Y130000D03*
X227500Y216250D03*
X197625Y263000D03*
X174875Y8750D03*
X132600Y13775D03*
X60000Y111250D03*
X58675Y122500D03*
X59275Y132200D03*
X76000Y108000D03*
X108585Y83185D03*
X84000Y140000D03*
X59700Y138625D03*
X117500Y442500D03*
X206250Y400000D03*
X191875Y408750D03*
X191875Y398750D03*
X168125Y440000D03*
X210000Y456500D03*
X217500Y432500D03*
X218125Y449375D03*
X248750Y520000D03*
X183125Y503750D03*
X116000Y156000D03*
X173000Y358000D03*
X173500Y346250D03*
X173500Y335000D03*
X173500Y324250D03*
X56000Y326500D03*
X132000Y180000D03*
X31875Y430625D03*
X25625Y430625D03*
X218750Y61250D03*
X92500Y433750D03*
X115900Y14600D03*
X218000Y11250D03*
X172000Y164000D03*
X100000Y314500D03*
X100000Y308000D03*
X80000Y330000D03*
X140000Y284000D03*
X76000Y211900D03*
X100000Y340000D03*
X68000Y374000D03*
X91000Y393000D03*
X185000Y16000D03*
X196000Y61500D03*
X137000Y106000D03*
X164000Y366000D03*
X70000Y411000D03*
X52500Y196000D03*
X67000Y15000D03*
X197625Y230375D03*
X197250Y248000D03*
X204275Y229175D03*
X146250Y442500D03*
X84000Y124000D03*
X108000Y212000D03*
X108000Y196000D03*
X168000Y107000D03*
X108000Y204000D03*
X100000Y140000D03*
X92000Y196000D03*
X172000Y212000D03*
X172000Y204000D03*
X170500Y93000D03*
X172000Y220000D03*
X189000Y97000D03*
X156000Y212000D03*
X164000Y228000D03*
X172000Y228000D03*
X195000Y79000D03*
X63500Y152000D03*
X68000Y132000D03*
X33000Y311000D03*
X67500Y124500D03*
X31000Y317000D03*
X199000Y378000D03*
X201000Y367000D03*
X148000Y196000D03*
X87500Y85000D03*
X116000Y108000D03*
X228000Y380000D03*
X132000Y116000D03*
X175000Y412000D03*
X92000Y220000D03*
X188000Y377000D03*
X84000Y196000D03*
X175000Y398000D03*
X84000Y188000D03*
X175000Y405000D03*
X66000Y220000D03*
X39000Y405000D03*
X66000Y226000D03*
X35000Y417000D03*
X164000Y196000D03*
X164000Y88000D03*
X210000Y362000D03*
X218000Y385000D03*
X156000Y196000D03*
X214000Y377000D03*
X156000Y204000D03*
X196000Y53000D03*
X148000Y212000D03*
X196000Y44000D03*
X63500Y168000D03*
X63500Y160000D03*
X36000Y305500D03*
X68000Y164000D03*
X40000Y280000D03*
X68000Y156000D03*
X38000Y262000D03*
X84000Y116000D03*
X228000Y351000D03*
X92000Y108000D03*
X92000Y124000D03*
X76000Y340000D03*
X92000Y132000D03*
X68000Y340000D03*
X68000Y196000D03*
X68000Y300000D03*
X76000Y196000D03*
X76000Y300000D03*
X76000Y188000D03*
X76000Y292000D03*
X100000Y188000D03*
X84000Y348000D03*
X92000Y188000D03*
X76000Y348000D03*
X148000Y116000D03*
X133000Y321000D03*
X156000Y116000D03*
X151000Y280000D03*
X122000Y236000D03*
X100000Y348000D03*
X116000Y212000D03*
X84000Y340000D03*
X92000Y340000D03*
X116000Y220000D03*
X115000Y230000D03*
X92000Y348000D03*
X180000Y140000D03*
X132000Y331000D03*
X180000Y148000D03*
X140000Y348000D03*
X180000Y156000D03*
X140000Y340000D03*
X180000Y164000D03*
X139000Y319000D03*
X172000Y180000D03*
X143000Y307000D03*
X172000Y188000D03*
X144000Y298000D03*
X225000Y177000D03*
X227000Y183000D03*
X132000Y220000D03*
X116000Y348000D03*
X148000Y204000D03*
X132000Y300000D03*
X140000Y212000D03*
X132000Y292000D03*
X140000Y220000D03*
X132000Y284000D03*
X132000Y204000D03*
X120000Y310000D03*
X132000Y212000D03*
X124000Y348000D03*
X140000Y204000D03*
X116000Y292000D03*
X100000Y204000D03*
X116000Y284000D03*
X92000Y212000D03*
X116000Y332000D03*
X100000Y212000D03*
X116000Y340000D03*
X147000Y87500D03*
X124000Y108000D03*
X156000Y188000D03*
X132000Y308000D03*
X156000Y180000D03*
X124000Y356000D03*
X164000Y180000D03*
X116000Y356000D03*
X92000Y228000D03*
X175000Y391000D03*
X177500Y421250D03*
X223750Y288750D03*
X153000Y87500D03*
X200500Y175000D03*
X206000Y139000D03*
X230000Y404000D03*
X181000Y98000D03*
X176000Y67500D03*
X175125Y75875D03*
X174000Y53500D03*
X173000Y44000D03*
X148000Y140000D03*
X148000Y188000D03*
X156000Y140000D03*
X131000Y46000D03*
X132000Y40000D03*
X125000Y75000D03*
X164000Y36000D03*
X132000Y124000D03*
X123000Y324000D03*
X219375Y420625D03*
X53750Y523750D03*
X53750Y530000D03*
X22000Y526000D03*
X60000Y530000D03*
X60000Y523750D03*
X36250Y493750D03*
X81250Y442500D03*
X30000Y506250D03*
X81250Y448750D03*
X75000Y448750D03*
X75000Y442500D03*
X68750Y442500D03*
X62500Y442500D03*
X56250Y448750D03*
X56250Y455000D03*
X56250Y442500D03*
X56250Y461250D03*
X156000Y148000D03*
X156000Y156000D03*
X156000Y164000D03*
X148000Y180000D03*
X140000Y196000D03*
X132000Y196000D03*
X116000Y196000D03*
X108000Y180000D03*
X108000Y156000D03*
X100000Y148000D03*
X124000Y140000D03*
X140000Y140000D03*
X100000Y180000D03*
X108000Y140000D03*
X55000Y431250D03*
X74750Y308500D03*
X66750Y348500D03*
X138750Y356000D03*
X208125Y90000D03*
X141875Y36250D03*
X151250Y36250D03*
X131550Y81250D03*
X228125Y243125D03*
X124000Y156000D03*
X140000Y156000D03*
X30000Y110000D03*
X30000Y122500D03*
X30000Y131250D03*
X58698Y101702D03*
X76000Y101700D03*
X44000Y176000D03*
X116205Y83185D03*
X29375Y138750D03*
X207500Y378750D03*
X225750Y409500D03*
X202500Y431875D03*
X184000Y477500D03*
X116000Y180000D03*
X146250Y346250D03*
X148250Y327750D03*
X76250Y53750D03*
X42500Y410000D03*
X201500Y214334D03*
X180000Y132000D03*
X100000Y300000D03*
X92000Y332000D03*
X68000Y332000D03*
X100000Y172000D03*
X104000Y331000D03*
X174000Y59500D03*
X194000Y90000D03*
X151000Y100000D03*
X223000Y37000D03*
X231000Y96000D03*
X153000Y373000D03*
X50000Y389000D03*
X193000Y34000D03*
X153000Y365000D03*
X194375Y441250D03*
X224375Y400000D03*
X66000Y202000D03*
X52000Y202000D03*
X66000Y208000D03*
X52000Y208000D03*
X66000Y214000D03*
X52000Y214000D03*
X124000Y132000D03*
X100000Y116000D03*
X108000Y108000D03*
X140000Y116000D03*
X206500Y177000D03*
X148000Y124000D03*
X212000Y174500D03*
X148000Y132000D03*
X198000Y120000D03*
X211000Y34000D03*
X129500Y19500D03*
X200000Y69000D03*
X214600Y22500D03*
X130000Y5250D03*
X85000Y13000D03*
X36000Y8000D03*
X232500Y518750D03*
X195000Y521875D03*
X25000Y147500D03*
X173750Y485000D03*
X198000Y112000D03*
X68000Y8000D03*
X114000Y26000D03*
X195500Y73000D03*
X25200Y153950D03*
X225000Y483750D03*
X225000Y498750D03*
M02*
