G04 EAGLE Gerber RS-274X export*
G75*
%MOMM*%
%FSLAX34Y34*%
%LPD*%
%INSilkscreen Bottom*%
%IPPOS*%
%AMOC8*
5,1,8,0,0,1.08239X$1,22.5*%
G01*
%ADD10C,0.300000*%
%ADD11C,0.152400*%


D10*
X52500Y508750D03*
D11*
X1050Y57950D02*
X1050Y45250D01*
X7400Y38900D01*
X20100Y38900D01*
X26450Y45250D01*
X1050Y83350D02*
X7400Y89700D01*
X1050Y83350D02*
X1050Y70650D01*
X7400Y64300D01*
X20100Y64300D01*
X26450Y70650D01*
X26450Y83350D01*
X20100Y89700D01*
X7400Y64300D02*
X1050Y57950D01*
X20100Y64300D02*
X26450Y57950D01*
X26450Y45250D01*
X1050Y121450D02*
X1050Y134150D01*
X1050Y121450D02*
X7400Y115100D01*
X20100Y115100D01*
X26450Y121450D01*
X7400Y115100D02*
X1050Y108750D01*
X1050Y96050D01*
X7400Y89700D01*
X20100Y89700D01*
X26450Y96050D01*
X26450Y108750D01*
X20100Y115100D01*
X1050Y159550D02*
X7400Y165900D01*
X1050Y159550D02*
X1050Y146850D01*
X7400Y140500D01*
X20100Y140500D01*
X26450Y146850D01*
X26450Y159550D01*
X20100Y165900D01*
X7400Y140500D02*
X1050Y134150D01*
X20100Y140500D02*
X26450Y134150D01*
X26450Y121450D01*
X1050Y197650D02*
X1050Y210350D01*
X1050Y197650D02*
X7400Y191300D01*
X20100Y191300D01*
X26450Y197650D01*
X7400Y191300D02*
X1050Y184950D01*
X1050Y172250D01*
X7400Y165900D01*
X20100Y165900D01*
X26450Y172250D01*
X26450Y184950D01*
X20100Y191300D01*
X1050Y235750D02*
X7400Y242100D01*
X1050Y235750D02*
X1050Y223050D01*
X7400Y216700D01*
X20100Y216700D01*
X26450Y223050D01*
X26450Y235750D01*
X20100Y242100D01*
X7400Y216700D02*
X1050Y210350D01*
X20100Y216700D02*
X26450Y210350D01*
X26450Y197650D01*
X1050Y273850D02*
X1050Y286550D01*
X1050Y273850D02*
X7400Y267500D01*
X20100Y267500D01*
X26450Y273850D01*
X7400Y267500D02*
X1050Y261150D01*
X1050Y248450D01*
X7400Y242100D01*
X20100Y242100D01*
X26450Y248450D01*
X26450Y261150D01*
X20100Y267500D01*
X1050Y311950D02*
X7400Y318300D01*
X1050Y311950D02*
X1050Y299250D01*
X7400Y292900D01*
X20100Y292900D01*
X26450Y299250D01*
X26450Y311950D01*
X20100Y318300D01*
X7400Y292900D02*
X1050Y286550D01*
X20100Y292900D02*
X26450Y286550D01*
X26450Y273850D01*
X1050Y350050D02*
X1050Y362750D01*
X1050Y350050D02*
X7400Y343700D01*
X20100Y343700D01*
X26450Y350050D01*
X7400Y343700D02*
X1050Y337350D01*
X1050Y324650D01*
X7400Y318300D01*
X20100Y318300D01*
X26450Y324650D01*
X26450Y337350D01*
X20100Y343700D01*
X1050Y388150D02*
X7400Y394500D01*
X1050Y388150D02*
X1050Y375450D01*
X7400Y369100D01*
X20100Y369100D01*
X26450Y375450D01*
X26450Y388150D01*
X20100Y394500D01*
X7400Y369100D02*
X1050Y362750D01*
X20100Y369100D02*
X26450Y362750D01*
X26450Y350050D01*
X1050Y426250D02*
X1050Y438950D01*
X1050Y426250D02*
X7400Y419900D01*
X20100Y419900D01*
X26450Y426250D01*
X7400Y419900D02*
X1050Y413550D01*
X1050Y400850D01*
X7400Y394500D01*
X20100Y394500D01*
X26450Y400850D01*
X26450Y413550D01*
X20100Y419900D01*
X1050Y464350D02*
X7400Y470700D01*
X1050Y464350D02*
X1050Y451650D01*
X7400Y445300D01*
X20100Y445300D01*
X26450Y451650D01*
X26450Y464350D01*
X20100Y470700D01*
X7400Y445300D02*
X1050Y438950D01*
X20100Y445300D02*
X26450Y438950D01*
X26450Y426250D01*
X1050Y502450D02*
X1050Y515150D01*
X1050Y502450D02*
X7400Y496100D01*
X20100Y496100D01*
X26450Y502450D01*
X7400Y496100D02*
X1050Y489750D01*
X1050Y477050D01*
X7400Y470700D01*
X20100Y470700D01*
X26450Y477050D01*
X26450Y489750D01*
X20100Y496100D01*
X20100Y521500D02*
X7400Y521500D01*
X1050Y515150D01*
X20100Y521500D02*
X26450Y515150D01*
X26450Y502450D01*
X1050Y32550D02*
X1050Y19850D01*
X7400Y13500D01*
X20100Y13500D01*
X26450Y19850D01*
X7400Y38900D02*
X1050Y32550D01*
X20100Y38900D02*
X26450Y32550D01*
X26450Y19850D01*
X229800Y45250D02*
X229800Y57950D01*
X229800Y45250D02*
X236150Y38900D01*
X248850Y38900D01*
X255200Y45250D01*
X229800Y83350D02*
X236150Y89700D01*
X229800Y83350D02*
X229800Y70650D01*
X236150Y64300D01*
X248850Y64300D01*
X255200Y70650D01*
X255200Y83350D01*
X248850Y89700D01*
X236150Y64300D02*
X229800Y57950D01*
X248850Y64300D02*
X255200Y57950D01*
X255200Y45250D01*
X229800Y121450D02*
X229800Y134150D01*
X229800Y121450D02*
X236150Y115100D01*
X248850Y115100D01*
X255200Y121450D01*
X236150Y115100D02*
X229800Y108750D01*
X229800Y96050D01*
X236150Y89700D01*
X248850Y89700D01*
X255200Y96050D01*
X255200Y108750D01*
X248850Y115100D01*
X229800Y159550D02*
X236150Y165900D01*
X229800Y159550D02*
X229800Y146850D01*
X236150Y140500D01*
X248850Y140500D01*
X255200Y146850D01*
X255200Y159550D01*
X248850Y165900D01*
X236150Y140500D02*
X229800Y134150D01*
X248850Y140500D02*
X255200Y134150D01*
X255200Y121450D01*
X229800Y197650D02*
X229800Y210350D01*
X229800Y197650D02*
X236150Y191300D01*
X248850Y191300D01*
X255200Y197650D01*
X236150Y191300D02*
X229800Y184950D01*
X229800Y172250D01*
X236150Y165900D01*
X248850Y165900D01*
X255200Y172250D01*
X255200Y184950D01*
X248850Y191300D01*
X229800Y235750D02*
X236150Y242100D01*
X229800Y235750D02*
X229800Y223050D01*
X236150Y216700D01*
X248850Y216700D01*
X255200Y223050D01*
X255200Y235750D01*
X248850Y242100D01*
X236150Y216700D02*
X229800Y210350D01*
X248850Y216700D02*
X255200Y210350D01*
X255200Y197650D01*
X229800Y273850D02*
X229800Y286550D01*
X229800Y273850D02*
X236150Y267500D01*
X248850Y267500D01*
X255200Y273850D01*
X236150Y267500D02*
X229800Y261150D01*
X229800Y248450D01*
X236150Y242100D01*
X248850Y242100D01*
X255200Y248450D01*
X255200Y261150D01*
X248850Y267500D01*
X229800Y311950D02*
X236150Y318300D01*
X229800Y311950D02*
X229800Y299250D01*
X236150Y292900D01*
X248850Y292900D01*
X255200Y299250D01*
X255200Y311950D01*
X248850Y318300D01*
X236150Y292900D02*
X229800Y286550D01*
X248850Y292900D02*
X255200Y286550D01*
X255200Y273850D01*
X229800Y350050D02*
X229800Y362750D01*
X229800Y350050D02*
X236150Y343700D01*
X248850Y343700D01*
X255200Y350050D01*
X236150Y343700D02*
X229800Y337350D01*
X229800Y324650D01*
X236150Y318300D01*
X248850Y318300D01*
X255200Y324650D01*
X255200Y337350D01*
X248850Y343700D01*
X229800Y388150D02*
X236150Y394500D01*
X229800Y388150D02*
X229800Y375450D01*
X236150Y369100D01*
X248850Y369100D01*
X255200Y375450D01*
X255200Y388150D01*
X248850Y394500D01*
X236150Y369100D02*
X229800Y362750D01*
X248850Y369100D02*
X255200Y362750D01*
X255200Y350050D01*
X229800Y426250D02*
X229800Y438950D01*
X229800Y426250D02*
X236150Y419900D01*
X248850Y419900D01*
X255200Y426250D01*
X236150Y419900D02*
X229800Y413550D01*
X229800Y400850D01*
X236150Y394500D01*
X248850Y394500D01*
X255200Y400850D01*
X255200Y413550D01*
X248850Y419900D01*
X229800Y464350D02*
X236150Y470700D01*
X229800Y464350D02*
X229800Y451650D01*
X236150Y445300D01*
X248850Y445300D01*
X255200Y451650D01*
X255200Y464350D01*
X248850Y470700D01*
X236150Y445300D02*
X229800Y438950D01*
X248850Y445300D02*
X255200Y438950D01*
X255200Y426250D01*
X229800Y502450D02*
X229800Y515150D01*
X229800Y502450D02*
X236150Y496100D01*
X248850Y496100D01*
X255200Y502450D01*
X236150Y496100D02*
X229800Y489750D01*
X229800Y477050D01*
X236150Y470700D01*
X248850Y470700D01*
X255200Y477050D01*
X255200Y489750D01*
X248850Y496100D01*
X248850Y521500D02*
X236150Y521500D01*
X229800Y515150D01*
X248850Y521500D02*
X255200Y515150D01*
X255200Y502450D01*
X229800Y32550D02*
X229800Y19850D01*
X236150Y13500D01*
X248850Y13500D01*
X255200Y19850D01*
X236150Y38900D02*
X229800Y32550D01*
X248850Y38900D02*
X255200Y32550D01*
X255200Y19850D01*
M02*
