G04 EAGLE Gerber RS-274X export*
G75*
%MOMM*%
%FSLAX34Y34*%
%LPD*%
%INSolderpaste Top*%
%IPPOS*%
%AMOC8*
5,1,8,0,0,1.08239X$1,22.5*%
G01*
%ADD10R,0.700000X0.900000*%
%ADD11R,0.900000X0.700000*%
%ADD12R,0.700000X0.800000*%
%ADD13R,0.500000X2.000000*%
%ADD14R,0.800000X0.800000*%
%ADD15C,0.280000*%
%ADD16R,2.500000X2.500000*%
%ADD17R,0.600000X0.700000*%
%ADD18R,1.800000X1.000000*%
%ADD19R,0.700000X0.600000*%
%ADD20R,1.400000X1.050000*%
%ADD21R,2.750000X1.000000*%
%ADD22R,1.100000X0.250000*%
%ADD23R,0.700000X0.250000*%
%ADD24R,0.250000X0.700000*%
%ADD25R,0.250000X1.100000*%
%ADD26R,1.600000X1.800000*%
%ADD27R,1.000000X1.100000*%
%ADD28R,0.440000X1.440000*%
%ADD29R,0.350000X0.260000*%

G36*
X45505Y445249D02*
X45505Y445249D01*
X45505Y445250D01*
X45505Y464750D01*
X45501Y464755D01*
X45500Y464755D01*
X34500Y464755D01*
X34495Y464751D01*
X34495Y464750D01*
X34495Y462250D01*
X34499Y462245D01*
X34500Y462245D01*
X39495Y462245D01*
X39495Y456255D01*
X34500Y456255D01*
X34495Y456251D01*
X34495Y456250D01*
X34495Y453750D01*
X34499Y453745D01*
X34500Y453745D01*
X39495Y453845D01*
X39495Y447755D01*
X34500Y447755D01*
X34495Y447751D01*
X34495Y447750D01*
X34495Y445250D01*
X34499Y445245D01*
X34500Y445245D01*
X45500Y445245D01*
X45505Y445249D01*
G37*
G36*
X70505Y445249D02*
X70505Y445249D01*
X70505Y445250D01*
X70505Y447750D01*
X70501Y447755D01*
X70500Y447755D01*
X65505Y447755D01*
X65505Y453745D01*
X70500Y453745D01*
X70505Y453749D01*
X70505Y453750D01*
X70505Y456250D01*
X70501Y456255D01*
X70500Y456255D01*
X70292Y456251D01*
X70291Y456251D01*
X70044Y456246D01*
X70042Y456246D01*
X69795Y456241D01*
X69794Y456241D01*
X69547Y456236D01*
X69545Y456236D01*
X69298Y456231D01*
X69297Y456231D01*
X69050Y456226D01*
X69048Y456226D01*
X68801Y456221D01*
X68800Y456221D01*
X68553Y456216D01*
X68552Y456216D01*
X68305Y456211D01*
X68303Y456211D01*
X68056Y456206D01*
X68055Y456206D01*
X67808Y456201D01*
X67806Y456201D01*
X67559Y456196D01*
X67558Y456196D01*
X67311Y456191D01*
X67309Y456191D01*
X67062Y456186D01*
X67061Y456186D01*
X66814Y456181D01*
X66813Y456181D01*
X66812Y456181D01*
X66566Y456176D01*
X66564Y456176D01*
X66317Y456171D01*
X66316Y456171D01*
X66069Y456166D01*
X66067Y456166D01*
X65820Y456161D01*
X65819Y456161D01*
X65572Y456156D01*
X65570Y456156D01*
X65505Y456155D01*
X65505Y462245D01*
X70500Y462245D01*
X70505Y462249D01*
X70505Y462250D01*
X70505Y464750D01*
X70501Y464755D01*
X70500Y464755D01*
X59500Y464755D01*
X59495Y464751D01*
X59495Y464750D01*
X59495Y445250D01*
X59499Y445245D01*
X59500Y445245D01*
X70500Y445245D01*
X70505Y445249D01*
G37*
D10*
X37250Y136100D03*
X50250Y136100D03*
X37250Y108750D03*
X50250Y108750D03*
D11*
X173750Y249750D03*
X173750Y262750D03*
X185000Y249750D03*
X185000Y262750D03*
D10*
X208500Y222500D03*
X221500Y222500D03*
X208500Y236250D03*
X221500Y236250D03*
D12*
X207750Y69000D03*
X224250Y69000D03*
X224250Y81500D03*
X207750Y81500D03*
D10*
X203875Y100500D03*
X216875Y100500D03*
D13*
X146000Y457250D03*
X138000Y457250D03*
X130000Y457250D03*
X122000Y457250D03*
X114000Y457250D03*
D14*
X209500Y8000D03*
X194500Y8000D03*
X159500Y8000D03*
X144500Y8000D03*
X109500Y8000D03*
X94500Y8000D03*
X59500Y8000D03*
X44500Y8000D03*
D10*
X37250Y122500D03*
X50250Y122500D03*
X208500Y211625D03*
X221500Y211625D03*
D11*
X53950Y177000D03*
X53950Y190000D03*
D10*
X121500Y90000D03*
X108500Y90000D03*
D15*
X212750Y419300D02*
X212750Y423400D01*
X207750Y423400D02*
X207750Y419300D01*
X202750Y419300D02*
X202750Y423400D01*
X197750Y423400D02*
X197750Y419300D01*
X192750Y419300D02*
X192750Y423400D01*
X187750Y423400D02*
X187750Y419300D01*
X184200Y415750D02*
X180100Y415750D01*
X180100Y410750D02*
X184200Y410750D01*
X184200Y405750D02*
X180100Y405750D01*
X180100Y400750D02*
X184200Y400750D01*
X184200Y395750D02*
X180100Y395750D01*
X180100Y390750D02*
X184200Y390750D01*
X187750Y387200D02*
X187750Y383100D01*
X192750Y383100D02*
X192750Y387200D01*
X197750Y387200D02*
X197750Y383100D01*
X202750Y383100D02*
X202750Y387200D01*
X207750Y387200D02*
X207750Y383100D01*
X212750Y383100D02*
X212750Y387200D01*
X216300Y390750D02*
X220400Y390750D01*
X220400Y395750D02*
X216300Y395750D01*
X216300Y400750D02*
X220400Y400750D01*
X220400Y405750D02*
X216300Y405750D01*
X216300Y410750D02*
X220400Y410750D01*
X220400Y415750D02*
X216300Y415750D01*
D16*
X200250Y403250D03*
D15*
X137500Y46450D02*
X137500Y42350D01*
X142500Y42350D02*
X142500Y46450D01*
X147500Y46450D02*
X147500Y42350D01*
X152500Y42350D02*
X152500Y46450D01*
X157500Y46450D02*
X157500Y42350D01*
X162500Y42350D02*
X162500Y46450D01*
X166050Y50000D02*
X170150Y50000D01*
X170150Y55000D02*
X166050Y55000D01*
X166050Y60000D02*
X170150Y60000D01*
X170150Y65000D02*
X166050Y65000D01*
X166050Y70000D02*
X170150Y70000D01*
X170150Y75000D02*
X166050Y75000D01*
X162500Y78550D02*
X162500Y82650D01*
X157500Y82650D02*
X157500Y78550D01*
X152500Y78550D02*
X152500Y82650D01*
X147500Y82650D02*
X147500Y78550D01*
X142500Y78550D02*
X142500Y82650D01*
X137500Y82650D02*
X137500Y78550D01*
X133950Y75000D02*
X129850Y75000D01*
X129850Y70000D02*
X133950Y70000D01*
X133950Y65000D02*
X129850Y65000D01*
X129850Y60000D02*
X133950Y60000D01*
X133950Y55000D02*
X129850Y55000D01*
X129850Y50000D02*
X133950Y50000D01*
D16*
X150000Y62500D03*
D17*
X190500Y55000D03*
X180500Y55000D03*
X190000Y43750D03*
X180000Y43750D03*
X178000Y90000D03*
X188000Y90000D03*
X157000Y94250D03*
X147000Y94250D03*
X191000Y66250D03*
X181000Y66250D03*
X190000Y78750D03*
X180000Y78750D03*
D10*
X58500Y384875D03*
X71500Y384875D03*
D11*
X53250Y349500D03*
X53250Y336500D03*
D10*
X153625Y357625D03*
X166625Y357625D03*
X153500Y346250D03*
X166500Y346250D03*
X153500Y335000D03*
X166500Y335000D03*
X153500Y323750D03*
X166500Y323750D03*
D11*
X54500Y303875D03*
X54500Y290875D03*
D18*
X207500Y155000D03*
X207500Y130000D03*
D10*
X204750Y118750D03*
X217750Y118750D03*
D11*
X222500Y150250D03*
X222500Y137250D03*
D17*
X171250Y32500D03*
X181250Y32500D03*
D10*
X119000Y75000D03*
X106000Y75000D03*
D12*
X185000Y456500D03*
X201500Y456500D03*
X201500Y469000D03*
X185000Y469000D03*
D19*
X220000Y468125D03*
X220000Y458125D03*
D17*
X211250Y167500D03*
X201250Y167500D03*
D19*
X210000Y443750D03*
X210000Y433750D03*
D20*
X219250Y512750D03*
X219250Y527250D03*
X183250Y512750D03*
X183250Y527250D03*
D14*
X248750Y527500D03*
X233750Y527500D03*
D21*
X101250Y422500D03*
X101250Y382500D03*
X158750Y422500D03*
X158750Y382500D03*
D14*
X75000Y398750D03*
X60000Y398750D03*
D22*
X40000Y470000D03*
X40000Y476500D03*
D23*
X38000Y483000D03*
D22*
X65000Y470000D03*
X65000Y476500D03*
D23*
X67000Y483000D03*
D24*
X40000Y492000D03*
X45000Y492000D03*
D25*
X50000Y490000D03*
X55000Y490000D03*
D24*
X60000Y492000D03*
X65000Y492000D03*
D26*
X47250Y510000D03*
X75250Y510000D03*
D19*
X30000Y526250D03*
X30000Y516250D03*
D27*
X77500Y456500D03*
X77500Y473500D03*
D19*
X28750Y488750D03*
X28750Y498750D03*
X28750Y467500D03*
X28750Y477500D03*
D28*
X65000Y427500D03*
D29*
X59750Y429500D03*
X59750Y425500D03*
X59750Y421500D03*
X59750Y433500D03*
X70250Y429500D03*
X70250Y433500D03*
X70250Y425500D03*
X70250Y421500D03*
D11*
X78750Y434000D03*
X78750Y421000D03*
X43750Y434000D03*
X43750Y421000D03*
D19*
X50000Y396875D03*
X50000Y406875D03*
D10*
X105875Y441250D03*
X92875Y441250D03*
M02*
