G04 EAGLE Gerber RS-274X export*
G75*
%MOMM*%
%FSLAX34Y34*%
%LPD*%
%INSoldermask Bottom*%
%IPPOS*%
%AMOC8*
5,1,8,0,0,1.08239X$1,22.5*%
G01*
%ADD10R,0.900000X0.700000*%
%ADD11R,0.700000X0.900000*%
%ADD12C,1.200000*%
%ADD13C,0.900000*%
%ADD14R,0.950000X0.500000*%
%ADD15R,0.600000X0.700000*%
%ADD16C,1.065000*%
%ADD17R,0.700000X0.600000*%
%ADD18R,1.100000X1.000000*%
%ADD19C,0.700000*%
%ADD20R,0.400000X0.500000*%
%ADD21R,1.700000X1.100000*%
%ADD22C,1.524000*%
%ADD23R,0.580000X0.580000*%

G36*
X131505Y377749D02*
X131505Y377749D01*
X131505Y377750D01*
X131505Y417750D01*
X131501Y417755D01*
X131500Y417755D01*
X97500Y417755D01*
X97495Y417751D01*
X97495Y417750D01*
X97495Y382750D01*
X97497Y382748D01*
X97496Y382746D01*
X102496Y377746D01*
X102499Y377746D01*
X102500Y377745D01*
X131500Y377745D01*
X131505Y377749D01*
G37*
G36*
X48505Y518249D02*
X48505Y518249D01*
X48505Y518250D01*
X48505Y529250D01*
X48501Y529255D01*
X48500Y529255D01*
X42005Y529255D01*
X42005Y531750D01*
X42001Y531755D01*
X42000Y531755D01*
X38000Y531755D01*
X37995Y531751D01*
X37995Y531750D01*
X37995Y529255D01*
X31500Y529255D01*
X31495Y529251D01*
X31495Y529250D01*
X31495Y518250D01*
X31499Y518245D01*
X31500Y518245D01*
X48500Y518245D01*
X48505Y518249D01*
G37*
G36*
X218880Y398499D02*
X218880Y398499D01*
X218880Y398500D01*
X218880Y403200D01*
X218879Y403201D01*
X218879Y403203D01*
X218877Y403203D01*
X218876Y403205D01*
X218874Y403203D01*
X218871Y403204D01*
X216371Y400704D01*
X216371Y400702D01*
X216371Y400701D01*
X216370Y400700D01*
X216370Y398500D01*
X216374Y398495D01*
X216375Y398495D01*
X218875Y398495D01*
X218880Y398499D01*
G37*
G36*
X218880Y407499D02*
X218880Y407499D01*
X218880Y407500D01*
X218880Y411500D01*
X218876Y411505D01*
X218875Y411505D01*
X216375Y411505D01*
X216370Y411501D01*
X216370Y411500D01*
X216370Y409300D01*
X216372Y409298D01*
X216371Y409296D01*
X218171Y407496D01*
X218174Y407496D01*
X218175Y407495D01*
X218875Y407495D01*
X218880Y407499D01*
G37*
G36*
X210577Y407497D02*
X210577Y407497D01*
X210579Y407496D01*
X212379Y409296D01*
X212379Y409299D01*
X212380Y409300D01*
X212380Y411500D01*
X212376Y411505D01*
X212375Y411505D01*
X209875Y411505D01*
X209870Y411501D01*
X209870Y411500D01*
X209870Y407500D01*
X209874Y407495D01*
X209875Y407495D01*
X210575Y407495D01*
X210577Y407497D01*
G37*
G36*
X212380Y398499D02*
X212380Y398499D01*
X212380Y398500D01*
X212380Y400700D01*
X212378Y400702D01*
X212379Y400704D01*
X210579Y402504D01*
X210576Y402504D01*
X210575Y402505D01*
X209875Y402505D01*
X209870Y402501D01*
X209870Y402500D01*
X209870Y398500D01*
X209874Y398495D01*
X209875Y398495D01*
X212375Y398495D01*
X212380Y398499D01*
G37*
D10*
X129750Y88250D03*
X129750Y101250D03*
X123950Y204250D03*
X123950Y191250D03*
X49250Y169500D03*
X49250Y156500D03*
X126875Y161000D03*
X126875Y174000D03*
D11*
X88500Y204000D03*
X75500Y204000D03*
X91900Y148000D03*
X78900Y148000D03*
D12*
X93500Y453750D02*
X93500Y465750D01*
X166500Y465750D02*
X166500Y453750D01*
X93500Y506750D02*
X93500Y518750D01*
X166500Y518750D02*
X166500Y506750D01*
D13*
X112500Y479750D03*
X147500Y479750D03*
D14*
X76250Y378700D03*
X76250Y391400D03*
X76250Y404100D03*
X76250Y416800D03*
X152750Y378700D03*
X152750Y391400D03*
X152750Y404100D03*
X152750Y416800D03*
D11*
X150750Y356750D03*
X163750Y356750D03*
D15*
X56250Y389250D03*
X66250Y389250D03*
D11*
X39750Y142500D03*
X52750Y142500D03*
X103750Y129375D03*
X116750Y129375D03*
X102250Y163750D03*
X89250Y163750D03*
D10*
X66875Y102875D03*
X66875Y115875D03*
X131875Y130875D03*
X131875Y143875D03*
X138000Y160875D03*
X138000Y173875D03*
X116375Y174125D03*
X116375Y161125D03*
D11*
X39750Y108750D03*
X52750Y108750D03*
D15*
X166250Y55000D03*
X156250Y55000D03*
X166250Y43750D03*
X156250Y43750D03*
X166250Y66250D03*
X156250Y66250D03*
D16*
X63850Y61500D03*
X63850Y48800D03*
X63850Y74200D03*
X63850Y86900D03*
X63850Y36100D03*
X51150Y61500D03*
X51150Y74200D03*
X51150Y86900D03*
X51150Y48800D03*
X51150Y36100D03*
D15*
X163125Y153125D03*
X173125Y153125D03*
X162500Y142500D03*
X172500Y142500D03*
D17*
X76250Y37500D03*
X76250Y47500D03*
D15*
X172500Y171750D03*
X162500Y171750D03*
X172375Y131375D03*
X162375Y131375D03*
D17*
X223500Y74500D03*
X223500Y84500D03*
X223500Y107250D03*
X223500Y97250D03*
X222400Y21300D03*
X222400Y31300D03*
X222500Y54000D03*
X222500Y44000D03*
D15*
X112500Y58750D03*
X122500Y58750D03*
D10*
X141250Y47250D03*
X141250Y60250D03*
X175000Y29000D03*
X175000Y16000D03*
X163750Y29000D03*
X163750Y16000D03*
D11*
X122750Y36250D03*
X109750Y36250D03*
X122750Y47500D03*
X109750Y47500D03*
D10*
X185500Y36000D03*
X185500Y23000D03*
X141650Y29000D03*
X141650Y16000D03*
D11*
X190875Y465250D03*
X203875Y465250D03*
X187750Y430625D03*
X174750Y430625D03*
D15*
X201875Y423750D03*
X211875Y423750D03*
D10*
X152500Y29000D03*
X152500Y16000D03*
D18*
X138500Y456250D03*
X121500Y456250D03*
D11*
X187750Y441250D03*
X174750Y441250D03*
D19*
X201250Y511000D03*
X201250Y529000D03*
D15*
X47500Y503750D03*
X37500Y503750D03*
D20*
X33500Y513250D03*
X46500Y513250D03*
D21*
X40000Y523750D03*
D22*
X13750Y508800D03*
X13750Y483400D03*
X13750Y458000D03*
X13750Y432600D03*
X13750Y407200D03*
X13750Y381800D03*
X13750Y356400D03*
X13750Y331000D03*
X13750Y305600D03*
X13750Y280200D03*
X13750Y254800D03*
X13750Y229400D03*
X13750Y204000D03*
X13750Y178600D03*
X13750Y153200D03*
X13750Y127800D03*
X13750Y102400D03*
X13750Y77000D03*
X13750Y51600D03*
X13750Y26200D03*
X242500Y508800D03*
X242500Y483400D03*
X242500Y458000D03*
X242500Y432600D03*
X242500Y407200D03*
X242500Y381800D03*
X242500Y356400D03*
X242500Y331000D03*
X242500Y305600D03*
X242500Y280200D03*
X242500Y254800D03*
X242500Y229400D03*
X242500Y204000D03*
X242500Y178600D03*
X242500Y153200D03*
X242500Y127800D03*
X242500Y102400D03*
X242500Y77000D03*
X242500Y51600D03*
X242500Y26200D03*
D23*
G36*
X214375Y409101D02*
X218476Y405000D01*
X214375Y400899D01*
X210274Y405000D01*
X214375Y409101D01*
G37*
D11*
X199000Y398125D03*
X186000Y398125D03*
X205375Y441250D03*
X218375Y441250D03*
X199000Y387500D03*
X186000Y387500D03*
X199000Y408750D03*
X186000Y408750D03*
X39750Y120000D03*
X52750Y120000D03*
X39750Y131250D03*
X52750Y131250D03*
D17*
X203750Y23750D03*
X203750Y33750D03*
X123125Y10000D03*
X123125Y20000D03*
D15*
X95000Y9500D03*
X105000Y9500D03*
X47000Y9250D03*
X57000Y9250D03*
D17*
X220625Y517500D03*
X220625Y507500D03*
D10*
X183750Y524000D03*
X183750Y511000D03*
M02*
