M48
;GenerationSoftware,Autodesk,EAGLE,9.4.2*%
;CreationDate,2020-02-13T02:32:45Z*%
FMAT,2
ICI,OFF
METRIC,TZ,000.000
T7C0.250
T6C0.700
T5C0.710
T4C0.800
T3C0.900
T2C1.016
%
G90
M71
T2
X1375Y28020
X1375Y2620
X1375Y5160
X1375Y7700
X1375Y10240
X1375Y12780
X1375Y15320
X1375Y17860
X1375Y20400
X1375Y22940
X1375Y25480
X24250Y2620
X1375Y30560
X1375Y33100
X1375Y35640
X1375Y38180
X1375Y40720
X1375Y43260
X1375Y45800
X1375Y48340
X1375Y50880
X24250Y48340
X24250Y5160
X24250Y7700
X24250Y10240
X24250Y12780
X24250Y15320
X24250Y17860
X24250Y20400
X24250Y22940
X24250Y25480
X24250Y30560
X24250Y33100
X24250Y35640
X24250Y38180
X24250Y40720
X24250Y43260
X24250Y45800
X24250Y50880
X24250Y28020
T3
X11250Y47975
X14750Y47975
T4
X9350Y45975
X16650Y45975
X9350Y51275
X16650Y51275
T5
X6385Y4880
X6385Y6150
X6385Y8690
X6385Y3610
X5115Y6150
X5115Y7420
X5115Y8690
X5115Y4880
X5115Y3610
X6385Y7420
T6
X20125Y52900
X20125Y51100
T7
X6250Y44250
X3000Y50625
X5625Y44875
X5625Y45500
X5625Y44250
X5625Y46125
X15600Y14800
X15600Y15600
X15600Y16400
X6875Y44250
X7500Y44250
X7500Y44875
X8125Y44875
X10800Y18000
X8125Y44250
X3625Y49375
X6000Y52375
X6000Y53000
X2200Y52600
X10800Y14000
X15125Y3625
X11600Y33200
X14187Y3625
X20813Y9000
X13875Y35600
X6675Y34850
X7475Y30850
X5500Y43125
X14800Y18000
X10000Y18000
X14000Y14000
X12400Y14000
X10000Y14800
X10800Y15600
X11600Y19600
X13200Y19600
X14000Y19600
X12400Y35600
X20050Y17500
X15300Y8750
X22375Y28875
X17750Y42125
X17500Y39100
X9200Y22800
X11600Y35600
X16400Y18000
X20600Y13900
X15600Y18000
X13200Y30800
X15600Y18800
X12400Y10800
X14700Y8750
X11600Y34000
X10000Y21200
X9200Y21200
X15600Y14000
X5375Y52375
X21937Y42063
X12300Y32400
X13200Y12400
X16400Y3600
X12500Y7500
X13200Y4000
X13100Y4600
X5375Y53000
X14800Y18800
X14800Y14000
X17300Y4400
X17400Y5350
X17513Y7587
X17600Y6750
X18100Y9800
X23000Y40400
X12400Y13200
X19800Y12000
X14800Y13200
X21200Y17450
X14800Y12400
X20650Y17700
X14000Y11600
X10800Y10800
X10000Y11600
X21100Y3400
X5200Y21400
X6600Y21400
X5200Y20800
X6600Y20800
X5200Y20200
X6600Y20200
X22437Y40000
X19438Y44125
X2500Y14750
X22500Y49875
X22500Y48375
X2520Y15395
X19550Y7300
X11400Y2600
X6800Y800
X19800Y11200
X17375Y48500
X15300Y36500
X19500Y52187
X23250Y51875
X3600Y800
X8500Y1300
X13000Y525
X21460Y2250
X20000Y6900
X12950Y1950
X4400Y17600
X14625Y34625
X11600Y18000
X18400Y47750
X20250Y43188
X22575Y40950
X20750Y37875
X2937Y13875
X11620Y8319
X14825Y32775
X7600Y10170
X5870Y10170
X3000Y13125
X3000Y12250
X3000Y11000
X14000Y15600
X12400Y15600
X22812Y24312
X10400Y33100
X19300Y3400
X5000Y38900
X15300Y37300
X23100Y9600
X22300Y3700
X15100Y10000
X19400Y9000
X17400Y5950
X13155Y8125
X10000Y17200
X6800Y33200
X9200Y33200
X10000Y30000
X18000Y13200
X20150Y21433
X4250Y41000
X7625Y5375
X21875Y6125
X9100Y39300
X6800Y37400
X10000Y34000
X7600Y21190
X14000Y28400
X8000Y33000
X10000Y30800
X10000Y31450
X17200Y16400
X21800Y1125
X11590Y1460
X9250Y43375
X18500Y1600
X2563Y43063
X3187Y43063
X13200Y18000
X5600Y32650
X17350Y32425
X17350Y33500
X17350Y34625
X17300Y35800
X11600Y15600
X18313Y50375
X24875Y52000
X21813Y44937
X10800Y21200
X16400Y22800
X15600Y21200
X18900Y9700
X17200Y22000
X17050Y9300
X17200Y20400
X17200Y21200
X9200Y19600
X10000Y14000
X10800Y20400
X16800Y10700
X10800Y19600
X21750Y43250
X8400Y12400
X14625Y44250
X20428Y22917
X19725Y24800
X19763Y23037
X6700Y1500
X5250Y19600
X7000Y41100
X16400Y36600
X13700Y10600
X19600Y6150
X19413Y19850
X9200Y15600
X6675Y29250
X6675Y30850
X6562Y41770
X5000Y41750
X5000Y42375
X7375Y49750
X8000Y49750
X7375Y49000
X8000Y49000
X7375Y48250
X8000Y48250
X14000Y18000
X19423Y20800
X14000Y14800
X12400Y14800
X11600Y14800
X10800Y14800
X10800Y17200
X10800Y18800
X11600Y18800
X13200Y18800
X14000Y18800
X14800Y16400
X14800Y15600
X6000Y11125
X21000Y45650
X16813Y44000
X19188Y39875
X19188Y40875
X20625Y40000
X11750Y44250
X5970Y13862
X8400Y14000
X10859Y8319
X7600Y10800
X5927Y13220
X5867Y12250
X17200Y22800
X13260Y1377
X17488Y875
X19763Y26300
X22750Y21625
X22375Y13000
X10000Y7500
X10375Y3625
X10375Y4750
X21688Y9030
X14875Y7125
X14125Y7125
X12200Y23600
X18000Y15600
X14000Y34800
X18000Y14800
X13200Y33100
X18000Y14000
X9200Y34800
X11500Y23000
X11600Y22000
X9200Y34000
X8400Y34000
X11600Y21200
X10000Y34800
X14000Y34000
X15100Y28000
X15600Y11600
X13300Y32100
X14800Y11600
X7600Y34800
X9200Y18800
X8400Y34800
X10000Y18800
X7600Y29200
X7600Y18800
X7600Y30000
X7600Y19600
X13200Y30000
X11600Y28400
X10000Y20400
X11600Y29200
X14000Y20400
X12400Y34800
X13200Y21200
X12000Y31000
X13200Y20400
X13200Y28400
X14000Y22000
X13200Y29200
X14000Y21200
X6800Y30000
X14800Y20400
X11600Y34800
X13200Y22000
X22700Y18300
X22500Y17700
X14400Y29800
X17200Y18800
X14300Y30700
X17200Y18000
X13900Y31900
X18000Y16400
X22800Y38000
X3500Y41700
X6600Y22600
X3900Y40500
X6600Y22000
X17500Y40500
X8400Y18800
X17500Y39800
X8400Y19600
X18800Y37700
X9200Y22000
X17500Y41200
X13200Y11600
X16400Y19600
X11600Y10800
X8750Y8500
X14800Y19600
X20100Y36700
X19900Y37800
X3100Y31700
X6750Y12450
X3300Y31100
X6800Y13200
X6350Y15200
X19500Y7900
X3600Y30550
X6800Y19600
X6800Y34000
X9200Y13200
X7600Y34000
X9200Y12400
X9200Y10800
X22800Y35100
X8400Y11600
X3800Y26200
X6800Y15600
X4000Y28000
X6800Y16400
X14800Y14800
X6350Y16000
X6350Y16800
X19600Y4400
X14800Y21200
X19600Y5300
X15600Y20400
X21400Y37700
X15600Y19600
X21800Y38500
X21000Y36200
X16400Y8800
M30